%TF.GenerationSoftware,KiCad,Pcbnew,(6.0.8-1)-1*%
%TF.CreationDate,2023-01-29T13:44:33-06:00*%
%TF.ProjectId,M4_CAN_Feather_Carrier,4d345f43-414e-45f4-9665-61746865725f,rev?*%
%TF.SameCoordinates,Original*%
%TF.FileFunction,Copper,L1,Top*%
%TF.FilePolarity,Positive*%
%FSLAX46Y46*%
G04 Gerber Fmt 4.6, Leading zero omitted, Abs format (unit mm)*
G04 Created by KiCad (PCBNEW (6.0.8-1)-1) date 2023-01-29 13:44:33*
%MOMM*%
%LPD*%
G01*
G04 APERTURE LIST*
G04 Aperture macros list*
%AMRoundRect*
0 Rectangle with rounded corners*
0 $1 Rounding radius*
0 $2 $3 $4 $5 $6 $7 $8 $9 X,Y pos of 4 corners*
0 Add a 4 corners polygon primitive as box body*
4,1,4,$2,$3,$4,$5,$6,$7,$8,$9,$2,$3,0*
0 Add four circle primitives for the rounded corners*
1,1,$1+$1,$2,$3*
1,1,$1+$1,$4,$5*
1,1,$1+$1,$6,$7*
1,1,$1+$1,$8,$9*
0 Add four rect primitives between the rounded corners*
20,1,$1+$1,$2,$3,$4,$5,0*
20,1,$1+$1,$4,$5,$6,$7,0*
20,1,$1+$1,$6,$7,$8,$9,0*
20,1,$1+$1,$8,$9,$2,$3,0*%
G04 Aperture macros list end*
%TA.AperFunction,ComponentPad*%
%ADD10C,1.700000*%
%TD*%
%TA.AperFunction,SMDPad,CuDef*%
%ADD11R,2.000000X1.500000*%
%TD*%
%TA.AperFunction,ComponentPad*%
%ADD12C,1.650000*%
%TD*%
%TA.AperFunction,SMDPad,CuDef*%
%ADD13RoundRect,0.250000X0.250000X0.475000X-0.250000X0.475000X-0.250000X-0.475000X0.250000X-0.475000X0*%
%TD*%
%TA.AperFunction,SMDPad,CuDef*%
%ADD14RoundRect,0.150000X0.625000X-0.150000X0.625000X0.150000X-0.625000X0.150000X-0.625000X-0.150000X0*%
%TD*%
%TA.AperFunction,SMDPad,CuDef*%
%ADD15RoundRect,0.250000X0.650000X-0.350000X0.650000X0.350000X-0.650000X0.350000X-0.650000X-0.350000X0*%
%TD*%
%TA.AperFunction,SMDPad,CuDef*%
%ADD16RoundRect,0.250000X-1.000000X1.500000X-1.000000X-1.500000X1.000000X-1.500000X1.000000X1.500000X0*%
%TD*%
%TA.AperFunction,SMDPad,CuDef*%
%ADD17RoundRect,0.250000X-0.262500X-0.450000X0.262500X-0.450000X0.262500X0.450000X-0.262500X0.450000X0*%
%TD*%
%TA.AperFunction,ComponentPad*%
%ADD18C,1.600000*%
%TD*%
%TA.AperFunction,ComponentPad*%
%ADD19C,3.800000*%
%TD*%
%TA.AperFunction,SMDPad,CuDef*%
%ADD20RoundRect,0.150000X0.150000X-0.825000X0.150000X0.825000X-0.150000X0.825000X-0.150000X-0.825000X0*%
%TD*%
%TA.AperFunction,SMDPad,CuDef*%
%ADD21RoundRect,0.250000X-0.450000X0.262500X-0.450000X-0.262500X0.450000X-0.262500X0.450000X0.262500X0*%
%TD*%
%TA.AperFunction,ComponentPad*%
%ADD22R,1.700000X1.700000*%
%TD*%
%TA.AperFunction,ComponentPad*%
%ADD23O,1.700000X1.700000*%
%TD*%
%TA.AperFunction,SMDPad,CuDef*%
%ADD24RoundRect,0.250000X0.450000X-0.262500X0.450000X0.262500X-0.450000X0.262500X-0.450000X-0.262500X0*%
%TD*%
%TA.AperFunction,SMDPad,CuDef*%
%ADD25R,2.670000X2.540000*%
%TD*%
%TA.AperFunction,SMDPad,CuDef*%
%ADD26R,0.760000X1.270000*%
%TD*%
%TA.AperFunction,ViaPad*%
%ADD27C,0.800000*%
%TD*%
%TA.AperFunction,Conductor*%
%ADD28C,0.250000*%
%TD*%
%TA.AperFunction,Conductor*%
%ADD29C,0.750000*%
%TD*%
%TA.AperFunction,Conductor*%
%ADD30C,0.500000*%
%TD*%
%TA.AperFunction,Conductor*%
%ADD31C,1.000000*%
%TD*%
%TA.AperFunction,Conductor*%
%ADD32C,0.400000*%
%TD*%
G04 APERTURE END LIST*
D10*
%TO.P,U2,1,RST*%
%TO.N,unconnected-(U2-Pad1)*%
X128080000Y-110230000D03*
%TO.P,U2,2,3V*%
%TO.N,+3.3V*%
X130590000Y-110230000D03*
%TO.P,U2,3,ARef*%
%TO.N,unconnected-(U2-Pad3)*%
X133130000Y-110230000D03*
%TO.P,U2,4,GND*%
%TO.N,GND*%
X135670000Y-110230000D03*
%TO.P,U2,5,A0*%
%TO.N,/A0*%
X138210000Y-110230000D03*
%TO.P,U2,6,A1*%
%TO.N,/A1*%
X140750000Y-110230000D03*
%TO.P,U2,7,A2*%
%TO.N,/A2*%
X143290000Y-110230000D03*
%TO.P,U2,8,A3*%
%TO.N,/A3*%
X145830000Y-110230000D03*
%TO.P,U2,9,A4*%
%TO.N,unconnected-(U2-Pad9)*%
X148370000Y-110230000D03*
%TO.P,U2,10,A5*%
%TO.N,/LS_OE*%
X150910000Y-110230000D03*
%TO.P,U2,11,SCK*%
%TO.N,/SCL_2*%
X153450000Y-110230000D03*
%TO.P,U2,12,MOSI*%
%TO.N,unconnected-(U2-Pad12)*%
X155990000Y-110230000D03*
%TO.P,U2,13,MISO*%
%TO.N,unconnected-(U2-Pad13)*%
X158530000Y-110230000D03*
%TO.P,U2,14,D0*%
%TO.N,/SCL_1*%
X161070000Y-110230000D03*
%TO.P,U2,15,D1*%
%TO.N,/SDA_1*%
X163610000Y-110230000D03*
%TO.P,U2,16,D4*%
%TO.N,/NEOPIXEL*%
X166150000Y-110230000D03*
%TO.P,U2,17,SDA*%
%TO.N,/SDA*%
X166150000Y-89910000D03*
%TO.P,U2,18,SCL*%
%TO.N,/SCL*%
X163610000Y-89910000D03*
%TO.P,U2,19,D5*%
%TO.N,/SDA_2*%
X161070000Y-89910000D03*
%TO.P,U2,20,D6*%
%TO.N,/DIO0*%
X158530000Y-89910000D03*
%TO.P,U2,21,D9*%
%TO.N,/DIO1*%
X155990000Y-89910000D03*
%TO.P,U2,22,D10*%
%TO.N,/DIO2*%
X153450000Y-89910000D03*
%TO.P,U2,23,D11*%
%TO.N,/DIO3*%
X150910000Y-89910000D03*
%TO.P,U2,24,D12*%
%TO.N,/SDA_3*%
X148370000Y-89910000D03*
%TO.P,U2,25,D13*%
%TO.N,/SCL_3*%
X145830000Y-89910000D03*
%TO.P,U2,26,VBUS*%
%TO.N,Net-(SW1-Pad1)*%
X143290000Y-89910000D03*
%TO.P,U2,27,EN*%
%TO.N,unconnected-(U2-Pad27)*%
X140750000Y-89910000D03*
%TO.P,U2,28,VBAT*%
%TO.N,unconnected-(U2-Pad28)*%
X138210000Y-89910000D03*
%TD*%
D11*
%TO.P,SW1,1,A*%
%TO.N,Net-(SW1-Pad1)*%
X148100000Y-86200000D03*
%TO.P,SW1,2,B*%
%TO.N,+5V*%
X157100000Y-86200000D03*
%TD*%
D12*
%TO.P,J1,1,1*%
%TO.N,+BATT*%
X130700000Y-81113000D03*
%TO.P,J1,2,2*%
%TO.N,GND*%
X125700000Y-84613000D03*
%TD*%
D13*
%TO.P,C2,1*%
%TO.N,+3.3V*%
X151450000Y-98900000D03*
%TO.P,C2,2*%
%TO.N,GND*%
X149550000Y-98900000D03*
%TD*%
D10*
%TO.P,J7,1,S1*%
%TO.N,Net-(J7-Pad1)*%
X132170000Y-115285000D03*
%TO.P,J7,2,P1*%
%TO.N,+3.3V*%
X132170000Y-117825000D03*
%TO.P,J7,3,G1*%
%TO.N,GND*%
X132170000Y-120365000D03*
%TO.P,J7,4,S2*%
%TO.N,Net-(J7-Pad4)*%
X134710000Y-115285000D03*
%TO.P,J7,5,P2*%
%TO.N,+3.3V*%
X134710000Y-117825000D03*
%TO.P,J7,6,G2*%
%TO.N,GND*%
X134710000Y-120365000D03*
%TO.P,J7,7,S3*%
%TO.N,Net-(J7-Pad7)*%
X137250000Y-115285000D03*
%TO.P,J7,8,P3*%
%TO.N,+3.3V*%
X137250000Y-117825000D03*
%TO.P,J7,9,G3*%
%TO.N,GND*%
X137250000Y-120365000D03*
%TO.P,J7,10,S4*%
%TO.N,Net-(J7-Pad10)*%
X139790000Y-115285000D03*
%TO.P,J7,11,P4*%
%TO.N,+3.3V*%
X139790000Y-117825000D03*
%TO.P,J7,12,G4*%
%TO.N,GND*%
X139790000Y-120365000D03*
%TD*%
D14*
%TO.P,X4,1,GND*%
%TO.N,GND*%
X178800000Y-90966667D03*
%TO.P,X4,2,V+*%
%TO.N,+3.3V*%
X178800000Y-89966667D03*
%TO.P,X4,3,SDA*%
%TO.N,/SDA_3*%
X178800000Y-88966667D03*
%TO.P,X4,4,SCL*%
%TO.N,/SCL_3*%
X178800000Y-87966667D03*
D15*
%TO.P,X4,MP,MP*%
%TO.N,GND*%
X182675000Y-86666667D03*
X182675000Y-92266667D03*
%TD*%
D13*
%TO.P,C3,1*%
%TO.N,VDD*%
X151450000Y-96100000D03*
%TO.P,C3,2*%
%TO.N,GND*%
X149550000Y-96100000D03*
%TD*%
D16*
%TO.P,C1,1*%
%TO.N,+12V*%
X138500000Y-75192500D03*
%TO.P,C1,2*%
%TO.N,GND*%
X138500000Y-81692500D03*
%TD*%
D14*
%TO.P,X2,1,GND*%
%TO.N,GND*%
X178800000Y-107833333D03*
%TO.P,X2,2,V+*%
%TO.N,+3.3V*%
X178800000Y-106833333D03*
%TO.P,X2,3,SDA*%
%TO.N,/SDA_1*%
X178800000Y-105833333D03*
%TO.P,X2,4,SCL*%
%TO.N,/SCL_1*%
X178800000Y-104833333D03*
D15*
%TO.P,X2,MP,MP*%
%TO.N,GND*%
X182675000Y-103533333D03*
X182675000Y-109133333D03*
%TD*%
D17*
%TO.P,R6,1*%
%TO.N,/LS_OE*%
X163275000Y-97500000D03*
%TO.P,R6,2*%
%TO.N,GND*%
X165100000Y-97500000D03*
%TD*%
D18*
%TO.P,J2,1,1*%
%TO.N,/NEOPIXEL*%
X175596000Y-77500000D03*
%TO.P,J2,2,2*%
%TO.N,+5V*%
X172096000Y-82500000D03*
%TO.P,J2,3,3*%
%TO.N,GND*%
X168596000Y-77500000D03*
%TD*%
D13*
%TO.P,C4,1*%
%TO.N,+3.3V*%
X133200000Y-103500000D03*
%TO.P,C4,2*%
%TO.N,GND*%
X131300000Y-103500000D03*
%TD*%
D19*
%TO.P,H3,1,1*%
%TO.N,unconnected-(H3-Pad1)*%
X181500000Y-75200000D03*
%TD*%
D20*
%TO.P,U3,1,VCCA*%
%TO.N,+3.3V*%
X153885000Y-102740000D03*
%TO.P,U3,2,A1*%
%TO.N,/DIO0*%
X155155000Y-102740000D03*
%TO.P,U3,3,A2*%
%TO.N,/DIO1*%
X156425000Y-102740000D03*
%TO.P,U3,4,A3*%
%TO.N,/DIO2*%
X157695000Y-102740000D03*
%TO.P,U3,5,A4*%
%TO.N,/DIO3*%
X158965000Y-102740000D03*
%TO.P,U3,6,NC*%
%TO.N,unconnected-(U3-Pad6)*%
X160235000Y-102740000D03*
%TO.P,U3,7,GND*%
%TO.N,GND*%
X161505000Y-102740000D03*
%TO.P,U3,8,OE*%
%TO.N,/LS_OE*%
X161505000Y-97790000D03*
%TO.P,U3,9,NC*%
%TO.N,unconnected-(U3-Pad9)*%
X160235000Y-97790000D03*
%TO.P,U3,10,B4*%
%TO.N,Net-(J3-Pad1)*%
X158965000Y-97790000D03*
%TO.P,U3,11,B3*%
%TO.N,Net-(J3-Pad4)*%
X157695000Y-97790000D03*
%TO.P,U3,12,B2*%
%TO.N,Net-(J3-Pad7)*%
X156425000Y-97790000D03*
%TO.P,U3,13,B1*%
%TO.N,Net-(J3-Pad10)*%
X155155000Y-97790000D03*
%TO.P,U3,14,VCCB*%
%TO.N,VDD*%
X153885000Y-97790000D03*
%TD*%
D10*
%TO.P,U1,1,EN*%
%TO.N,Net-(R5-Pad2)*%
X147110000Y-74402000D03*
%TO.P,U1,2,VIN*%
%TO.N,+12V*%
X147110000Y-76942000D03*
%TO.P,U1,3,GND*%
%TO.N,GND*%
X147110000Y-79482000D03*
%TO.P,U1,4,VOUT*%
%TO.N,+5V*%
X147110000Y-82022000D03*
%TD*%
D19*
%TO.P,H1,1,1*%
%TO.N,unconnected-(H1-Pad1)*%
X123500000Y-121200000D03*
%TD*%
D21*
%TO.P,R2,1*%
%TO.N,VDD*%
X149200000Y-101387500D03*
%TO.P,R2,2*%
%TO.N,Net-(J3-Pad7)*%
X149200000Y-103212500D03*
%TD*%
D22*
%TO.P,J4,1,Pin_1*%
%TO.N,VDD*%
X168100000Y-117835000D03*
D23*
%TO.P,J4,2,Pin_2*%
%TO.N,GND*%
X168100000Y-120375000D03*
%TO.P,J4,3,Pin_3*%
%TO.N,VDD*%
X165560000Y-117835000D03*
%TO.P,J4,4,Pin_4*%
%TO.N,GND*%
X165560000Y-120375000D03*
%TO.P,J4,5,Pin_5*%
%TO.N,VDD*%
X163020000Y-117835000D03*
%TO.P,J4,6,Pin_6*%
%TO.N,GND*%
X163020000Y-120375000D03*
%TO.P,J4,7,Pin_7*%
%TO.N,VDD*%
X160480000Y-117835000D03*
%TO.P,J4,8,Pin_8*%
%TO.N,GND*%
X160480000Y-120375000D03*
%TD*%
D21*
%TO.P,R1,1*%
%TO.N,VDD*%
X151400000Y-101400000D03*
%TO.P,R1,2*%
%TO.N,Net-(J3-Pad10)*%
X151400000Y-103225000D03*
%TD*%
D19*
%TO.P,H2,1,1*%
%TO.N,unconnected-(H2-Pad1)*%
X181500000Y-121200000D03*
%TD*%
D24*
%TO.P,R5,1*%
%TO.N,+12V*%
X144400000Y-76200000D03*
%TO.P,R5,2*%
%TO.N,Net-(R5-Pad2)*%
X144400000Y-74375000D03*
%TD*%
D20*
%TO.P,U4,1*%
%TO.N,/A0*%
X129390000Y-100575000D03*
%TO.P,U4,2,-*%
X130660000Y-100575000D03*
%TO.P,U4,3,+*%
%TO.N,Net-(J7-Pad1)*%
X131930000Y-100575000D03*
%TO.P,U4,4,V+*%
%TO.N,+3.3V*%
X133200000Y-100575000D03*
%TO.P,U4,5,+*%
%TO.N,Net-(J7-Pad4)*%
X134470000Y-100575000D03*
%TO.P,U4,6,-*%
%TO.N,/A1*%
X135740000Y-100575000D03*
%TO.P,U4,7*%
X137010000Y-100575000D03*
%TO.P,U4,8*%
%TO.N,/A2*%
X137010000Y-95625000D03*
%TO.P,U4,9,-*%
X135740000Y-95625000D03*
%TO.P,U4,10,+*%
%TO.N,Net-(J7-Pad7)*%
X134470000Y-95625000D03*
%TO.P,U4,11,V-*%
%TO.N,GND*%
X133200000Y-95625000D03*
%TO.P,U4,12,+*%
%TO.N,Net-(J7-Pad10)*%
X131930000Y-95625000D03*
%TO.P,U4,13,-*%
%TO.N,/A3*%
X130660000Y-95625000D03*
%TO.P,U4,14*%
X129390000Y-95625000D03*
%TD*%
D22*
%TO.P,J5,1,Pin_1*%
%TO.N,+5V*%
X156400000Y-115285000D03*
D23*
%TO.P,J5,2,Pin_2*%
%TO.N,VDD*%
X156400000Y-117825000D03*
%TO.P,J5,3,Pin_3*%
%TO.N,+3.3V*%
X156400000Y-120365000D03*
%TD*%
D21*
%TO.P,R3,1*%
%TO.N,VDD*%
X147000000Y-101387500D03*
%TO.P,R3,2*%
%TO.N,Net-(J3-Pad4)*%
X147000000Y-103212500D03*
%TD*%
D14*
%TO.P,X1,1,GND*%
%TO.N,GND*%
X178800000Y-116266667D03*
%TO.P,X1,2,V+*%
%TO.N,+3.3V*%
X178800000Y-115266667D03*
%TO.P,X1,3,SDA*%
%TO.N,/SDA*%
X178800000Y-114266667D03*
%TO.P,X1,4,SCL*%
%TO.N,/SCL*%
X178800000Y-113266667D03*
D15*
%TO.P,X1,MP,MP*%
%TO.N,GND*%
X182675000Y-111966667D03*
X182675000Y-117566667D03*
%TD*%
D21*
%TO.P,R4,1*%
%TO.N,VDD*%
X144800000Y-101387500D03*
%TO.P,R4,2*%
%TO.N,Net-(J3-Pad1)*%
X144800000Y-103212500D03*
%TD*%
D25*
%TO.P,D1,1,C*%
%TO.N,+12V*%
X130855000Y-75400000D03*
D26*
%TO.P,D1,2,A*%
%TO.N,+BATT*%
X128500000Y-75400000D03*
%TD*%
D10*
%TO.P,J3,1,S1*%
%TO.N,Net-(J3-Pad1)*%
X144720000Y-115290000D03*
%TO.P,J3,2,P1*%
%TO.N,VDD*%
X144720000Y-117830000D03*
%TO.P,J3,3,G1*%
%TO.N,GND*%
X144720000Y-120370000D03*
%TO.P,J3,4,S2*%
%TO.N,Net-(J3-Pad4)*%
X147260000Y-115290000D03*
%TO.P,J3,5,P2*%
%TO.N,VDD*%
X147260000Y-117830000D03*
%TO.P,J3,6,G2*%
%TO.N,GND*%
X147260000Y-120370000D03*
%TO.P,J3,7,S3*%
%TO.N,Net-(J3-Pad7)*%
X149800000Y-115290000D03*
%TO.P,J3,8,P3*%
%TO.N,VDD*%
X149800000Y-117830000D03*
%TO.P,J3,9,G3*%
%TO.N,GND*%
X149800000Y-120370000D03*
%TO.P,J3,10,S4*%
%TO.N,Net-(J3-Pad10)*%
X152340000Y-115290000D03*
%TO.P,J3,11,P4*%
%TO.N,VDD*%
X152340000Y-117830000D03*
%TO.P,J3,12,G4*%
%TO.N,GND*%
X152340000Y-120370000D03*
%TD*%
D14*
%TO.P,X3,1,GND*%
%TO.N,GND*%
X178800000Y-99400000D03*
%TO.P,X3,2,V+*%
%TO.N,+3.3V*%
X178800000Y-98400000D03*
%TO.P,X3,3,SDA*%
%TO.N,/SDA_2*%
X178800000Y-97400000D03*
%TO.P,X3,4,SCL*%
%TO.N,/SCL_2*%
X178800000Y-96400000D03*
D15*
%TO.P,X3,MP,MP*%
%TO.N,GND*%
X182675000Y-95100000D03*
X182675000Y-100700000D03*
%TD*%
D19*
%TO.P,H4,1,1*%
%TO.N,unconnected-(H4-Pad1)*%
X123500000Y-75200000D03*
%TD*%
D27*
%TO.N,GND*%
X177900000Y-109000000D03*
X166300000Y-96400000D03*
X162800000Y-102700000D03*
X178000000Y-92100000D03*
X135750000Y-79800000D03*
X182675000Y-114725000D03*
X148300000Y-98400000D03*
X130000000Y-103900000D03*
X178000000Y-100500000D03*
X177800000Y-117400000D03*
X135700000Y-81100000D03*
X133500000Y-97400000D03*
X182675000Y-89425000D03*
X182675000Y-106225000D03*
X148300000Y-95600000D03*
X182675000Y-97925000D03*
%TO.N,VDD*%
X146500000Y-97500000D03*
X166800000Y-107600000D03*
X143100000Y-104000000D03*
X144800000Y-99200000D03*
%TO.N,/NEOPIXEL*%
X175000000Y-108600000D03*
X175600000Y-86000000D03*
X175000000Y-89600000D03*
%TO.N,Net-(J3-Pad1)*%
X145900000Y-102300000D03*
X159324500Y-99600000D03*
%TO.N,Net-(J3-Pad4)*%
X157862299Y-100137701D03*
X148100000Y-102300000D03*
%TO.N,Net-(J3-Pad7)*%
X156600000Y-101000000D03*
X150403053Y-102312500D03*
%TO.N,Net-(J3-Pad10)*%
X152700000Y-102900000D03*
X155000000Y-101100000D03*
%TO.N,/LS_OE*%
X153700000Y-106900000D03*
%TO.N,/SCL_2*%
X155100000Y-107800000D03*
X177100000Y-96300000D03*
X171400000Y-96300000D03*
%TO.N,/SCL_1*%
X177000000Y-104800000D03*
X165800000Y-104900000D03*
%TO.N,/SDA_1*%
X166500000Y-105700000D03*
X177000000Y-105799503D03*
%TO.N,/SDA_2*%
X170100000Y-96300000D03*
X177100000Y-97400000D03*
%TD*%
D28*
%TO.N,/SDA_3*%
X178800000Y-88966667D02*
X177566667Y-88966667D01*
X177566667Y-88966667D02*
X177000000Y-88400000D01*
X177000000Y-88400000D02*
X149250000Y-88400000D01*
X149250000Y-88400000D02*
X148370000Y-89280000D01*
X148370000Y-89280000D02*
X148370000Y-89910000D01*
%TO.N,/SDA*%
X178800000Y-114266667D02*
X179633333Y-114266667D01*
X179900000Y-112700000D02*
X179200000Y-112000000D01*
X179633333Y-114266667D02*
X179900000Y-114000000D01*
X179900000Y-114000000D02*
X179900000Y-112700000D01*
X179200000Y-112000000D02*
X176150000Y-112000000D01*
X176150000Y-112000000D02*
X173800000Y-109650000D01*
X173800000Y-109650000D02*
X173800000Y-95900000D01*
X173800000Y-95900000D02*
X171200000Y-93300000D01*
X171200000Y-93300000D02*
X167400000Y-93300000D01*
X167400000Y-93300000D02*
X166150000Y-92050000D01*
X166150000Y-92050000D02*
X166150000Y-89910000D01*
D29*
%TO.N,Net-(SW1-Pad1)*%
X148100000Y-86200000D02*
X145950000Y-86200000D01*
X145950000Y-86200000D02*
X143290000Y-88860000D01*
X143290000Y-88860000D02*
X143290000Y-89910000D01*
D28*
%TO.N,/LS_OE*%
X161505000Y-97790000D02*
X161505000Y-99695000D01*
X160880000Y-104970000D02*
X158950000Y-106900000D01*
X161505000Y-99695000D02*
X160880000Y-100320000D01*
X158950000Y-106900000D02*
X153700000Y-106900000D01*
X160880000Y-100320000D02*
X160880000Y-104970000D01*
%TO.N,/A0*%
X130660000Y-100575000D02*
X130660000Y-99640000D01*
X132300000Y-104500000D02*
X133200000Y-105400000D01*
X130660000Y-99640000D02*
X131100000Y-99200000D01*
X132300000Y-102150000D02*
X132300000Y-104500000D01*
X132575000Y-99475000D02*
X132575000Y-101875000D01*
X131100000Y-99200000D02*
X132300000Y-99200000D01*
X132300000Y-99200000D02*
X132575000Y-99475000D01*
X132575000Y-101875000D02*
X132300000Y-102150000D01*
X134400000Y-105400000D02*
X138210000Y-109210000D01*
X133200000Y-105400000D02*
X134400000Y-105400000D01*
X138210000Y-109210000D02*
X138210000Y-110230000D01*
%TO.N,Net-(J3-Pad10)*%
X151400000Y-103225000D02*
X151400000Y-106000000D01*
X151400000Y-106000000D02*
X154800000Y-109400000D01*
X154800000Y-111450000D02*
X152340000Y-113910000D01*
X152340000Y-113910000D02*
X152340000Y-115290000D01*
X154800000Y-109400000D02*
X154800000Y-111450000D01*
%TO.N,Net-(J3-Pad7)*%
X149200000Y-103212500D02*
X149200000Y-105400000D01*
X149800000Y-113950000D02*
X149800000Y-115290000D01*
X149200000Y-105400000D02*
X152200000Y-108400000D01*
X152200000Y-111550000D02*
X149800000Y-113950000D01*
X152200000Y-108400000D02*
X152200000Y-111550000D01*
%TO.N,Net-(J3-Pad4)*%
X147000000Y-103212500D02*
X147000000Y-105400000D01*
X147000000Y-105400000D02*
X149735000Y-108135000D01*
X149735000Y-108135000D02*
X149735000Y-111465000D01*
X149735000Y-111465000D02*
X147260000Y-113940000D01*
X147260000Y-113940000D02*
X147260000Y-115290000D01*
%TO.N,Net-(J3-Pad1)*%
X144720000Y-115290000D02*
X144720000Y-113880000D01*
X144800000Y-105100000D02*
X144800000Y-103212500D01*
X144720000Y-113880000D02*
X147195000Y-111405000D01*
X147195000Y-111405000D02*
X147195000Y-107495000D01*
X147195000Y-107495000D02*
X144800000Y-105100000D01*
%TO.N,Net-(J7-Pad10)*%
X139790000Y-115285000D02*
X139790000Y-114510000D01*
X139790000Y-114510000D02*
X140400000Y-113900000D01*
X144500000Y-107900000D02*
X140000000Y-103400000D01*
X140000000Y-103400000D02*
X140000000Y-95400000D01*
X140000000Y-95400000D02*
X138300000Y-93700000D01*
X138300000Y-93700000D02*
X132600000Y-93700000D01*
X140400000Y-113900000D02*
X142000000Y-113900000D01*
X144500000Y-111400000D02*
X144500000Y-107900000D01*
X142000000Y-113900000D02*
X144500000Y-111400000D01*
X132600000Y-93700000D02*
X131930000Y-94370000D01*
X131930000Y-94370000D02*
X131930000Y-95625000D01*
%TO.N,Net-(J7-Pad7)*%
X137250000Y-115285000D02*
X137250000Y-113650000D01*
X137800000Y-113100000D02*
X140350000Y-113100000D01*
X137250000Y-113650000D02*
X137800000Y-113100000D01*
X134470000Y-96970000D02*
X134470000Y-95625000D01*
X140350000Y-113100000D02*
X142000000Y-111450000D01*
X142000000Y-108400000D02*
X138200000Y-104600000D01*
X142000000Y-111450000D02*
X142000000Y-108400000D01*
X138200000Y-104600000D02*
X138200000Y-99000000D01*
X138200000Y-99000000D02*
X137600000Y-98400000D01*
X137600000Y-98400000D02*
X135900000Y-98400000D01*
X135900000Y-98400000D02*
X134470000Y-96970000D01*
%TO.N,/DIO3*%
X150910000Y-89910000D02*
X150910000Y-91210000D01*
X150910000Y-91210000D02*
X155800000Y-96100000D01*
X155800000Y-96100000D02*
X155800000Y-104400000D01*
X155800000Y-104400000D02*
X156500000Y-105100000D01*
X156500000Y-105100000D02*
X158300000Y-105100000D01*
X158300000Y-105100000D02*
X158965000Y-104435000D01*
X158965000Y-104435000D02*
X158965000Y-102740000D01*
%TO.N,/DIO0*%
X159610000Y-98811751D02*
X160100000Y-99301751D01*
X158530000Y-95030000D02*
X159610000Y-96110000D01*
X159610000Y-96110000D02*
X159610000Y-98811751D01*
X158530000Y-89910000D02*
X158530000Y-95030000D01*
X160100000Y-99301751D02*
X160100000Y-101228249D01*
X160100000Y-101228249D02*
X159610000Y-101718249D01*
X159610000Y-101718249D02*
X159610000Y-104790000D01*
X159610000Y-104790000D02*
X158600000Y-105800000D01*
X158600000Y-105800000D02*
X156300000Y-105800000D01*
X156300000Y-105800000D02*
X155155000Y-104655000D01*
X155155000Y-104655000D02*
X155155000Y-102740000D01*
D30*
%TO.N,GND*%
X138500000Y-81692500D02*
X138500000Y-81400000D01*
D28*
X182675000Y-95100000D02*
X182675000Y-97925000D01*
X165100000Y-97500000D02*
X165200000Y-97500000D01*
X133200000Y-95625000D02*
X133200000Y-97100000D01*
X165200000Y-97500000D02*
X166300000Y-96400000D01*
X149550000Y-96100000D02*
X148800000Y-96100000D01*
X133200000Y-97100000D02*
X133500000Y-97400000D01*
X178000000Y-91600000D02*
X178633333Y-90966667D01*
X182675000Y-114725000D02*
X182675000Y-117566667D01*
X182675000Y-111966667D02*
X182675000Y-114725000D01*
X161505000Y-102740000D02*
X162760000Y-102740000D01*
X178433333Y-116266667D02*
X177800000Y-116900000D01*
X162760000Y-102740000D02*
X162800000Y-102700000D01*
X131300000Y-103500000D02*
X130400000Y-103500000D01*
X148800000Y-98900000D02*
X148300000Y-98400000D01*
X178500000Y-99400000D02*
X178000000Y-99900000D01*
X178000000Y-99900000D02*
X178000000Y-100500000D01*
X178800000Y-99400000D02*
X178500000Y-99400000D01*
X178800000Y-90966667D02*
X178633333Y-90966667D01*
X148800000Y-96100000D02*
X148300000Y-95600000D01*
D30*
X138500000Y-81400000D02*
X136900000Y-79800000D01*
D28*
X149550000Y-98900000D02*
X148800000Y-98900000D01*
X178800000Y-116266667D02*
X178433333Y-116266667D01*
X177900000Y-108400000D02*
X177900000Y-109000000D01*
X182675000Y-106225000D02*
X182675000Y-109133333D01*
X182675000Y-89425000D02*
X182675000Y-92266667D01*
X177800000Y-116900000D02*
X177800000Y-117400000D01*
X130400000Y-103500000D02*
X130000000Y-103900000D01*
X177900000Y-108400000D02*
X178466667Y-107833333D01*
X182675000Y-103533333D02*
X182675000Y-106225000D01*
X182675000Y-97925000D02*
X182675000Y-100700000D01*
X178800000Y-107833333D02*
X178466667Y-107833333D01*
D30*
X138500000Y-81692500D02*
X136292500Y-81692500D01*
D28*
X182675000Y-86666667D02*
X182675000Y-89425000D01*
D30*
X136292500Y-81692500D02*
X135700000Y-81100000D01*
D28*
X178000000Y-91600000D02*
X178000000Y-92100000D01*
D30*
X136900000Y-79800000D02*
X135750000Y-79800000D01*
D31*
%TO.N,+3.3V*%
X143300000Y-123000000D02*
X142400000Y-122100000D01*
X130590000Y-111510000D02*
X128300000Y-113800000D01*
D32*
X178800000Y-106833333D02*
X180633333Y-106833333D01*
D31*
X142400000Y-118600000D02*
X141625000Y-117825000D01*
D32*
X133200000Y-100575000D02*
X133200000Y-103500000D01*
X127600000Y-94400000D02*
X130000000Y-92000000D01*
D28*
X180766667Y-115266667D02*
X180800000Y-115300000D01*
D32*
X178800000Y-98400000D02*
X180800000Y-98400000D01*
D31*
X156400000Y-120365000D02*
X156400000Y-122200000D01*
D32*
X128600000Y-98500000D02*
X127600000Y-99500000D01*
X133200000Y-99100000D02*
X132600000Y-98500000D01*
D31*
X180800000Y-98400000D02*
X180800000Y-107000000D01*
D32*
X133200000Y-100575000D02*
X133200000Y-99100000D01*
D31*
X155600000Y-123000000D02*
X157400000Y-123000000D01*
X130590000Y-110230000D02*
X130590000Y-111510000D01*
X180800000Y-90500000D02*
X180800000Y-98400000D01*
D32*
X151450000Y-98900000D02*
X152400000Y-98900000D01*
D31*
X180800000Y-115300000D02*
X180800000Y-116700000D01*
D32*
X127600000Y-99500000D02*
X127600000Y-94400000D01*
D31*
X132170000Y-117825000D02*
X139790000Y-117825000D01*
X180800000Y-116700000D02*
X174500000Y-123000000D01*
D32*
X178800000Y-115266667D02*
X180766667Y-115266667D01*
X147600000Y-100200000D02*
X150900000Y-100200000D01*
X180266667Y-89966667D02*
X180800000Y-90500000D01*
D31*
X155600000Y-123000000D02*
X143300000Y-123000000D01*
D32*
X152400000Y-98900000D02*
X153885000Y-100385000D01*
X127600000Y-107240000D02*
X130590000Y-110230000D01*
X127600000Y-99500000D02*
X127600000Y-107240000D01*
X132600000Y-98500000D02*
X128600000Y-98500000D01*
D31*
X141625000Y-117825000D02*
X139790000Y-117825000D01*
X180800000Y-107000000D02*
X180800000Y-115300000D01*
X129925000Y-117825000D02*
X132170000Y-117825000D01*
X157400000Y-123000000D02*
X156600000Y-122200000D01*
X174500000Y-123000000D02*
X157400000Y-123000000D01*
X142400000Y-122100000D02*
X142400000Y-118600000D01*
D32*
X151450000Y-99650000D02*
X151450000Y-98900000D01*
X150900000Y-100200000D02*
X151450000Y-99650000D01*
D31*
X128300000Y-116200000D02*
X129925000Y-117825000D01*
X128300000Y-113800000D02*
X128300000Y-116200000D01*
D32*
X130000000Y-92000000D02*
X139400000Y-92000000D01*
D28*
X180633333Y-106833333D02*
X180800000Y-107000000D01*
D32*
X153885000Y-100385000D02*
X153885000Y-102740000D01*
X139400000Y-92000000D02*
X147600000Y-100200000D01*
D31*
X156400000Y-122200000D02*
X155600000Y-123000000D01*
D32*
X178800000Y-89966667D02*
X180266667Y-89966667D01*
D31*
X156600000Y-122200000D02*
X156400000Y-122200000D01*
D32*
%TO.N,VDD*%
X153600000Y-96100000D02*
X153900000Y-96400000D01*
X143100000Y-103800000D02*
X143100000Y-104000000D01*
D30*
X151450000Y-96100000D02*
X151450000Y-97150000D01*
X143100000Y-100200000D02*
X143100000Y-103800000D01*
D31*
X144720000Y-117830000D02*
X156395000Y-117830000D01*
D30*
X144100000Y-99200000D02*
X144800000Y-99200000D01*
X166800000Y-107600000D02*
X168090000Y-108890000D01*
D32*
X151450000Y-96100000D02*
X153600000Y-96100000D01*
D28*
X144812500Y-101400000D02*
X144800000Y-101387500D01*
X151400000Y-101400000D02*
X144812500Y-101400000D01*
X156395000Y-117830000D02*
X156400000Y-117825000D01*
D32*
X144800000Y-99200000D02*
X144800000Y-101387500D01*
D30*
X151100000Y-97500000D02*
X146500000Y-97500000D01*
D32*
X153900000Y-96400000D02*
X153900000Y-97775000D01*
D28*
X168090000Y-117825000D02*
X168100000Y-117835000D01*
D31*
X156400000Y-117825000D02*
X168090000Y-117825000D01*
D30*
X144100000Y-99200000D02*
X143100000Y-100200000D01*
X168090000Y-108890000D02*
X168090000Y-117825000D01*
D28*
X153900000Y-97775000D02*
X153885000Y-97790000D01*
D30*
X151450000Y-97150000D02*
X151100000Y-97500000D01*
D28*
%TO.N,/NEOPIXEL*%
X175000000Y-108600000D02*
X175000000Y-89600000D01*
X175600000Y-86000000D02*
X175596000Y-85996000D01*
X175596000Y-85996000D02*
X175596000Y-77500000D01*
%TO.N,Net-(J3-Pad1)*%
X159100000Y-98900000D02*
X159100000Y-99375500D01*
X158965000Y-97790000D02*
X158965000Y-98765000D01*
X158965000Y-98765000D02*
X159100000Y-98900000D01*
X145900000Y-102300000D02*
X145712500Y-102300000D01*
X145712500Y-102300000D02*
X144800000Y-103212500D01*
X159100000Y-99375500D02*
X159324500Y-99600000D01*
%TO.N,Net-(J3-Pad4)*%
X147000000Y-103212500D02*
X147187500Y-103212500D01*
X157695000Y-99970402D02*
X157862299Y-100137701D01*
X157695000Y-97790000D02*
X157695000Y-99970402D01*
X147187500Y-103212500D02*
X148100000Y-102300000D01*
%TO.N,Net-(J3-Pad7)*%
X156425000Y-97790000D02*
X156425000Y-100825000D01*
X149503053Y-103212500D02*
X150403053Y-102312500D01*
X156425000Y-100825000D02*
X156600000Y-101000000D01*
X156600000Y-101000000D02*
X156524500Y-101000000D01*
X149200000Y-103212500D02*
X149503053Y-103212500D01*
%TO.N,Net-(J3-Pad10)*%
X155155000Y-100945000D02*
X155000000Y-101100000D01*
X152700000Y-102900000D02*
X152300000Y-103300000D01*
X151475000Y-103300000D02*
X151400000Y-103225000D01*
X152300000Y-103300000D02*
X151475000Y-103300000D01*
X155155000Y-97790000D02*
X155155000Y-100945000D01*
%TO.N,Net-(J7-Pad1)*%
X131910000Y-109100000D02*
X131900000Y-109100000D01*
X131955000Y-109145000D02*
X131910000Y-109100000D01*
X132170000Y-115285000D02*
X131955000Y-115070000D01*
X131930000Y-101170000D02*
X131930000Y-100575000D01*
X128900000Y-106100000D02*
X128900000Y-103100000D01*
X128900000Y-103100000D02*
X129800000Y-102200000D01*
X131900000Y-109100000D02*
X128900000Y-106100000D01*
X129800000Y-102200000D02*
X130900000Y-102200000D01*
X130900000Y-102200000D02*
X131930000Y-101170000D01*
X131955000Y-115070000D02*
X131955000Y-109145000D01*
%TO.N,Net-(J7-Pad4)*%
X135500000Y-112600000D02*
X134710000Y-113390000D01*
X139400000Y-109000000D02*
X139400000Y-111500000D01*
X138300000Y-112600000D02*
X135500000Y-112600000D01*
X134710000Y-113390000D02*
X134710000Y-115285000D01*
X139400000Y-111500000D02*
X138300000Y-112600000D01*
X134470000Y-100575000D02*
X134470000Y-104070000D01*
X134470000Y-104070000D02*
X139400000Y-109000000D01*
%TO.N,Net-(R5-Pad2)*%
X144427000Y-74402000D02*
X144400000Y-74375000D01*
X147110000Y-74402000D02*
X144427000Y-74402000D01*
%TO.N,/LS_OE*%
X162985000Y-97790000D02*
X163275000Y-97500000D01*
X161505000Y-97790000D02*
X162985000Y-97790000D01*
%TO.N,/A0*%
X129390000Y-100575000D02*
X130660000Y-100575000D01*
%TO.N,/A1*%
X135740000Y-100575000D02*
X137010000Y-100575000D01*
X135740000Y-103840000D02*
X135740000Y-100575000D01*
X140750000Y-108850000D02*
X135740000Y-103840000D01*
X140750000Y-110230000D02*
X140750000Y-108850000D01*
%TO.N,/A2*%
X143290000Y-110230000D02*
X143290000Y-108090000D01*
X143290000Y-108090000D02*
X139100000Y-103900000D01*
X139100000Y-103900000D02*
X139100000Y-97715000D01*
X135740000Y-95625000D02*
X137010000Y-95625000D01*
X139100000Y-97715000D02*
X137010000Y-95625000D01*
%TO.N,/A3*%
X130660000Y-94340000D02*
X132100000Y-92900000D01*
X130660000Y-95625000D02*
X130660000Y-94340000D01*
X140800000Y-95000000D02*
X140800000Y-102900000D01*
X145830000Y-107930000D02*
X145830000Y-110230000D01*
X140800000Y-102900000D02*
X145830000Y-107930000D01*
X132100000Y-92900000D02*
X138700000Y-92900000D01*
X129390000Y-95625000D02*
X130660000Y-95625000D01*
X138700000Y-92900000D02*
X140800000Y-95000000D01*
%TO.N,/SCL_2*%
X155100000Y-107800000D02*
X160600000Y-107800000D01*
X177100000Y-96300000D02*
X177300000Y-96500000D01*
X171400000Y-97000000D02*
X171400000Y-96300000D01*
X177300000Y-96500000D02*
X178700000Y-96500000D01*
X160600000Y-107800000D02*
X171400000Y-97000000D01*
X178700000Y-96500000D02*
X178800000Y-96400000D01*
%TO.N,/SCL_1*%
X164700000Y-104900000D02*
X165800000Y-104900000D01*
X177033333Y-104833333D02*
X177000000Y-104800000D01*
X161070000Y-110230000D02*
X161070000Y-108530000D01*
X178800000Y-104833333D02*
X177033333Y-104833333D01*
X161100000Y-108500000D02*
X164700000Y-104900000D01*
X161070000Y-108530000D02*
X161100000Y-108500000D01*
%TO.N,/SDA_1*%
X178766170Y-105799503D02*
X178800000Y-105833333D01*
X165200000Y-105700000D02*
X166500000Y-105700000D01*
X177000000Y-105799503D02*
X178766170Y-105799503D01*
X163610000Y-107290000D02*
X165200000Y-105700000D01*
X163610000Y-110230000D02*
X163610000Y-107290000D01*
%TO.N,/SCL*%
X176566667Y-113266667D02*
X173200000Y-109900000D01*
X173200000Y-109900000D02*
X173200000Y-96100000D01*
X173200000Y-96100000D02*
X171000000Y-93900000D01*
X163610000Y-92610000D02*
X163610000Y-89910000D01*
X171000000Y-93900000D02*
X164900000Y-93900000D01*
X178800000Y-113266667D02*
X176566667Y-113266667D01*
X164900000Y-93900000D02*
X163610000Y-92610000D01*
%TO.N,/SDA_2*%
X168900000Y-95100000D02*
X163200000Y-95100000D01*
X170100000Y-96300000D02*
X168900000Y-95100000D01*
X163200000Y-95100000D02*
X161070000Y-92970000D01*
X178800000Y-97400000D02*
X177100000Y-97400000D01*
X161070000Y-92970000D02*
X161070000Y-89910000D01*
%TO.N,/DIO1*%
X158600000Y-99071751D02*
X158600000Y-101458249D01*
X157900000Y-104400000D02*
X156800000Y-104400000D01*
X156800000Y-104400000D02*
X156425000Y-104025000D01*
X158340000Y-101718249D02*
X158340000Y-103960000D01*
X158600000Y-101458249D02*
X158340000Y-101718249D01*
X158340000Y-103960000D02*
X157900000Y-104400000D01*
X156425000Y-104025000D02*
X156425000Y-102740000D01*
X158340000Y-96140000D02*
X158340000Y-98811751D01*
X155990000Y-89910000D02*
X155990000Y-93790000D01*
X158340000Y-98811751D02*
X158600000Y-99071751D01*
X155990000Y-93790000D02*
X158340000Y-96140000D01*
%TO.N,/DIO2*%
X157050000Y-96050000D02*
X157050000Y-100350000D01*
X157050000Y-100350000D02*
X157695000Y-100995000D01*
X157695000Y-100995000D02*
X157695000Y-102740000D01*
X153450000Y-92450000D02*
X157050000Y-96050000D01*
X153450000Y-89910000D02*
X153450000Y-92450000D01*
%TO.N,/SCL_3*%
X146900000Y-87900000D02*
X145830000Y-88970000D01*
X178733333Y-87900000D02*
X146900000Y-87900000D01*
X178800000Y-87966667D02*
X178733333Y-87900000D01*
X145830000Y-88970000D02*
X145830000Y-89910000D01*
%TD*%
%TA.AperFunction,Conductor*%
%TO.N,+12V*%
G36*
X137346536Y-72728502D02*
G01*
X137393029Y-72782158D01*
X137403133Y-72852432D01*
X137373639Y-72917012D01*
X137318291Y-72954024D01*
X137183216Y-72999088D01*
X137170038Y-73005261D01*
X137032193Y-73090563D01*
X137020792Y-73099599D01*
X136906261Y-73214329D01*
X136897249Y-73225740D01*
X136812184Y-73363743D01*
X136806037Y-73376924D01*
X136754862Y-73531210D01*
X136751995Y-73544586D01*
X136742328Y-73638938D01*
X136742000Y-73645355D01*
X136742000Y-74920385D01*
X136746475Y-74935624D01*
X136747865Y-74936829D01*
X136755548Y-74938500D01*
X140239884Y-74938500D01*
X140255123Y-74934025D01*
X140256328Y-74932635D01*
X140257999Y-74924952D01*
X140257999Y-74687900D01*
X143191500Y-74687900D01*
X143202474Y-74793666D01*
X143258450Y-74961446D01*
X143351522Y-75111848D01*
X143356704Y-75117021D01*
X143438463Y-75198638D01*
X143472542Y-75260921D01*
X143467539Y-75331741D01*
X143438618Y-75376829D01*
X143356261Y-75459329D01*
X143347249Y-75470740D01*
X143262184Y-75608743D01*
X143256037Y-75621924D01*
X143204862Y-75776210D01*
X143201995Y-75789586D01*
X143192328Y-75883938D01*
X143192000Y-75890355D01*
X143192000Y-75927885D01*
X143196475Y-75943124D01*
X143197865Y-75944329D01*
X143205548Y-75946000D01*
X145589884Y-75946000D01*
X145605123Y-75941525D01*
X145606328Y-75940135D01*
X145607999Y-75932452D01*
X145607999Y-75890405D01*
X145607662Y-75883886D01*
X145597743Y-75788294D01*
X145594851Y-75774900D01*
X145543412Y-75620716D01*
X145537239Y-75607538D01*
X145451937Y-75469693D01*
X145442901Y-75458292D01*
X145361538Y-75377070D01*
X145327459Y-75314787D01*
X145332462Y-75243967D01*
X145361383Y-75198880D01*
X145444133Y-75115985D01*
X145444137Y-75115980D01*
X145449305Y-75110803D01*
X145456311Y-75099438D01*
X145458810Y-75095384D01*
X145511582Y-75047891D01*
X145566070Y-75035500D01*
X145834274Y-75035500D01*
X145902395Y-75055502D01*
X145941707Y-75095665D01*
X146009987Y-75207088D01*
X146156250Y-75375938D01*
X146328126Y-75518632D01*
X146401955Y-75561774D01*
X146450679Y-75613412D01*
X146463750Y-75683195D01*
X146437019Y-75748967D01*
X146396562Y-75782327D01*
X146388460Y-75786544D01*
X146379734Y-75792039D01*
X146359677Y-75807099D01*
X146351223Y-75818427D01*
X146357968Y-75830758D01*
X147097188Y-76569978D01*
X147111132Y-76577592D01*
X147112965Y-76577461D01*
X147119580Y-76573210D01*
X147863389Y-75829401D01*
X147870410Y-75816544D01*
X147863611Y-75807213D01*
X147859559Y-75804521D01*
X147822602Y-75784120D01*
X147772631Y-75733687D01*
X147757859Y-75664245D01*
X147782975Y-75597839D01*
X147810327Y-75571232D01*
X147833797Y-75554491D01*
X147989860Y-75443173D01*
X148148096Y-75285489D01*
X148177933Y-75243967D01*
X148275435Y-75108277D01*
X148278453Y-75104077D01*
X148282611Y-75095665D01*
X148375136Y-74908453D01*
X148375137Y-74908451D01*
X148377430Y-74903811D01*
X148442370Y-74690069D01*
X148471529Y-74468590D01*
X148473156Y-74402000D01*
X148454852Y-74179361D01*
X148400431Y-73962702D01*
X148311354Y-73757840D01*
X148271906Y-73696862D01*
X148192822Y-73574617D01*
X148192820Y-73574614D01*
X148190014Y-73570277D01*
X148039670Y-73405051D01*
X148035619Y-73401852D01*
X148035615Y-73401848D01*
X147868414Y-73269800D01*
X147868410Y-73269798D01*
X147864359Y-73266598D01*
X147668789Y-73158638D01*
X147663920Y-73156914D01*
X147663916Y-73156912D01*
X147463087Y-73085795D01*
X147463083Y-73085794D01*
X147458212Y-73084069D01*
X147453119Y-73083162D01*
X147453116Y-73083161D01*
X147243373Y-73045800D01*
X147243367Y-73045799D01*
X147238284Y-73044894D01*
X147164452Y-73043992D01*
X147020081Y-73042228D01*
X147020079Y-73042228D01*
X147014911Y-73042165D01*
X146794091Y-73075955D01*
X146581756Y-73145357D01*
X146383607Y-73248507D01*
X146379474Y-73251610D01*
X146379471Y-73251612D01*
X146225582Y-73367155D01*
X146204965Y-73382635D01*
X146201393Y-73386373D01*
X146074457Y-73519204D01*
X146050629Y-73544138D01*
X146047715Y-73548410D01*
X146047714Y-73548411D01*
X145935095Y-73713504D01*
X145880184Y-73758507D01*
X145831007Y-73768500D01*
X145599342Y-73768500D01*
X145531221Y-73748498D01*
X145492198Y-73708803D01*
X145452332Y-73644380D01*
X145448478Y-73638152D01*
X145323303Y-73513195D01*
X145317072Y-73509354D01*
X145178968Y-73424225D01*
X145178966Y-73424224D01*
X145172738Y-73420385D01*
X145092995Y-73393936D01*
X145011389Y-73366868D01*
X145011387Y-73366868D01*
X145004861Y-73364703D01*
X144998025Y-73364003D01*
X144998022Y-73364002D01*
X144954969Y-73359591D01*
X144900400Y-73354000D01*
X143899600Y-73354000D01*
X143896354Y-73354337D01*
X143896350Y-73354337D01*
X143800692Y-73364262D01*
X143800688Y-73364263D01*
X143793834Y-73364974D01*
X143787298Y-73367155D01*
X143787296Y-73367155D01*
X143683309Y-73401848D01*
X143626054Y-73420950D01*
X143475652Y-73514022D01*
X143350695Y-73639197D01*
X143346855Y-73645427D01*
X143346854Y-73645428D01*
X143283321Y-73748498D01*
X143257885Y-73789762D01*
X143202203Y-73957639D01*
X143191500Y-74062100D01*
X143191500Y-74687900D01*
X140257999Y-74687900D01*
X140257999Y-73645405D01*
X140257662Y-73638886D01*
X140247743Y-73543294D01*
X140244851Y-73529900D01*
X140193412Y-73375716D01*
X140187239Y-73362538D01*
X140101937Y-73224693D01*
X140092901Y-73213292D01*
X139978171Y-73098761D01*
X139966760Y-73089749D01*
X139828757Y-73004684D01*
X139815574Y-72998536D01*
X139681583Y-72954093D01*
X139623223Y-72913662D01*
X139595986Y-72848098D01*
X139608520Y-72778216D01*
X139656844Y-72726205D01*
X139721250Y-72708500D01*
X149174000Y-72708500D01*
X149242121Y-72728502D01*
X149288614Y-72782158D01*
X149300000Y-72834500D01*
X149300000Y-79474000D01*
X149279998Y-79542121D01*
X149226342Y-79588614D01*
X149174000Y-79600000D01*
X148598799Y-79600000D01*
X148530678Y-79579998D01*
X148484185Y-79526342D01*
X148473854Y-79481943D01*
X148473156Y-79482000D01*
X148457920Y-79296677D01*
X148454852Y-79259361D01*
X148400431Y-79042702D01*
X148311354Y-78837840D01*
X148190014Y-78650277D01*
X148039670Y-78485051D01*
X148035619Y-78481852D01*
X148035615Y-78481848D01*
X147868414Y-78349800D01*
X147868410Y-78349798D01*
X147864359Y-78346598D01*
X147822569Y-78323529D01*
X147772598Y-78273097D01*
X147757826Y-78203654D01*
X147782942Y-78137248D01*
X147810293Y-78110642D01*
X147859247Y-78075723D01*
X147867648Y-78065023D01*
X147860660Y-78051870D01*
X147122812Y-77314022D01*
X147108868Y-77306408D01*
X147107035Y-77306539D01*
X147100420Y-77310790D01*
X146356737Y-78054473D01*
X146349977Y-78066853D01*
X146355258Y-78073907D01*
X146401969Y-78101203D01*
X146450693Y-78152841D01*
X146463764Y-78222624D01*
X146437033Y-78288396D01*
X146396584Y-78321752D01*
X146383607Y-78328507D01*
X146379474Y-78331610D01*
X146379471Y-78331612D01*
X146355247Y-78349800D01*
X146204965Y-78462635D01*
X146050629Y-78624138D01*
X145924743Y-78808680D01*
X145909003Y-78842590D01*
X145867869Y-78931206D01*
X145830688Y-79011305D01*
X145770989Y-79226570D01*
X145747251Y-79448695D01*
X145747548Y-79453847D01*
X145747548Y-79453850D01*
X145748292Y-79466746D01*
X145732245Y-79535905D01*
X145681355Y-79585410D01*
X145622501Y-79600000D01*
X142800000Y-79600000D01*
X142800000Y-84874000D01*
X142779998Y-84942121D01*
X142726342Y-84988614D01*
X142674000Y-85000000D01*
X133276000Y-85000000D01*
X133207879Y-84979998D01*
X133161386Y-84926342D01*
X133150000Y-84874000D01*
X133150000Y-81100000D01*
X134786496Y-81100000D01*
X134806458Y-81289928D01*
X134865473Y-81471556D01*
X134960960Y-81636944D01*
X135088747Y-81778866D01*
X135243248Y-81891118D01*
X135249276Y-81893802D01*
X135249278Y-81893803D01*
X135411681Y-81966109D01*
X135417712Y-81968794D01*
X135424167Y-81970166D01*
X135424176Y-81970169D01*
X135480772Y-81982199D01*
X135543669Y-82016350D01*
X135708730Y-82181411D01*
X135721116Y-82195823D01*
X135729649Y-82207418D01*
X135729654Y-82207423D01*
X135733992Y-82213318D01*
X135739570Y-82218057D01*
X135739573Y-82218060D01*
X135774268Y-82247535D01*
X135781784Y-82254465D01*
X135787480Y-82260161D01*
X135790341Y-82262424D01*
X135790346Y-82262429D01*
X135809766Y-82277793D01*
X135813167Y-82280582D01*
X135868785Y-82327833D01*
X135875305Y-82331162D01*
X135880352Y-82334528D01*
X135885476Y-82337693D01*
X135891217Y-82342235D01*
X135897848Y-82345334D01*
X135897851Y-82345336D01*
X135957330Y-82373134D01*
X135961276Y-82375062D01*
X136026308Y-82408269D01*
X136033414Y-82410008D01*
X136039064Y-82412109D01*
X136044821Y-82414024D01*
X136051450Y-82417122D01*
X136122935Y-82431991D01*
X136127201Y-82432957D01*
X136198110Y-82450308D01*
X136203712Y-82450656D01*
X136203715Y-82450656D01*
X136209264Y-82451000D01*
X136209262Y-82451035D01*
X136213234Y-82451275D01*
X136217455Y-82451652D01*
X136224615Y-82453141D01*
X136302042Y-82451046D01*
X136305450Y-82451000D01*
X136615500Y-82451000D01*
X136683621Y-82471002D01*
X136730114Y-82524658D01*
X136741500Y-82577000D01*
X136741500Y-83242900D01*
X136741837Y-83246146D01*
X136741837Y-83246150D01*
X136746509Y-83291174D01*
X136752474Y-83348666D01*
X136808450Y-83516446D01*
X136901522Y-83666848D01*
X137026697Y-83791805D01*
X137032927Y-83795645D01*
X137032928Y-83795646D01*
X137170090Y-83880194D01*
X137177262Y-83884615D01*
X137257005Y-83911064D01*
X137338611Y-83938132D01*
X137338613Y-83938132D01*
X137345139Y-83940297D01*
X137351975Y-83940997D01*
X137351978Y-83940998D01*
X137395031Y-83945409D01*
X137449600Y-83951000D01*
X139550400Y-83951000D01*
X139553646Y-83950663D01*
X139553650Y-83950663D01*
X139649308Y-83940738D01*
X139649312Y-83940737D01*
X139656166Y-83940026D01*
X139662702Y-83937845D01*
X139662704Y-83937845D01*
X139794806Y-83893772D01*
X139823946Y-83884050D01*
X139974348Y-83790978D01*
X140099305Y-83665803D01*
X140192115Y-83515238D01*
X140218564Y-83435495D01*
X140245632Y-83353889D01*
X140245632Y-83353887D01*
X140247797Y-83347361D01*
X140258500Y-83242900D01*
X140258500Y-80142100D01*
X140247526Y-80036334D01*
X140191550Y-79868554D01*
X140098478Y-79718152D01*
X139973303Y-79593195D01*
X139967072Y-79589354D01*
X139828968Y-79504225D01*
X139828966Y-79504224D01*
X139822738Y-79500385D01*
X139666897Y-79448695D01*
X139661389Y-79446868D01*
X139661387Y-79446868D01*
X139654861Y-79444703D01*
X139648025Y-79444003D01*
X139648022Y-79444002D01*
X139604969Y-79439591D01*
X139550400Y-79434000D01*
X137658871Y-79434000D01*
X137590750Y-79413998D01*
X137569776Y-79397095D01*
X137483770Y-79311089D01*
X137471384Y-79296677D01*
X137462851Y-79285082D01*
X137462846Y-79285077D01*
X137458508Y-79279182D01*
X137452930Y-79274443D01*
X137452927Y-79274440D01*
X137418232Y-79244965D01*
X137410716Y-79238035D01*
X137405021Y-79232340D01*
X137391431Y-79221588D01*
X137382749Y-79214719D01*
X137379345Y-79211928D01*
X137329297Y-79169409D01*
X137329295Y-79169408D01*
X137323715Y-79164667D01*
X137317199Y-79161339D01*
X137312150Y-79157972D01*
X137307021Y-79154805D01*
X137301284Y-79150266D01*
X137235125Y-79119345D01*
X137231225Y-79117439D01*
X137230857Y-79117251D01*
X137166192Y-79084231D01*
X137159084Y-79082492D01*
X137153441Y-79080393D01*
X137147678Y-79078476D01*
X137141050Y-79075378D01*
X137069583Y-79060513D01*
X137065299Y-79059543D01*
X136994390Y-79042192D01*
X136988788Y-79041844D01*
X136988785Y-79041844D01*
X136983236Y-79041500D01*
X136983238Y-79041464D01*
X136979245Y-79041225D01*
X136975053Y-79040851D01*
X136967885Y-79039360D01*
X136901675Y-79041151D01*
X136890479Y-79041454D01*
X136887072Y-79041500D01*
X136292587Y-79041500D01*
X136218528Y-79017437D01*
X136212098Y-79012765D01*
X136212091Y-79012761D01*
X136206752Y-79008882D01*
X136200724Y-79006198D01*
X136200722Y-79006197D01*
X136038319Y-78933891D01*
X136038318Y-78933891D01*
X136032288Y-78931206D01*
X135938888Y-78911353D01*
X135851944Y-78892872D01*
X135851939Y-78892872D01*
X135845487Y-78891500D01*
X135654513Y-78891500D01*
X135648061Y-78892872D01*
X135648056Y-78892872D01*
X135561112Y-78911353D01*
X135467712Y-78931206D01*
X135461682Y-78933891D01*
X135461681Y-78933891D01*
X135299278Y-79006197D01*
X135299276Y-79006198D01*
X135293248Y-79008882D01*
X135287907Y-79012762D01*
X135287906Y-79012763D01*
X135283042Y-79016297D01*
X135138747Y-79121134D01*
X135134326Y-79126044D01*
X135134325Y-79126045D01*
X135030229Y-79241656D01*
X135010960Y-79263056D01*
X134915473Y-79428444D01*
X134856458Y-79610072D01*
X134836496Y-79800000D01*
X134856458Y-79989928D01*
X134915473Y-80171556D01*
X135010960Y-80336944D01*
X135015380Y-80341853D01*
X135019259Y-80347192D01*
X135017052Y-80348795D01*
X135042554Y-80401889D01*
X135033813Y-80472345D01*
X135011843Y-80506544D01*
X134960960Y-80563056D01*
X134865473Y-80728444D01*
X134806458Y-80910072D01*
X134786496Y-81100000D01*
X133150000Y-81100000D01*
X133150000Y-76739595D01*
X136742001Y-76739595D01*
X136742338Y-76746114D01*
X136752257Y-76841706D01*
X136755149Y-76855100D01*
X136806588Y-77009284D01*
X136812761Y-77022462D01*
X136898063Y-77160307D01*
X136907099Y-77171708D01*
X137021829Y-77286239D01*
X137033240Y-77295251D01*
X137171243Y-77380316D01*
X137184424Y-77386463D01*
X137338710Y-77437638D01*
X137352086Y-77440505D01*
X137446438Y-77450172D01*
X137452854Y-77450500D01*
X138227885Y-77450500D01*
X138243124Y-77446025D01*
X138244329Y-77444635D01*
X138246000Y-77436952D01*
X138246000Y-77432384D01*
X138754000Y-77432384D01*
X138758475Y-77447623D01*
X138759865Y-77448828D01*
X138767548Y-77450499D01*
X139547095Y-77450499D01*
X139553614Y-77450162D01*
X139649206Y-77440243D01*
X139662600Y-77437351D01*
X139816784Y-77385912D01*
X139829962Y-77379739D01*
X139967807Y-77294437D01*
X139979208Y-77285401D01*
X140093739Y-77170671D01*
X140102751Y-77159260D01*
X140187816Y-77021257D01*
X140193963Y-77008076D01*
X140245138Y-76853790D01*
X140248005Y-76840414D01*
X140257672Y-76746062D01*
X140258000Y-76739646D01*
X140258000Y-76509595D01*
X143192001Y-76509595D01*
X143192338Y-76516114D01*
X143202257Y-76611706D01*
X143205149Y-76625100D01*
X143256588Y-76779284D01*
X143262761Y-76792462D01*
X143348063Y-76930307D01*
X143357099Y-76941708D01*
X143471829Y-77056239D01*
X143483240Y-77065251D01*
X143621243Y-77150316D01*
X143634424Y-77156463D01*
X143788710Y-77207638D01*
X143802086Y-77210505D01*
X143896438Y-77220172D01*
X143902854Y-77220500D01*
X144127885Y-77220500D01*
X144143124Y-77216025D01*
X144144329Y-77214635D01*
X144146000Y-77206952D01*
X144146000Y-77202384D01*
X144654000Y-77202384D01*
X144658475Y-77217623D01*
X144659865Y-77218828D01*
X144667548Y-77220499D01*
X144897095Y-77220499D01*
X144903614Y-77220162D01*
X144999206Y-77210243D01*
X145012600Y-77207351D01*
X145166784Y-77155912D01*
X145179962Y-77149739D01*
X145317807Y-77064437D01*
X145329208Y-77055401D01*
X145443739Y-76940671D01*
X145452753Y-76929257D01*
X145515369Y-76827674D01*
X145568140Y-76780180D01*
X145638212Y-76768756D01*
X145703336Y-76797030D01*
X145742836Y-76856023D01*
X145747045Y-76898360D01*
X145748428Y-76898394D01*
X145748050Y-76913863D01*
X145760309Y-77126477D01*
X145761745Y-77136697D01*
X145808565Y-77344446D01*
X145811645Y-77354275D01*
X145891770Y-77551603D01*
X145896413Y-77560794D01*
X145976460Y-77691420D01*
X145986916Y-77700880D01*
X145995694Y-77697096D01*
X146737978Y-76954812D01*
X146744356Y-76943132D01*
X147474408Y-76943132D01*
X147474539Y-76944965D01*
X147478790Y-76951580D01*
X148220474Y-77693264D01*
X148232484Y-77699823D01*
X148244223Y-77690855D01*
X148275004Y-77648019D01*
X148280315Y-77639180D01*
X148374670Y-77448267D01*
X148378469Y-77438672D01*
X148440376Y-77234915D01*
X148442555Y-77224834D01*
X148470590Y-77011887D01*
X148471109Y-77005212D01*
X148472572Y-76945364D01*
X148472378Y-76938646D01*
X148454781Y-76724604D01*
X148453096Y-76714424D01*
X148401214Y-76507875D01*
X148397894Y-76498124D01*
X148312972Y-76302814D01*
X148308105Y-76293739D01*
X148243063Y-76193197D01*
X148232377Y-76183995D01*
X148222812Y-76188398D01*
X147482022Y-76929188D01*
X147474408Y-76943132D01*
X146744356Y-76943132D01*
X146745592Y-76940868D01*
X146745461Y-76939035D01*
X146741210Y-76932420D01*
X145999849Y-76191059D01*
X145988313Y-76184759D01*
X145976031Y-76194382D01*
X145928089Y-76264662D01*
X145923004Y-76273613D01*
X145835253Y-76462658D01*
X145788429Y-76516025D01*
X145720186Y-76535606D01*
X145652190Y-76515183D01*
X145606030Y-76461240D01*
X145604838Y-76458013D01*
X145602135Y-76455671D01*
X145594452Y-76454000D01*
X144672115Y-76454000D01*
X144656876Y-76458475D01*
X144655671Y-76459865D01*
X144654000Y-76467548D01*
X144654000Y-77202384D01*
X144146000Y-77202384D01*
X144146000Y-76472115D01*
X144141525Y-76456876D01*
X144140135Y-76455671D01*
X144132452Y-76454000D01*
X143210116Y-76454000D01*
X143194877Y-76458475D01*
X143193672Y-76459865D01*
X143192001Y-76467548D01*
X143192001Y-76509595D01*
X140258000Y-76509595D01*
X140258000Y-75464615D01*
X140253525Y-75449376D01*
X140252135Y-75448171D01*
X140244452Y-75446500D01*
X138772115Y-75446500D01*
X138756876Y-75450975D01*
X138755671Y-75452365D01*
X138754000Y-75460048D01*
X138754000Y-77432384D01*
X138246000Y-77432384D01*
X138246000Y-75464615D01*
X138241525Y-75449376D01*
X138240135Y-75448171D01*
X138232452Y-75446500D01*
X136760116Y-75446500D01*
X136744877Y-75450975D01*
X136743672Y-75452365D01*
X136742001Y-75460048D01*
X136742001Y-76739595D01*
X133150000Y-76739595D01*
X133150000Y-72708500D01*
X137278415Y-72708500D01*
X137346536Y-72728502D01*
G37*
%TD.AperFunction*%
%TD*%
%TA.AperFunction,Conductor*%
%TO.N,+5V*%
G36*
X174092121Y-72820002D02*
G01*
X174138614Y-72873658D01*
X174150000Y-72926000D01*
X174150000Y-84674000D01*
X174129998Y-84742121D01*
X174076342Y-84788614D01*
X174024000Y-84800000D01*
X143826000Y-84800000D01*
X143757879Y-84779998D01*
X143711386Y-84726342D01*
X143700000Y-84674000D01*
X143700000Y-83586062D01*
X171374493Y-83586062D01*
X171383789Y-83598077D01*
X171434994Y-83633931D01*
X171444489Y-83639414D01*
X171641947Y-83731490D01*
X171652239Y-83735236D01*
X171862688Y-83791625D01*
X171873481Y-83793528D01*
X172090525Y-83812517D01*
X172101475Y-83812517D01*
X172318519Y-83793528D01*
X172329312Y-83791625D01*
X172539761Y-83735236D01*
X172550053Y-83731490D01*
X172747511Y-83639414D01*
X172757006Y-83633931D01*
X172809048Y-83597491D01*
X172817424Y-83587012D01*
X172810356Y-83573566D01*
X172108812Y-82872022D01*
X172094868Y-82864408D01*
X172093035Y-82864539D01*
X172086420Y-82868790D01*
X171380923Y-83574287D01*
X171374493Y-83586062D01*
X143700000Y-83586062D01*
X143700000Y-83146853D01*
X146349977Y-83146853D01*
X146355258Y-83153907D01*
X146516756Y-83248279D01*
X146526042Y-83252729D01*
X146725001Y-83328703D01*
X146734899Y-83331579D01*
X146943595Y-83374038D01*
X146953823Y-83375257D01*
X147166650Y-83383062D01*
X147176936Y-83382595D01*
X147388185Y-83355534D01*
X147398262Y-83353392D01*
X147602255Y-83292191D01*
X147611842Y-83288433D01*
X147803098Y-83194738D01*
X147811944Y-83189465D01*
X147859247Y-83155723D01*
X147867648Y-83145023D01*
X147860660Y-83131870D01*
X147122812Y-82394022D01*
X147108868Y-82386408D01*
X147107035Y-82386539D01*
X147100420Y-82390790D01*
X146356737Y-83134473D01*
X146349977Y-83146853D01*
X143700000Y-83146853D01*
X143700000Y-81993863D01*
X145748050Y-81993863D01*
X145760309Y-82206477D01*
X145761745Y-82216697D01*
X145808565Y-82424446D01*
X145811645Y-82434275D01*
X145891770Y-82631603D01*
X145896413Y-82640794D01*
X145976460Y-82771420D01*
X145986916Y-82780880D01*
X145995694Y-82777096D01*
X146737978Y-82034812D01*
X146744356Y-82023132D01*
X147474408Y-82023132D01*
X147474539Y-82024965D01*
X147478790Y-82031580D01*
X148220474Y-82773264D01*
X148232484Y-82779823D01*
X148244223Y-82770855D01*
X148275004Y-82728019D01*
X148280315Y-82719180D01*
X148374670Y-82528267D01*
X148378469Y-82518672D01*
X148382479Y-82505475D01*
X170783483Y-82505475D01*
X170802472Y-82722519D01*
X170804375Y-82733312D01*
X170860764Y-82943761D01*
X170864510Y-82954053D01*
X170956586Y-83151511D01*
X170962069Y-83161006D01*
X170998509Y-83213048D01*
X171008988Y-83221424D01*
X171022434Y-83214356D01*
X171723978Y-82512812D01*
X171730356Y-82501132D01*
X172460408Y-82501132D01*
X172460539Y-82502965D01*
X172464790Y-82509580D01*
X173170287Y-83215077D01*
X173182062Y-83221507D01*
X173194077Y-83212211D01*
X173229931Y-83161006D01*
X173235414Y-83151511D01*
X173327490Y-82954053D01*
X173331236Y-82943761D01*
X173387625Y-82733312D01*
X173389528Y-82722519D01*
X173408517Y-82505475D01*
X173408517Y-82494525D01*
X173389528Y-82277481D01*
X173387625Y-82266688D01*
X173331236Y-82056239D01*
X173327490Y-82045947D01*
X173235414Y-81848489D01*
X173229931Y-81838994D01*
X173193491Y-81786952D01*
X173183012Y-81778576D01*
X173169566Y-81785644D01*
X172468022Y-82487188D01*
X172460408Y-82501132D01*
X171730356Y-82501132D01*
X171731592Y-82498868D01*
X171731461Y-82497035D01*
X171727210Y-82490420D01*
X171021713Y-81784923D01*
X171009938Y-81778493D01*
X170997923Y-81787789D01*
X170962069Y-81838994D01*
X170956586Y-81848489D01*
X170864510Y-82045947D01*
X170860764Y-82056239D01*
X170804375Y-82266688D01*
X170802472Y-82277481D01*
X170783483Y-82494525D01*
X170783483Y-82505475D01*
X148382479Y-82505475D01*
X148440376Y-82314915D01*
X148442555Y-82304834D01*
X148470590Y-82091887D01*
X148471109Y-82085212D01*
X148472572Y-82025364D01*
X148472378Y-82018646D01*
X148454781Y-81804604D01*
X148453096Y-81794424D01*
X148401214Y-81587875D01*
X148397894Y-81578124D01*
X148326092Y-81412988D01*
X171374576Y-81412988D01*
X171381644Y-81426434D01*
X172083188Y-82127978D01*
X172097132Y-82135592D01*
X172098965Y-82135461D01*
X172105580Y-82131210D01*
X172811077Y-81425713D01*
X172817507Y-81413938D01*
X172808211Y-81401923D01*
X172757006Y-81366069D01*
X172747511Y-81360586D01*
X172550053Y-81268510D01*
X172539761Y-81264764D01*
X172329312Y-81208375D01*
X172318519Y-81206472D01*
X172101475Y-81187483D01*
X172090525Y-81187483D01*
X171873481Y-81206472D01*
X171862688Y-81208375D01*
X171652239Y-81264764D01*
X171641947Y-81268510D01*
X171444489Y-81360586D01*
X171434994Y-81366069D01*
X171382952Y-81402509D01*
X171374576Y-81412988D01*
X148326092Y-81412988D01*
X148312972Y-81382814D01*
X148308105Y-81373739D01*
X148243063Y-81273197D01*
X148232377Y-81263995D01*
X148222812Y-81268398D01*
X147482022Y-82009188D01*
X147474408Y-82023132D01*
X146744356Y-82023132D01*
X146745592Y-82020868D01*
X146745461Y-82019035D01*
X146741210Y-82012420D01*
X145999849Y-81271059D01*
X145988313Y-81264759D01*
X145976031Y-81274382D01*
X145928089Y-81344662D01*
X145923004Y-81353613D01*
X145833338Y-81546783D01*
X145829775Y-81556470D01*
X145772864Y-81761681D01*
X145770933Y-81771800D01*
X145748302Y-81983574D01*
X145748050Y-81993863D01*
X143700000Y-81993863D01*
X143700000Y-80626000D01*
X143720002Y-80557879D01*
X143773658Y-80511386D01*
X143826000Y-80500000D01*
X146163836Y-80500000D01*
X146231957Y-80520002D01*
X146244321Y-80529056D01*
X146328126Y-80598632D01*
X146374961Y-80626000D01*
X146401955Y-80641774D01*
X146450679Y-80693412D01*
X146463750Y-80763195D01*
X146437019Y-80828967D01*
X146396562Y-80862327D01*
X146388460Y-80866544D01*
X146379734Y-80872039D01*
X146359677Y-80887099D01*
X146351223Y-80898427D01*
X146357968Y-80910758D01*
X147097188Y-81649978D01*
X147111132Y-81657592D01*
X147112965Y-81657461D01*
X147119580Y-81653210D01*
X147863389Y-80909401D01*
X147870410Y-80896544D01*
X147863611Y-80887213D01*
X147859559Y-80884521D01*
X147822602Y-80864120D01*
X147772631Y-80813687D01*
X147757859Y-80744245D01*
X147782975Y-80677839D01*
X147810327Y-80651232D01*
X147989512Y-80523421D01*
X148062680Y-80500000D01*
X150200000Y-80500000D01*
X150200000Y-77500000D01*
X167282502Y-77500000D01*
X167302457Y-77728087D01*
X167361716Y-77949243D01*
X167364039Y-77954224D01*
X167364039Y-77954225D01*
X167456151Y-78151762D01*
X167456154Y-78151767D01*
X167458477Y-78156749D01*
X167531902Y-78261611D01*
X167578744Y-78328507D01*
X167589802Y-78344300D01*
X167751700Y-78506198D01*
X167756208Y-78509355D01*
X167756211Y-78509357D01*
X167834389Y-78564098D01*
X167939251Y-78637523D01*
X167944233Y-78639846D01*
X167944238Y-78639849D01*
X168141775Y-78731961D01*
X168146757Y-78734284D01*
X168152065Y-78735706D01*
X168152067Y-78735707D01*
X168362598Y-78792119D01*
X168362600Y-78792119D01*
X168367913Y-78793543D01*
X168596000Y-78813498D01*
X168824087Y-78793543D01*
X168829400Y-78792119D01*
X168829402Y-78792119D01*
X169039933Y-78735707D01*
X169039935Y-78735706D01*
X169045243Y-78734284D01*
X169050225Y-78731961D01*
X169247762Y-78639849D01*
X169247767Y-78639846D01*
X169252749Y-78637523D01*
X169357611Y-78564098D01*
X169435789Y-78509357D01*
X169435792Y-78509355D01*
X169440300Y-78506198D01*
X169602198Y-78344300D01*
X169613257Y-78328507D01*
X169660098Y-78261611D01*
X169733523Y-78156749D01*
X169735846Y-78151767D01*
X169735849Y-78151762D01*
X169827961Y-77954225D01*
X169827961Y-77954224D01*
X169830284Y-77949243D01*
X169889543Y-77728087D01*
X169909498Y-77500000D01*
X169889543Y-77271913D01*
X169858113Y-77154615D01*
X169831707Y-77056067D01*
X169831706Y-77056065D01*
X169830284Y-77050757D01*
X169827961Y-77045775D01*
X169735849Y-76848238D01*
X169735846Y-76848233D01*
X169733523Y-76843251D01*
X169646774Y-76719361D01*
X169605357Y-76660211D01*
X169605355Y-76660208D01*
X169602198Y-76655700D01*
X169440300Y-76493802D01*
X169435792Y-76490645D01*
X169435789Y-76490643D01*
X169357611Y-76435902D01*
X169252749Y-76362477D01*
X169247767Y-76360154D01*
X169247762Y-76360151D01*
X169050225Y-76268039D01*
X169050224Y-76268039D01*
X169045243Y-76265716D01*
X169039935Y-76264294D01*
X169039933Y-76264293D01*
X168829402Y-76207881D01*
X168829400Y-76207881D01*
X168824087Y-76206457D01*
X168596000Y-76186502D01*
X168367913Y-76206457D01*
X168362600Y-76207881D01*
X168362598Y-76207881D01*
X168152067Y-76264293D01*
X168152065Y-76264294D01*
X168146757Y-76265716D01*
X168141776Y-76268039D01*
X168141775Y-76268039D01*
X167944238Y-76360151D01*
X167944233Y-76360154D01*
X167939251Y-76362477D01*
X167834389Y-76435902D01*
X167756211Y-76490643D01*
X167756208Y-76490645D01*
X167751700Y-76493802D01*
X167589802Y-76655700D01*
X167586645Y-76660208D01*
X167586643Y-76660211D01*
X167545226Y-76719361D01*
X167458477Y-76843251D01*
X167456154Y-76848233D01*
X167456151Y-76848238D01*
X167364039Y-77045775D01*
X167361716Y-77050757D01*
X167360294Y-77056065D01*
X167360293Y-77056067D01*
X167333887Y-77154615D01*
X167302457Y-77271913D01*
X167282502Y-77500000D01*
X150200000Y-77500000D01*
X150200000Y-72926000D01*
X150220002Y-72857879D01*
X150273658Y-72811386D01*
X150326000Y-72800000D01*
X174024000Y-72800000D01*
X174092121Y-72820002D01*
G37*
%TD.AperFunction*%
%TD*%
%TA.AperFunction,Conductor*%
%TO.N,+5V*%
G36*
X160100000Y-86874000D02*
G01*
X160079998Y-86942121D01*
X160026342Y-86988614D01*
X159974000Y-87000000D01*
X158734000Y-87000000D01*
X158665879Y-86979998D01*
X158619386Y-86926342D01*
X158608000Y-86874000D01*
X158608000Y-86472115D01*
X158603525Y-86456876D01*
X158602135Y-86455671D01*
X158594452Y-86454000D01*
X156972000Y-86454000D01*
X156903879Y-86433998D01*
X156857386Y-86380342D01*
X156846000Y-86328000D01*
X156846000Y-85927885D01*
X157354000Y-85927885D01*
X157358475Y-85943124D01*
X157359865Y-85944329D01*
X157367548Y-85946000D01*
X158589884Y-85946000D01*
X158605123Y-85941525D01*
X158606328Y-85940135D01*
X158607999Y-85932452D01*
X158607999Y-85405331D01*
X158607629Y-85398510D01*
X158602105Y-85347648D01*
X158598479Y-85332396D01*
X158553324Y-85211946D01*
X158544786Y-85196351D01*
X158468285Y-85094276D01*
X158455724Y-85081715D01*
X158353649Y-85005214D01*
X158338054Y-84996676D01*
X158217606Y-84951522D01*
X158202351Y-84947895D01*
X158151486Y-84942369D01*
X158144672Y-84942000D01*
X157372115Y-84942000D01*
X157356876Y-84946475D01*
X157355671Y-84947865D01*
X157354000Y-84955548D01*
X157354000Y-85927885D01*
X156846000Y-85927885D01*
X156846000Y-84960116D01*
X156841525Y-84944877D01*
X156840135Y-84943672D01*
X156832452Y-84942001D01*
X156126000Y-84942001D01*
X156057879Y-84921999D01*
X156011386Y-84868343D01*
X156001775Y-84824159D01*
X156000000Y-84818115D01*
X156000000Y-84800000D01*
X160100000Y-84800000D01*
X160100000Y-86874000D01*
G37*
%TD.AperFunction*%
%TD*%
%TA.AperFunction,Conductor*%
%TO.N,+BATT*%
G36*
X128942121Y-72728502D02*
G01*
X128988614Y-72782158D01*
X129000000Y-72834500D01*
X129000000Y-74131000D01*
X128979998Y-74199121D01*
X128926342Y-74245614D01*
X128874000Y-74257000D01*
X128772115Y-74257000D01*
X128756876Y-74261475D01*
X128755671Y-74262865D01*
X128754000Y-74270548D01*
X128754000Y-76524884D01*
X128758475Y-76540123D01*
X128759865Y-76541328D01*
X128767548Y-76542999D01*
X128874000Y-76542999D01*
X128942121Y-76563001D01*
X128988614Y-76616657D01*
X129000000Y-76668999D01*
X129000000Y-83000000D01*
X121226000Y-83000000D01*
X121157879Y-82979998D01*
X121111386Y-82926342D01*
X121100000Y-82874000D01*
X121100000Y-76320118D01*
X121120002Y-76251997D01*
X121173658Y-76205504D01*
X121243932Y-76195400D01*
X121308512Y-76224894D01*
X121340008Y-76266469D01*
X121385242Y-76362598D01*
X121547630Y-76618480D01*
X121740808Y-76851992D01*
X121961729Y-77059450D01*
X122206910Y-77237584D01*
X122472483Y-77383585D01*
X122476152Y-77385038D01*
X122476157Y-77385040D01*
X122750591Y-77493696D01*
X122754261Y-77495149D01*
X123047800Y-77570516D01*
X123348470Y-77608500D01*
X123651530Y-77608500D01*
X123952200Y-77570516D01*
X124245739Y-77495149D01*
X124249409Y-77493696D01*
X124523843Y-77385040D01*
X124523848Y-77385038D01*
X124527517Y-77383585D01*
X124793090Y-77237584D01*
X125038271Y-77059450D01*
X125259192Y-76851992D01*
X125452370Y-76618480D01*
X125614758Y-76362598D01*
X125743794Y-76088381D01*
X125746625Y-76079669D01*
X127612001Y-76079669D01*
X127612371Y-76086490D01*
X127617895Y-76137352D01*
X127621521Y-76152604D01*
X127666676Y-76273054D01*
X127675214Y-76288649D01*
X127751715Y-76390724D01*
X127764276Y-76403285D01*
X127866351Y-76479786D01*
X127881946Y-76488324D01*
X128002394Y-76533478D01*
X128017649Y-76537105D01*
X128068514Y-76542631D01*
X128075328Y-76543000D01*
X128227885Y-76543000D01*
X128243124Y-76538525D01*
X128244329Y-76537135D01*
X128246000Y-76529452D01*
X128246000Y-75672115D01*
X128241525Y-75656876D01*
X128240135Y-75655671D01*
X128232452Y-75654000D01*
X127630116Y-75654000D01*
X127614877Y-75658475D01*
X127613672Y-75659865D01*
X127612001Y-75667548D01*
X127612001Y-76079669D01*
X125746625Y-76079669D01*
X125837445Y-75800154D01*
X125894233Y-75502462D01*
X125913262Y-75200000D01*
X125908725Y-75127885D01*
X127612000Y-75127885D01*
X127616475Y-75143124D01*
X127617865Y-75144329D01*
X127625548Y-75146000D01*
X128227885Y-75146000D01*
X128243124Y-75141525D01*
X128244329Y-75140135D01*
X128246000Y-75132452D01*
X128246000Y-74275116D01*
X128241525Y-74259877D01*
X128240135Y-74258672D01*
X128232452Y-74257001D01*
X128075331Y-74257001D01*
X128068510Y-74257371D01*
X128017648Y-74262895D01*
X128002396Y-74266521D01*
X127881946Y-74311676D01*
X127866351Y-74320214D01*
X127764276Y-74396715D01*
X127751715Y-74409276D01*
X127675214Y-74511351D01*
X127666676Y-74526946D01*
X127621522Y-74647394D01*
X127617895Y-74662649D01*
X127612369Y-74713514D01*
X127612000Y-74720328D01*
X127612000Y-75127885D01*
X125908725Y-75127885D01*
X125894233Y-74897538D01*
X125837445Y-74599846D01*
X125743794Y-74311619D01*
X125720867Y-74262895D01*
X125659992Y-74133530D01*
X125614758Y-74037402D01*
X125452370Y-73781520D01*
X125259192Y-73548008D01*
X125038271Y-73340550D01*
X124793090Y-73162416D01*
X124527517Y-73016415D01*
X124523848Y-73014962D01*
X124523843Y-73014960D01*
X124363945Y-72951652D01*
X124307971Y-72907977D01*
X124284495Y-72840974D01*
X124300971Y-72771916D01*
X124352167Y-72722727D01*
X124410329Y-72708500D01*
X128874000Y-72708500D01*
X128942121Y-72728502D01*
G37*
%TD.AperFunction*%
%TD*%
%TA.AperFunction,Conductor*%
%TO.N,+12V*%
G36*
X133150000Y-77800000D02*
G01*
X129926000Y-77800000D01*
X129857879Y-77779998D01*
X129811386Y-77726342D01*
X129800000Y-77674000D01*
X129800000Y-77304000D01*
X129820002Y-77235879D01*
X129873658Y-77189386D01*
X129926000Y-77178000D01*
X130582885Y-77178000D01*
X130598124Y-77173525D01*
X130599329Y-77172135D01*
X130601000Y-77164452D01*
X130601000Y-77159884D01*
X131109000Y-77159884D01*
X131113475Y-77175123D01*
X131114865Y-77176328D01*
X131122548Y-77177999D01*
X132234669Y-77177999D01*
X132241490Y-77177629D01*
X132292352Y-77172105D01*
X132307604Y-77168479D01*
X132428054Y-77123324D01*
X132443649Y-77114786D01*
X132545724Y-77038285D01*
X132558285Y-77025724D01*
X132634786Y-76923649D01*
X132643324Y-76908054D01*
X132688478Y-76787606D01*
X132692105Y-76772351D01*
X132697631Y-76721486D01*
X132698000Y-76714672D01*
X132698000Y-75672115D01*
X132693525Y-75656876D01*
X132692135Y-75655671D01*
X132684452Y-75654000D01*
X131127115Y-75654000D01*
X131111876Y-75658475D01*
X131110671Y-75659865D01*
X131109000Y-75667548D01*
X131109000Y-77159884D01*
X130601000Y-77159884D01*
X130601000Y-75127885D01*
X131109000Y-75127885D01*
X131113475Y-75143124D01*
X131114865Y-75144329D01*
X131122548Y-75146000D01*
X132679884Y-75146000D01*
X132695123Y-75141525D01*
X132696328Y-75140135D01*
X132697999Y-75132452D01*
X132697999Y-74085331D01*
X132697629Y-74078510D01*
X132692105Y-74027648D01*
X132688479Y-74012396D01*
X132643324Y-73891946D01*
X132634786Y-73876351D01*
X132558285Y-73774276D01*
X132545724Y-73761715D01*
X132443649Y-73685214D01*
X132428054Y-73676676D01*
X132307606Y-73631522D01*
X132292351Y-73627895D01*
X132241486Y-73622369D01*
X132234672Y-73622000D01*
X131127115Y-73622000D01*
X131111876Y-73626475D01*
X131110671Y-73627865D01*
X131109000Y-73635548D01*
X131109000Y-75127885D01*
X130601000Y-75127885D01*
X130601000Y-73640116D01*
X130596525Y-73624877D01*
X130595135Y-73623672D01*
X130587452Y-73622001D01*
X129926000Y-73622001D01*
X129857879Y-73601999D01*
X129811386Y-73548343D01*
X129800000Y-73496001D01*
X129800000Y-72834500D01*
X129820002Y-72766379D01*
X129873658Y-72719886D01*
X129926000Y-72708500D01*
X133150000Y-72708500D01*
X133150000Y-77800000D01*
G37*
%TD.AperFunction*%
%TD*%
%TA.AperFunction,Conductor*%
%TO.N,+BATT*%
G36*
X132442121Y-79320002D02*
G01*
X132488614Y-79373658D01*
X132500000Y-79426000D01*
X132500000Y-82874000D01*
X132479998Y-82942121D01*
X132426342Y-82988614D01*
X132374000Y-83000000D01*
X129000000Y-83000000D01*
X129000000Y-82217013D01*
X129960542Y-82217013D01*
X129969838Y-82229028D01*
X130026446Y-82268665D01*
X130035941Y-82274148D01*
X130237364Y-82368072D01*
X130247656Y-82371818D01*
X130462328Y-82429339D01*
X130473123Y-82431242D01*
X130694525Y-82450613D01*
X130705475Y-82450613D01*
X130926877Y-82431242D01*
X130937672Y-82429339D01*
X131152344Y-82371818D01*
X131162636Y-82368072D01*
X131364059Y-82274148D01*
X131373554Y-82268665D01*
X131431000Y-82228441D01*
X131439375Y-82217964D01*
X131432307Y-82204517D01*
X130712812Y-81485022D01*
X130698868Y-81477408D01*
X130697035Y-81477539D01*
X130690420Y-81481790D01*
X129966972Y-82205238D01*
X129960542Y-82217013D01*
X129000000Y-82217013D01*
X129000000Y-81118475D01*
X129362387Y-81118475D01*
X129381758Y-81339877D01*
X129383661Y-81350672D01*
X129441182Y-81565344D01*
X129444928Y-81575636D01*
X129538852Y-81777059D01*
X129544335Y-81786554D01*
X129584559Y-81844000D01*
X129595036Y-81852375D01*
X129608483Y-81845307D01*
X130327978Y-81125812D01*
X130334356Y-81114132D01*
X131064408Y-81114132D01*
X131064539Y-81115965D01*
X131068790Y-81122580D01*
X131792238Y-81846028D01*
X131804013Y-81852458D01*
X131816028Y-81843162D01*
X131855665Y-81786554D01*
X131861148Y-81777059D01*
X131955072Y-81575636D01*
X131958818Y-81565344D01*
X132016339Y-81350672D01*
X132018242Y-81339877D01*
X132037613Y-81118475D01*
X132037613Y-81107525D01*
X132018242Y-80886123D01*
X132016339Y-80875328D01*
X131958818Y-80660656D01*
X131955072Y-80650364D01*
X131861148Y-80448941D01*
X131855665Y-80439446D01*
X131815441Y-80382000D01*
X131804964Y-80373625D01*
X131791517Y-80380693D01*
X131072022Y-81100188D01*
X131064408Y-81114132D01*
X130334356Y-81114132D01*
X130335592Y-81111868D01*
X130335461Y-81110035D01*
X130331210Y-81103420D01*
X129607762Y-80379972D01*
X129595987Y-80373542D01*
X129583972Y-80382838D01*
X129544335Y-80439446D01*
X129538852Y-80448941D01*
X129444928Y-80650364D01*
X129441182Y-80660656D01*
X129383661Y-80875328D01*
X129381758Y-80886123D01*
X129362387Y-81107525D01*
X129362387Y-81118475D01*
X129000000Y-81118475D01*
X129000000Y-80008036D01*
X129960625Y-80008036D01*
X129967693Y-80021483D01*
X130687188Y-80740978D01*
X130701132Y-80748592D01*
X130702965Y-80748461D01*
X130709580Y-80744210D01*
X131433028Y-80020762D01*
X131439458Y-80008987D01*
X131430162Y-79996972D01*
X131373554Y-79957335D01*
X131364059Y-79951852D01*
X131162636Y-79857928D01*
X131152344Y-79854182D01*
X130937672Y-79796661D01*
X130926877Y-79794758D01*
X130705475Y-79775387D01*
X130694525Y-79775387D01*
X130473123Y-79794758D01*
X130462328Y-79796661D01*
X130247656Y-79854182D01*
X130237364Y-79857928D01*
X130035941Y-79951852D01*
X130026446Y-79957335D01*
X129969000Y-79997559D01*
X129960625Y-80008036D01*
X129000000Y-80008036D01*
X129000000Y-79300000D01*
X132374000Y-79300000D01*
X132442121Y-79320002D01*
G37*
%TD.AperFunction*%
%TD*%
M02*
