%TF.GenerationSoftware,KiCad,Pcbnew,(6.0.8-1)-1*%
%TF.CreationDate,2023-01-29T13:44:33-06:00*%
%TF.ProjectId,M4_CAN_Feather_Carrier,4d345f43-414e-45f4-9665-61746865725f,rev?*%
%TF.SameCoordinates,Original*%
%TF.FileFunction,Paste,Top*%
%TF.FilePolarity,Positive*%
%FSLAX46Y46*%
G04 Gerber Fmt 4.6, Leading zero omitted, Abs format (unit mm)*
G04 Created by KiCad (PCBNEW (6.0.8-1)-1) date 2023-01-29 13:44:33*
%MOMM*%
%LPD*%
G01*
G04 APERTURE LIST*
G04 Aperture macros list*
%AMRoundRect*
0 Rectangle with rounded corners*
0 $1 Rounding radius*
0 $2 $3 $4 $5 $6 $7 $8 $9 X,Y pos of 4 corners*
0 Add a 4 corners polygon primitive as box body*
4,1,4,$2,$3,$4,$5,$6,$7,$8,$9,$2,$3,0*
0 Add four circle primitives for the rounded corners*
1,1,$1+$1,$2,$3*
1,1,$1+$1,$4,$5*
1,1,$1+$1,$6,$7*
1,1,$1+$1,$8,$9*
0 Add four rect primitives between the rounded corners*
20,1,$1+$1,$2,$3,$4,$5,0*
20,1,$1+$1,$4,$5,$6,$7,0*
20,1,$1+$1,$6,$7,$8,$9,0*
20,1,$1+$1,$8,$9,$2,$3,0*%
G04 Aperture macros list end*
%ADD10R,2.000000X1.500000*%
%ADD11RoundRect,0.250000X0.250000X0.475000X-0.250000X0.475000X-0.250000X-0.475000X0.250000X-0.475000X0*%
%ADD12RoundRect,0.150000X0.625000X-0.150000X0.625000X0.150000X-0.625000X0.150000X-0.625000X-0.150000X0*%
%ADD13RoundRect,0.250000X0.650000X-0.350000X0.650000X0.350000X-0.650000X0.350000X-0.650000X-0.350000X0*%
%ADD14RoundRect,0.250000X-1.000000X1.500000X-1.000000X-1.500000X1.000000X-1.500000X1.000000X1.500000X0*%
%ADD15RoundRect,0.250000X-0.262500X-0.450000X0.262500X-0.450000X0.262500X0.450000X-0.262500X0.450000X0*%
%ADD16RoundRect,0.150000X0.150000X-0.825000X0.150000X0.825000X-0.150000X0.825000X-0.150000X-0.825000X0*%
%ADD17RoundRect,0.250000X-0.450000X0.262500X-0.450000X-0.262500X0.450000X-0.262500X0.450000X0.262500X0*%
%ADD18RoundRect,0.250000X0.450000X-0.262500X0.450000X0.262500X-0.450000X0.262500X-0.450000X-0.262500X0*%
%ADD19R,2.670000X2.540000*%
%ADD20R,0.760000X1.270000*%
G04 APERTURE END LIST*
D10*
%TO.C,SW1*%
X148100000Y-86200000D03*
X157100000Y-86200000D03*
%TD*%
D11*
%TO.C,C2*%
X151450000Y-98900000D03*
X149550000Y-98900000D03*
%TD*%
D12*
%TO.C,X4*%
X178800000Y-90966667D03*
X178800000Y-89966667D03*
X178800000Y-88966667D03*
X178800000Y-87966667D03*
D13*
X182675000Y-86666667D03*
X182675000Y-92266667D03*
%TD*%
D11*
%TO.C,C3*%
X151450000Y-96100000D03*
X149550000Y-96100000D03*
%TD*%
D14*
%TO.C,C1*%
X138500000Y-75192500D03*
X138500000Y-81692500D03*
%TD*%
D12*
%TO.C,X2*%
X178800000Y-107833333D03*
X178800000Y-106833333D03*
X178800000Y-105833333D03*
X178800000Y-104833333D03*
D13*
X182675000Y-103533333D03*
X182675000Y-109133333D03*
%TD*%
D15*
%TO.C,R6*%
X163275000Y-97500000D03*
X165100000Y-97500000D03*
%TD*%
D11*
%TO.C,C4*%
X133200000Y-103500000D03*
X131300000Y-103500000D03*
%TD*%
D16*
%TO.C,U3*%
X153885000Y-102740000D03*
X155155000Y-102740000D03*
X156425000Y-102740000D03*
X157695000Y-102740000D03*
X158965000Y-102740000D03*
X160235000Y-102740000D03*
X161505000Y-102740000D03*
X161505000Y-97790000D03*
X160235000Y-97790000D03*
X158965000Y-97790000D03*
X157695000Y-97790000D03*
X156425000Y-97790000D03*
X155155000Y-97790000D03*
X153885000Y-97790000D03*
%TD*%
D17*
%TO.C,R2*%
X149200000Y-101387500D03*
X149200000Y-103212500D03*
%TD*%
%TO.C,R1*%
X151400000Y-101400000D03*
X151400000Y-103225000D03*
%TD*%
D18*
%TO.C,R5*%
X144400000Y-76200000D03*
X144400000Y-74375000D03*
%TD*%
D16*
%TO.C,U4*%
X129390000Y-100575000D03*
X130660000Y-100575000D03*
X131930000Y-100575000D03*
X133200000Y-100575000D03*
X134470000Y-100575000D03*
X135740000Y-100575000D03*
X137010000Y-100575000D03*
X137010000Y-95625000D03*
X135740000Y-95625000D03*
X134470000Y-95625000D03*
X133200000Y-95625000D03*
X131930000Y-95625000D03*
X130660000Y-95625000D03*
X129390000Y-95625000D03*
%TD*%
D17*
%TO.C,R3*%
X147000000Y-101387500D03*
X147000000Y-103212500D03*
%TD*%
D12*
%TO.C,X1*%
X178800000Y-116266667D03*
X178800000Y-115266667D03*
X178800000Y-114266667D03*
X178800000Y-113266667D03*
D13*
X182675000Y-111966667D03*
X182675000Y-117566667D03*
%TD*%
D17*
%TO.C,R4*%
X144800000Y-101387500D03*
X144800000Y-103212500D03*
%TD*%
D19*
%TO.C,D1*%
X130855000Y-75400000D03*
D20*
X128500000Y-75400000D03*
%TD*%
D12*
%TO.C,X3*%
X178800000Y-99400000D03*
X178800000Y-98400000D03*
X178800000Y-97400000D03*
X178800000Y-96400000D03*
D13*
X182675000Y-95100000D03*
X182675000Y-100700000D03*
%TD*%
M02*
