%TF.GenerationSoftware,KiCad,Pcbnew,(6.0.8-1)-1*%
%TF.CreationDate,2023-01-29T13:44:33-06:00*%
%TF.ProjectId,M4_CAN_Feather_Carrier,4d345f43-414e-45f4-9665-61746865725f,rev?*%
%TF.SameCoordinates,Original*%
%TF.FileFunction,Copper,L2,Bot*%
%TF.FilePolarity,Positive*%
%FSLAX46Y46*%
G04 Gerber Fmt 4.6, Leading zero omitted, Abs format (unit mm)*
G04 Created by KiCad (PCBNEW (6.0.8-1)-1) date 2023-01-29 13:44:33*
%MOMM*%
%LPD*%
G01*
G04 APERTURE LIST*
%TA.AperFunction,ComponentPad*%
%ADD10C,1.700000*%
%TD*%
%TA.AperFunction,ComponentPad*%
%ADD11C,1.650000*%
%TD*%
%TA.AperFunction,ComponentPad*%
%ADD12C,1.600000*%
%TD*%
%TA.AperFunction,ComponentPad*%
%ADD13C,3.800000*%
%TD*%
%TA.AperFunction,ComponentPad*%
%ADD14R,1.700000X1.700000*%
%TD*%
%TA.AperFunction,ComponentPad*%
%ADD15O,1.700000X1.700000*%
%TD*%
%TA.AperFunction,ViaPad*%
%ADD16C,0.800000*%
%TD*%
%TA.AperFunction,Conductor*%
%ADD17C,0.500000*%
%TD*%
%TA.AperFunction,Conductor*%
%ADD18C,0.400000*%
%TD*%
%TA.AperFunction,Conductor*%
%ADD19C,0.250000*%
%TD*%
%TA.AperFunction,Conductor*%
%ADD20C,1.000000*%
%TD*%
G04 APERTURE END LIST*
D10*
%TO.P,U2,1,RST*%
%TO.N,unconnected-(U2-Pad1)*%
X128080000Y-110230000D03*
%TO.P,U2,2,3V*%
%TO.N,+3.3V*%
X130590000Y-110230000D03*
%TO.P,U2,3,ARef*%
%TO.N,unconnected-(U2-Pad3)*%
X133130000Y-110230000D03*
%TO.P,U2,4,GND*%
%TO.N,GND*%
X135670000Y-110230000D03*
%TO.P,U2,5,A0*%
%TO.N,/A0*%
X138210000Y-110230000D03*
%TO.P,U2,6,A1*%
%TO.N,/A1*%
X140750000Y-110230000D03*
%TO.P,U2,7,A2*%
%TO.N,/A2*%
X143290000Y-110230000D03*
%TO.P,U2,8,A3*%
%TO.N,/A3*%
X145830000Y-110230000D03*
%TO.P,U2,9,A4*%
%TO.N,unconnected-(U2-Pad9)*%
X148370000Y-110230000D03*
%TO.P,U2,10,A5*%
%TO.N,/LS_OE*%
X150910000Y-110230000D03*
%TO.P,U2,11,SCK*%
%TO.N,/SCL_2*%
X153450000Y-110230000D03*
%TO.P,U2,12,MOSI*%
%TO.N,unconnected-(U2-Pad12)*%
X155990000Y-110230000D03*
%TO.P,U2,13,MISO*%
%TO.N,unconnected-(U2-Pad13)*%
X158530000Y-110230000D03*
%TO.P,U2,14,D0*%
%TO.N,/SCL_1*%
X161070000Y-110230000D03*
%TO.P,U2,15,D1*%
%TO.N,/SDA_1*%
X163610000Y-110230000D03*
%TO.P,U2,16,D4*%
%TO.N,/NEOPIXEL*%
X166150000Y-110230000D03*
%TO.P,U2,17,SDA*%
%TO.N,/SDA*%
X166150000Y-89910000D03*
%TO.P,U2,18,SCL*%
%TO.N,/SCL*%
X163610000Y-89910000D03*
%TO.P,U2,19,D5*%
%TO.N,/SDA_2*%
X161070000Y-89910000D03*
%TO.P,U2,20,D6*%
%TO.N,/DIO0*%
X158530000Y-89910000D03*
%TO.P,U2,21,D9*%
%TO.N,/DIO1*%
X155990000Y-89910000D03*
%TO.P,U2,22,D10*%
%TO.N,/DIO2*%
X153450000Y-89910000D03*
%TO.P,U2,23,D11*%
%TO.N,/DIO3*%
X150910000Y-89910000D03*
%TO.P,U2,24,D12*%
%TO.N,/SDA_3*%
X148370000Y-89910000D03*
%TO.P,U2,25,D13*%
%TO.N,/SCL_3*%
X145830000Y-89910000D03*
%TO.P,U2,26,VBUS*%
%TO.N,Net-(SW1-Pad1)*%
X143290000Y-89910000D03*
%TO.P,U2,27,EN*%
%TO.N,unconnected-(U2-Pad27)*%
X140750000Y-89910000D03*
%TO.P,U2,28,VBAT*%
%TO.N,unconnected-(U2-Pad28)*%
X138210000Y-89910000D03*
%TD*%
D11*
%TO.P,J1,1,1*%
%TO.N,+BATT*%
X130700000Y-81113000D03*
%TO.P,J1,2,2*%
%TO.N,GND*%
X125700000Y-84613000D03*
%TD*%
D10*
%TO.P,J7,1,S1*%
%TO.N,Net-(J7-Pad1)*%
X132170000Y-115285000D03*
%TO.P,J7,2,P1*%
%TO.N,+3.3V*%
X132170000Y-117825000D03*
%TO.P,J7,3,G1*%
%TO.N,GND*%
X132170000Y-120365000D03*
%TO.P,J7,4,S2*%
%TO.N,Net-(J7-Pad4)*%
X134710000Y-115285000D03*
%TO.P,J7,5,P2*%
%TO.N,+3.3V*%
X134710000Y-117825000D03*
%TO.P,J7,6,G2*%
%TO.N,GND*%
X134710000Y-120365000D03*
%TO.P,J7,7,S3*%
%TO.N,Net-(J7-Pad7)*%
X137250000Y-115285000D03*
%TO.P,J7,8,P3*%
%TO.N,+3.3V*%
X137250000Y-117825000D03*
%TO.P,J7,9,G3*%
%TO.N,GND*%
X137250000Y-120365000D03*
%TO.P,J7,10,S4*%
%TO.N,Net-(J7-Pad10)*%
X139790000Y-115285000D03*
%TO.P,J7,11,P4*%
%TO.N,+3.3V*%
X139790000Y-117825000D03*
%TO.P,J7,12,G4*%
%TO.N,GND*%
X139790000Y-120365000D03*
%TD*%
D12*
%TO.P,J2,1,1*%
%TO.N,/NEOPIXEL*%
X175596000Y-77500000D03*
%TO.P,J2,2,2*%
%TO.N,+5V*%
X172096000Y-82500000D03*
%TO.P,J2,3,3*%
%TO.N,GND*%
X168596000Y-77500000D03*
%TD*%
D13*
%TO.P,H3,1,1*%
%TO.N,unconnected-(H3-Pad1)*%
X181500000Y-75200000D03*
%TD*%
D10*
%TO.P,U1,1,EN*%
%TO.N,Net-(R5-Pad2)*%
X147110000Y-74402000D03*
%TO.P,U1,2,VIN*%
%TO.N,+12V*%
X147110000Y-76942000D03*
%TO.P,U1,3,GND*%
%TO.N,GND*%
X147110000Y-79482000D03*
%TO.P,U1,4,VOUT*%
%TO.N,+5V*%
X147110000Y-82022000D03*
%TD*%
D13*
%TO.P,H1,1,1*%
%TO.N,unconnected-(H1-Pad1)*%
X123500000Y-121200000D03*
%TD*%
D14*
%TO.P,J4,1,Pin_1*%
%TO.N,VDD*%
X168100000Y-117835000D03*
D15*
%TO.P,J4,2,Pin_2*%
%TO.N,GND*%
X168100000Y-120375000D03*
%TO.P,J4,3,Pin_3*%
%TO.N,VDD*%
X165560000Y-117835000D03*
%TO.P,J4,4,Pin_4*%
%TO.N,GND*%
X165560000Y-120375000D03*
%TO.P,J4,5,Pin_5*%
%TO.N,VDD*%
X163020000Y-117835000D03*
%TO.P,J4,6,Pin_6*%
%TO.N,GND*%
X163020000Y-120375000D03*
%TO.P,J4,7,Pin_7*%
%TO.N,VDD*%
X160480000Y-117835000D03*
%TO.P,J4,8,Pin_8*%
%TO.N,GND*%
X160480000Y-120375000D03*
%TD*%
D13*
%TO.P,H2,1,1*%
%TO.N,unconnected-(H2-Pad1)*%
X181500000Y-121200000D03*
%TD*%
D14*
%TO.P,J5,1,Pin_1*%
%TO.N,+5V*%
X156400000Y-115285000D03*
D15*
%TO.P,J5,2,Pin_2*%
%TO.N,VDD*%
X156400000Y-117825000D03*
%TO.P,J5,3,Pin_3*%
%TO.N,+3.3V*%
X156400000Y-120365000D03*
%TD*%
D10*
%TO.P,J3,1,S1*%
%TO.N,Net-(J3-Pad1)*%
X144720000Y-115290000D03*
%TO.P,J3,2,P1*%
%TO.N,VDD*%
X144720000Y-117830000D03*
%TO.P,J3,3,G1*%
%TO.N,GND*%
X144720000Y-120370000D03*
%TO.P,J3,4,S2*%
%TO.N,Net-(J3-Pad4)*%
X147260000Y-115290000D03*
%TO.P,J3,5,P2*%
%TO.N,VDD*%
X147260000Y-117830000D03*
%TO.P,J3,6,G2*%
%TO.N,GND*%
X147260000Y-120370000D03*
%TO.P,J3,7,S3*%
%TO.N,Net-(J3-Pad7)*%
X149800000Y-115290000D03*
%TO.P,J3,8,P3*%
%TO.N,VDD*%
X149800000Y-117830000D03*
%TO.P,J3,9,G3*%
%TO.N,GND*%
X149800000Y-120370000D03*
%TO.P,J3,10,S4*%
%TO.N,Net-(J3-Pad10)*%
X152340000Y-115290000D03*
%TO.P,J3,11,P4*%
%TO.N,VDD*%
X152340000Y-117830000D03*
%TO.P,J3,12,G4*%
%TO.N,GND*%
X152340000Y-120370000D03*
%TD*%
D13*
%TO.P,H4,1,1*%
%TO.N,unconnected-(H4-Pad1)*%
X123500000Y-75200000D03*
%TD*%
D16*
%TO.N,GND*%
X177900000Y-109000000D03*
X166300000Y-96400000D03*
X162800000Y-102700000D03*
X178000000Y-92100000D03*
X135750000Y-79800000D03*
X182675000Y-114725000D03*
X148300000Y-98400000D03*
X130000000Y-103900000D03*
X178000000Y-100500000D03*
X177800000Y-117400000D03*
X135700000Y-81100000D03*
X133500000Y-97400000D03*
X182675000Y-89425000D03*
X182675000Y-106225000D03*
X148300000Y-95600000D03*
X182675000Y-97925000D03*
%TO.N,VDD*%
X146500000Y-97500000D03*
X166800000Y-107600000D03*
X143100000Y-104000000D03*
X144800000Y-99200000D03*
%TO.N,/NEOPIXEL*%
X175000000Y-108600000D03*
X175600000Y-86000000D03*
X175000000Y-89600000D03*
%TO.N,Net-(J3-Pad1)*%
X145900000Y-102300000D03*
X159324500Y-99600000D03*
%TO.N,Net-(J3-Pad4)*%
X157862299Y-100137701D03*
X148100000Y-102300000D03*
%TO.N,Net-(J3-Pad7)*%
X156600000Y-101000000D03*
X150403053Y-102312500D03*
%TO.N,Net-(J3-Pad10)*%
X152700000Y-102900000D03*
X155000000Y-101100000D03*
%TO.N,/LS_OE*%
X153700000Y-106900000D03*
%TO.N,/SCL_2*%
X155100000Y-107800000D03*
X177100000Y-96300000D03*
X171400000Y-96300000D03*
%TO.N,/SCL_1*%
X177000000Y-104800000D03*
X165800000Y-104900000D03*
%TO.N,/SDA_1*%
X166500000Y-105700000D03*
X177000000Y-105799503D03*
%TO.N,/SDA_2*%
X170100000Y-96300000D03*
X177100000Y-97400000D03*
%TD*%
D17*
%TO.N,VDD*%
X162100000Y-105100000D02*
X164700000Y-107700000D01*
X144200000Y-105100000D02*
X162100000Y-105100000D01*
X144800000Y-99200000D02*
X146500000Y-97500000D01*
X143100000Y-104000000D02*
X144200000Y-105100000D01*
D18*
X166700000Y-107700000D02*
X166800000Y-107600000D01*
D17*
X164700000Y-107700000D02*
X166700000Y-107700000D01*
D19*
%TO.N,/NEOPIXEL*%
X167780000Y-108600000D02*
X174900000Y-108600000D01*
X174900000Y-108600000D02*
X175000000Y-108600000D01*
X175000000Y-86600000D02*
X175600000Y-86000000D01*
X166150000Y-110230000D02*
X167780000Y-108600000D01*
X175000000Y-89600000D02*
X175000000Y-86600000D01*
D20*
%TO.N,+5V*%
X141532000Y-87600000D02*
X147110000Y-82022000D01*
X124200000Y-112700000D02*
X121700000Y-110200000D01*
X156400000Y-115285000D02*
X156400000Y-115100000D01*
X121700000Y-90200000D02*
X124300000Y-87600000D01*
X156400000Y-115100000D02*
X154000000Y-112700000D01*
X121700000Y-110200000D02*
X121700000Y-90200000D01*
X124300000Y-87600000D02*
X141532000Y-87600000D01*
X154000000Y-112700000D02*
X124200000Y-112700000D01*
D19*
%TO.N,Net-(J3-Pad1)*%
X145900000Y-102300000D02*
X148950000Y-99250000D01*
X148950000Y-99250000D02*
X158974500Y-99250000D01*
X158974500Y-99250000D02*
X159324500Y-99600000D01*
%TO.N,Net-(J3-Pad4)*%
X157524598Y-99800000D02*
X150600000Y-99800000D01*
X150600000Y-99800000D02*
X148100000Y-102300000D01*
X157862299Y-100137701D02*
X157524598Y-99800000D01*
%TO.N,Net-(J3-Pad7)*%
X155475000Y-100375000D02*
X152340553Y-100375000D01*
X152340553Y-100375000D02*
X150403053Y-102312500D01*
X156100000Y-101000000D02*
X155475000Y-100375000D01*
X156600000Y-101000000D02*
X156100000Y-101000000D01*
%TO.N,Net-(J3-Pad10)*%
X153500000Y-101100000D02*
X152700000Y-101900000D01*
X152700000Y-101900000D02*
X152700000Y-102900000D01*
X155000000Y-101100000D02*
X153500000Y-101100000D01*
%TO.N,/LS_OE*%
X150900000Y-110220000D02*
X150910000Y-110230000D01*
X153700000Y-106900000D02*
X153300000Y-106900000D01*
X153300000Y-106900000D02*
X150900000Y-109300000D01*
X150900000Y-109300000D02*
X150900000Y-110220000D01*
%TO.N,/SCL_2*%
X153500000Y-109300000D02*
X155000000Y-107800000D01*
X171400000Y-96300000D02*
X177100000Y-96300000D01*
X153450000Y-110230000D02*
X153500000Y-110180000D01*
X153500000Y-110180000D02*
X153500000Y-109300000D01*
X155000000Y-107800000D02*
X155100000Y-107800000D01*
%TO.N,/SCL_1*%
X177000000Y-104800000D02*
X165900000Y-104800000D01*
X165900000Y-104800000D02*
X165800000Y-104900000D01*
%TO.N,/SDA_1*%
X176900497Y-105700000D02*
X177000000Y-105799503D01*
X166500000Y-105700000D02*
X176900497Y-105700000D01*
%TO.N,/SDA_2*%
X177100000Y-97400000D02*
X171200000Y-97400000D01*
X171200000Y-97400000D02*
X170100000Y-96300000D01*
%TD*%
%TA.AperFunction,Conductor*%
%TO.N,GND*%
G36*
X180386328Y-72794105D02*
G01*
X180454416Y-72814215D01*
X180500824Y-72867945D01*
X180510816Y-72938235D01*
X180481220Y-73002768D01*
X180446828Y-73030519D01*
X180216922Y-73156912D01*
X180206910Y-73162416D01*
X179961729Y-73340550D01*
X179740808Y-73548008D01*
X179547630Y-73781520D01*
X179385242Y-74037402D01*
X179256206Y-74311619D01*
X179254980Y-74315391D01*
X179254980Y-74315392D01*
X179229744Y-74393061D01*
X179162555Y-74599846D01*
X179105767Y-74897538D01*
X179086738Y-75200000D01*
X179105767Y-75502462D01*
X179162555Y-75800154D01*
X179256206Y-76088381D01*
X179257893Y-76091967D01*
X179257895Y-76091971D01*
X179271815Y-76121553D01*
X179385242Y-76362598D01*
X179547630Y-76618480D01*
X179740808Y-76851992D01*
X179743695Y-76854703D01*
X179947167Y-77045775D01*
X179961729Y-77059450D01*
X180206910Y-77237584D01*
X180210379Y-77239491D01*
X180210382Y-77239493D01*
X180469014Y-77381678D01*
X180472483Y-77383585D01*
X180476152Y-77385038D01*
X180476157Y-77385040D01*
X180734154Y-77487188D01*
X180754261Y-77495149D01*
X181047800Y-77570516D01*
X181348470Y-77608500D01*
X181651530Y-77608500D01*
X181952200Y-77570516D01*
X182245739Y-77495149D01*
X182265846Y-77487188D01*
X182523843Y-77385040D01*
X182523848Y-77385038D01*
X182527517Y-77383585D01*
X182530986Y-77381678D01*
X182789618Y-77239493D01*
X182789621Y-77239491D01*
X182793090Y-77237584D01*
X183038271Y-77059450D01*
X183052834Y-77045775D01*
X183256305Y-76854703D01*
X183259192Y-76851992D01*
X183452370Y-76618480D01*
X183614758Y-76362598D01*
X183728185Y-76121553D01*
X183742105Y-76091971D01*
X183742107Y-76091967D01*
X183743794Y-76088381D01*
X183745668Y-76082614D01*
X183746004Y-76082123D01*
X183746475Y-76080933D01*
X183746745Y-76081040D01*
X183785743Y-76024009D01*
X183851140Y-75996374D01*
X183921097Y-76008482D01*
X183973402Y-76056490D01*
X183991500Y-76121553D01*
X183991500Y-120278447D01*
X183971498Y-120346568D01*
X183917842Y-120393061D01*
X183847568Y-120403165D01*
X183782988Y-120373671D01*
X183746719Y-120318971D01*
X183746475Y-120319067D01*
X183746019Y-120317915D01*
X183745668Y-120317386D01*
X183745021Y-120315394D01*
X183745019Y-120315388D01*
X183743794Y-120311619D01*
X183740583Y-120304794D01*
X183664148Y-120142361D01*
X183614758Y-120037402D01*
X183591315Y-120000461D01*
X183527422Y-119899783D01*
X183452370Y-119781520D01*
X183398779Y-119716739D01*
X183378860Y-119692662D01*
X183259192Y-119548008D01*
X183085349Y-119384759D01*
X183041158Y-119343261D01*
X183041157Y-119343261D01*
X183038271Y-119340550D01*
X182793090Y-119162416D01*
X182759647Y-119144030D01*
X182530986Y-119018322D01*
X182530985Y-119018321D01*
X182527517Y-119016415D01*
X182523848Y-119014962D01*
X182523843Y-119014960D01*
X182249409Y-118906304D01*
X182249408Y-118906304D01*
X182245739Y-118904851D01*
X181952200Y-118829484D01*
X181651530Y-118791500D01*
X181348470Y-118791500D01*
X181047800Y-118829484D01*
X180754261Y-118904851D01*
X180750592Y-118906304D01*
X180750591Y-118906304D01*
X180476157Y-119014960D01*
X180476152Y-119014962D01*
X180472483Y-119016415D01*
X180469015Y-119018321D01*
X180469014Y-119018322D01*
X180240354Y-119144030D01*
X180206910Y-119162416D01*
X179961729Y-119340550D01*
X179958843Y-119343261D01*
X179958842Y-119343261D01*
X179914651Y-119384759D01*
X179740808Y-119548008D01*
X179621140Y-119692662D01*
X179601222Y-119716739D01*
X179547630Y-119781520D01*
X179472578Y-119899783D01*
X179408686Y-120000461D01*
X179385242Y-120037402D01*
X179335852Y-120142361D01*
X179259418Y-120304794D01*
X179256206Y-120311619D01*
X179254980Y-120315391D01*
X179254980Y-120315392D01*
X179234124Y-120379580D01*
X179162555Y-120599846D01*
X179105767Y-120897538D01*
X179086738Y-121200000D01*
X179105767Y-121502462D01*
X179162555Y-121800154D01*
X179256206Y-122088381D01*
X179257893Y-122091967D01*
X179257895Y-122091971D01*
X179291462Y-122163304D01*
X179385242Y-122362598D01*
X179547630Y-122618480D01*
X179740808Y-122851992D01*
X179961729Y-123059450D01*
X180206910Y-123237584D01*
X180472483Y-123383585D01*
X180476152Y-123385038D01*
X180476157Y-123385040D01*
X180636055Y-123448348D01*
X180692029Y-123492023D01*
X180715505Y-123559026D01*
X180699029Y-123628084D01*
X180647833Y-123677273D01*
X180589671Y-123691500D01*
X124410329Y-123691500D01*
X124342208Y-123671498D01*
X124295715Y-123617842D01*
X124285611Y-123547568D01*
X124315105Y-123482988D01*
X124363945Y-123448348D01*
X124523843Y-123385040D01*
X124523848Y-123385038D01*
X124527517Y-123383585D01*
X124793090Y-123237584D01*
X125038271Y-123059450D01*
X125259192Y-122851992D01*
X125452370Y-122618480D01*
X125614758Y-122362598D01*
X125708538Y-122163304D01*
X125742105Y-122091971D01*
X125742107Y-122091967D01*
X125743794Y-122088381D01*
X125837445Y-121800154D01*
X125894233Y-121502462D01*
X125895026Y-121489853D01*
X131409977Y-121489853D01*
X131415258Y-121496907D01*
X131576756Y-121591279D01*
X131586042Y-121595729D01*
X131785001Y-121671703D01*
X131794899Y-121674579D01*
X132003595Y-121717038D01*
X132013823Y-121718257D01*
X132226650Y-121726062D01*
X132236936Y-121725595D01*
X132448185Y-121698534D01*
X132458262Y-121696392D01*
X132662255Y-121635191D01*
X132671842Y-121631433D01*
X132863098Y-121537738D01*
X132871944Y-121532465D01*
X132919247Y-121498723D01*
X132926211Y-121489853D01*
X133949977Y-121489853D01*
X133955258Y-121496907D01*
X134116756Y-121591279D01*
X134126042Y-121595729D01*
X134325001Y-121671703D01*
X134334899Y-121674579D01*
X134543595Y-121717038D01*
X134553823Y-121718257D01*
X134766650Y-121726062D01*
X134776936Y-121725595D01*
X134988185Y-121698534D01*
X134998262Y-121696392D01*
X135202255Y-121635191D01*
X135211842Y-121631433D01*
X135403098Y-121537738D01*
X135411944Y-121532465D01*
X135459247Y-121498723D01*
X135466211Y-121489853D01*
X136489977Y-121489853D01*
X136495258Y-121496907D01*
X136656756Y-121591279D01*
X136666042Y-121595729D01*
X136865001Y-121671703D01*
X136874899Y-121674579D01*
X137083595Y-121717038D01*
X137093823Y-121718257D01*
X137306650Y-121726062D01*
X137316936Y-121725595D01*
X137528185Y-121698534D01*
X137538262Y-121696392D01*
X137742255Y-121635191D01*
X137751842Y-121631433D01*
X137943098Y-121537738D01*
X137951944Y-121532465D01*
X137999247Y-121498723D01*
X138006211Y-121489853D01*
X139029977Y-121489853D01*
X139035258Y-121496907D01*
X139196756Y-121591279D01*
X139206042Y-121595729D01*
X139405001Y-121671703D01*
X139414899Y-121674579D01*
X139623595Y-121717038D01*
X139633823Y-121718257D01*
X139846650Y-121726062D01*
X139856936Y-121725595D01*
X140068185Y-121698534D01*
X140078262Y-121696392D01*
X140282255Y-121635191D01*
X140291842Y-121631433D01*
X140483098Y-121537738D01*
X140491944Y-121532465D01*
X140539247Y-121498723D01*
X140542285Y-121494853D01*
X143959977Y-121494853D01*
X143965258Y-121501907D01*
X144126756Y-121596279D01*
X144136042Y-121600729D01*
X144335001Y-121676703D01*
X144344899Y-121679579D01*
X144553595Y-121722038D01*
X144563823Y-121723257D01*
X144776650Y-121731062D01*
X144786936Y-121730595D01*
X144998185Y-121703534D01*
X145008262Y-121701392D01*
X145212255Y-121640191D01*
X145221842Y-121636433D01*
X145413098Y-121542738D01*
X145421944Y-121537465D01*
X145469247Y-121503723D01*
X145476211Y-121494853D01*
X146499977Y-121494853D01*
X146505258Y-121501907D01*
X146666756Y-121596279D01*
X146676042Y-121600729D01*
X146875001Y-121676703D01*
X146884899Y-121679579D01*
X147093595Y-121722038D01*
X147103823Y-121723257D01*
X147316650Y-121731062D01*
X147326936Y-121730595D01*
X147538185Y-121703534D01*
X147548262Y-121701392D01*
X147752255Y-121640191D01*
X147761842Y-121636433D01*
X147953098Y-121542738D01*
X147961944Y-121537465D01*
X148009247Y-121503723D01*
X148016211Y-121494853D01*
X149039977Y-121494853D01*
X149045258Y-121501907D01*
X149206756Y-121596279D01*
X149216042Y-121600729D01*
X149415001Y-121676703D01*
X149424899Y-121679579D01*
X149633595Y-121722038D01*
X149643823Y-121723257D01*
X149856650Y-121731062D01*
X149866936Y-121730595D01*
X150078185Y-121703534D01*
X150088262Y-121701392D01*
X150292255Y-121640191D01*
X150301842Y-121636433D01*
X150493098Y-121542738D01*
X150501944Y-121537465D01*
X150549247Y-121503723D01*
X150556211Y-121494853D01*
X151579977Y-121494853D01*
X151585258Y-121501907D01*
X151746756Y-121596279D01*
X151756042Y-121600729D01*
X151955001Y-121676703D01*
X151964899Y-121679579D01*
X152173595Y-121722038D01*
X152183823Y-121723257D01*
X152396650Y-121731062D01*
X152406936Y-121730595D01*
X152618185Y-121703534D01*
X152628262Y-121701392D01*
X152832255Y-121640191D01*
X152841842Y-121636433D01*
X153033098Y-121542738D01*
X153041944Y-121537465D01*
X153089247Y-121503723D01*
X153097648Y-121493023D01*
X153090660Y-121479870D01*
X152352812Y-120742022D01*
X152338868Y-120734408D01*
X152337035Y-120734539D01*
X152330420Y-120738790D01*
X151586737Y-121482473D01*
X151579977Y-121494853D01*
X150556211Y-121494853D01*
X150557648Y-121493023D01*
X150550660Y-121479870D01*
X149812812Y-120742022D01*
X149798868Y-120734408D01*
X149797035Y-120734539D01*
X149790420Y-120738790D01*
X149046737Y-121482473D01*
X149039977Y-121494853D01*
X148016211Y-121494853D01*
X148017648Y-121493023D01*
X148010660Y-121479870D01*
X147272812Y-120742022D01*
X147258868Y-120734408D01*
X147257035Y-120734539D01*
X147250420Y-120738790D01*
X146506737Y-121482473D01*
X146499977Y-121494853D01*
X145476211Y-121494853D01*
X145477648Y-121493023D01*
X145470660Y-121479870D01*
X144732812Y-120742022D01*
X144718868Y-120734408D01*
X144717035Y-120734539D01*
X144710420Y-120738790D01*
X143966737Y-121482473D01*
X143959977Y-121494853D01*
X140542285Y-121494853D01*
X140547648Y-121488023D01*
X140540660Y-121474870D01*
X139802812Y-120737022D01*
X139788868Y-120729408D01*
X139787035Y-120729539D01*
X139780420Y-120733790D01*
X139036737Y-121477473D01*
X139029977Y-121489853D01*
X138006211Y-121489853D01*
X138007648Y-121488023D01*
X138000660Y-121474870D01*
X137262812Y-120737022D01*
X137248868Y-120729408D01*
X137247035Y-120729539D01*
X137240420Y-120733790D01*
X136496737Y-121477473D01*
X136489977Y-121489853D01*
X135466211Y-121489853D01*
X135467648Y-121488023D01*
X135460660Y-121474870D01*
X134722812Y-120737022D01*
X134708868Y-120729408D01*
X134707035Y-120729539D01*
X134700420Y-120733790D01*
X133956737Y-121477473D01*
X133949977Y-121489853D01*
X132926211Y-121489853D01*
X132927648Y-121488023D01*
X132920660Y-121474870D01*
X132182812Y-120737022D01*
X132168868Y-120729408D01*
X132167035Y-120729539D01*
X132160420Y-120733790D01*
X131416737Y-121477473D01*
X131409977Y-121489853D01*
X125895026Y-121489853D01*
X125913262Y-121200000D01*
X125894233Y-120897538D01*
X125837445Y-120599846D01*
X125765876Y-120379580D01*
X125751996Y-120336863D01*
X130808050Y-120336863D01*
X130820309Y-120549477D01*
X130821745Y-120559697D01*
X130868565Y-120767446D01*
X130871645Y-120777275D01*
X130951770Y-120974603D01*
X130956413Y-120983794D01*
X131036460Y-121114420D01*
X131046916Y-121123880D01*
X131055694Y-121120096D01*
X131797978Y-120377812D01*
X131804356Y-120366132D01*
X132534408Y-120366132D01*
X132534539Y-120367965D01*
X132538790Y-120374580D01*
X133280474Y-121116264D01*
X133292484Y-121122823D01*
X133304223Y-121113855D01*
X133338022Y-121066819D01*
X133339149Y-121067629D01*
X133386659Y-121023881D01*
X133456596Y-121011661D01*
X133522038Y-121039191D01*
X133549870Y-121071029D01*
X133576459Y-121114419D01*
X133586916Y-121123880D01*
X133595694Y-121120096D01*
X134337978Y-120377812D01*
X134344356Y-120366132D01*
X135074408Y-120366132D01*
X135074539Y-120367965D01*
X135078790Y-120374580D01*
X135820474Y-121116264D01*
X135832484Y-121122823D01*
X135844223Y-121113855D01*
X135878022Y-121066819D01*
X135879149Y-121067629D01*
X135926659Y-121023881D01*
X135996596Y-121011661D01*
X136062038Y-121039191D01*
X136089870Y-121071029D01*
X136116459Y-121114419D01*
X136126916Y-121123880D01*
X136135694Y-121120096D01*
X136877978Y-120377812D01*
X136884356Y-120366132D01*
X137614408Y-120366132D01*
X137614539Y-120367965D01*
X137618790Y-120374580D01*
X138360474Y-121116264D01*
X138372484Y-121122823D01*
X138384223Y-121113855D01*
X138418022Y-121066819D01*
X138419149Y-121067629D01*
X138466659Y-121023881D01*
X138536596Y-121011661D01*
X138602038Y-121039191D01*
X138629870Y-121071029D01*
X138656459Y-121114419D01*
X138666916Y-121123880D01*
X138675694Y-121120096D01*
X139417978Y-120377812D01*
X139424356Y-120366132D01*
X140154408Y-120366132D01*
X140154539Y-120367965D01*
X140158790Y-120374580D01*
X140900474Y-121116264D01*
X140912484Y-121122823D01*
X140924223Y-121113855D01*
X140955004Y-121071019D01*
X140960315Y-121062180D01*
X141054670Y-120871267D01*
X141058469Y-120861672D01*
X141120376Y-120657915D01*
X141122555Y-120647834D01*
X141150590Y-120434887D01*
X141151109Y-120428212D01*
X141152572Y-120368364D01*
X141152378Y-120361646D01*
X141150752Y-120341863D01*
X143358050Y-120341863D01*
X143370309Y-120554477D01*
X143371745Y-120564697D01*
X143418565Y-120772446D01*
X143421645Y-120782275D01*
X143501770Y-120979603D01*
X143506413Y-120988794D01*
X143586460Y-121119420D01*
X143596916Y-121128880D01*
X143605694Y-121125096D01*
X144347978Y-120382812D01*
X144354356Y-120371132D01*
X145084408Y-120371132D01*
X145084539Y-120372965D01*
X145088790Y-120379580D01*
X145830474Y-121121264D01*
X145842484Y-121127823D01*
X145854223Y-121118855D01*
X145888022Y-121071819D01*
X145889149Y-121072629D01*
X145936659Y-121028881D01*
X146006596Y-121016661D01*
X146072038Y-121044191D01*
X146099870Y-121076029D01*
X146126459Y-121119419D01*
X146136916Y-121128880D01*
X146145694Y-121125096D01*
X146887978Y-120382812D01*
X146894356Y-120371132D01*
X147624408Y-120371132D01*
X147624539Y-120372965D01*
X147628790Y-120379580D01*
X148370474Y-121121264D01*
X148382484Y-121127823D01*
X148394223Y-121118855D01*
X148428022Y-121071819D01*
X148429149Y-121072629D01*
X148476659Y-121028881D01*
X148546596Y-121016661D01*
X148612038Y-121044191D01*
X148639870Y-121076029D01*
X148666459Y-121119419D01*
X148676916Y-121128880D01*
X148685694Y-121125096D01*
X149427978Y-120382812D01*
X149434356Y-120371132D01*
X150164408Y-120371132D01*
X150164539Y-120372965D01*
X150168790Y-120379580D01*
X150910474Y-121121264D01*
X150922484Y-121127823D01*
X150934223Y-121118855D01*
X150968022Y-121071819D01*
X150969149Y-121072629D01*
X151016659Y-121028881D01*
X151086596Y-121016661D01*
X151152038Y-121044191D01*
X151179870Y-121076029D01*
X151206459Y-121119419D01*
X151216916Y-121128880D01*
X151225694Y-121125096D01*
X151967978Y-120382812D01*
X151974356Y-120371132D01*
X152704408Y-120371132D01*
X152704539Y-120372965D01*
X152708790Y-120379580D01*
X153450474Y-121121264D01*
X153462484Y-121127823D01*
X153474223Y-121118855D01*
X153505004Y-121076019D01*
X153510315Y-121067180D01*
X153604670Y-120876267D01*
X153608469Y-120866672D01*
X153670376Y-120662915D01*
X153672555Y-120652834D01*
X153700590Y-120439887D01*
X153701109Y-120433212D01*
X153702572Y-120373364D01*
X153702378Y-120366646D01*
X153684781Y-120152604D01*
X153683096Y-120142424D01*
X153631214Y-119935875D01*
X153627894Y-119926124D01*
X153542972Y-119730814D01*
X153538105Y-119721739D01*
X153473063Y-119621197D01*
X153462377Y-119611995D01*
X153452812Y-119616398D01*
X152712022Y-120357188D01*
X152704408Y-120371132D01*
X151974356Y-120371132D01*
X151975592Y-120368868D01*
X151975461Y-120367035D01*
X151971210Y-120360420D01*
X151229849Y-119619059D01*
X151218313Y-119612759D01*
X151206028Y-119622384D01*
X151173192Y-119670520D01*
X151118281Y-119715523D01*
X151047756Y-119723694D01*
X150984009Y-119692440D01*
X150963311Y-119667955D01*
X150933062Y-119621197D01*
X150922377Y-119611995D01*
X150912812Y-119616398D01*
X150172022Y-120357188D01*
X150164408Y-120371132D01*
X149434356Y-120371132D01*
X149435592Y-120368868D01*
X149435461Y-120367035D01*
X149431210Y-120360420D01*
X148689849Y-119619059D01*
X148678313Y-119612759D01*
X148666028Y-119622384D01*
X148633192Y-119670520D01*
X148578281Y-119715523D01*
X148507756Y-119723694D01*
X148444009Y-119692440D01*
X148423311Y-119667955D01*
X148393062Y-119621197D01*
X148382377Y-119611995D01*
X148372812Y-119616398D01*
X147632022Y-120357188D01*
X147624408Y-120371132D01*
X146894356Y-120371132D01*
X146895592Y-120368868D01*
X146895461Y-120367035D01*
X146891210Y-120360420D01*
X146149849Y-119619059D01*
X146138313Y-119612759D01*
X146126028Y-119622384D01*
X146093192Y-119670520D01*
X146038281Y-119715523D01*
X145967756Y-119723694D01*
X145904009Y-119692440D01*
X145883311Y-119667955D01*
X145853062Y-119621197D01*
X145842377Y-119611995D01*
X145832812Y-119616398D01*
X145092022Y-120357188D01*
X145084408Y-120371132D01*
X144354356Y-120371132D01*
X144355592Y-120368868D01*
X144355461Y-120367035D01*
X144351210Y-120360420D01*
X143609849Y-119619059D01*
X143598313Y-119612759D01*
X143586031Y-119622382D01*
X143538089Y-119692662D01*
X143533004Y-119701613D01*
X143443338Y-119894783D01*
X143439775Y-119904470D01*
X143382864Y-120109681D01*
X143380934Y-120119796D01*
X143358302Y-120331574D01*
X143358050Y-120341863D01*
X141150752Y-120341863D01*
X141134781Y-120147604D01*
X141133096Y-120137424D01*
X141081214Y-119930875D01*
X141077894Y-119921124D01*
X140992972Y-119725814D01*
X140988105Y-119716739D01*
X140923063Y-119616197D01*
X140912377Y-119606995D01*
X140902812Y-119611398D01*
X140162022Y-120352188D01*
X140154408Y-120366132D01*
X139424356Y-120366132D01*
X139425592Y-120363868D01*
X139425461Y-120362035D01*
X139421210Y-120355420D01*
X138679849Y-119614059D01*
X138668313Y-119607759D01*
X138656028Y-119617384D01*
X138623192Y-119665520D01*
X138568281Y-119710523D01*
X138497756Y-119718694D01*
X138434009Y-119687440D01*
X138413311Y-119662955D01*
X138383062Y-119616197D01*
X138372377Y-119606995D01*
X138362812Y-119611398D01*
X137622022Y-120352188D01*
X137614408Y-120366132D01*
X136884356Y-120366132D01*
X136885592Y-120363868D01*
X136885461Y-120362035D01*
X136881210Y-120355420D01*
X136139849Y-119614059D01*
X136128313Y-119607759D01*
X136116028Y-119617384D01*
X136083192Y-119665520D01*
X136028281Y-119710523D01*
X135957756Y-119718694D01*
X135894009Y-119687440D01*
X135873311Y-119662955D01*
X135843062Y-119616197D01*
X135832377Y-119606995D01*
X135822812Y-119611398D01*
X135082022Y-120352188D01*
X135074408Y-120366132D01*
X134344356Y-120366132D01*
X134345592Y-120363868D01*
X134345461Y-120362035D01*
X134341210Y-120355420D01*
X133599849Y-119614059D01*
X133588313Y-119607759D01*
X133576028Y-119617384D01*
X133543192Y-119665520D01*
X133488281Y-119710523D01*
X133417756Y-119718694D01*
X133354009Y-119687440D01*
X133333311Y-119662955D01*
X133303062Y-119616197D01*
X133292377Y-119606995D01*
X133282812Y-119611398D01*
X132542022Y-120352188D01*
X132534408Y-120366132D01*
X131804356Y-120366132D01*
X131805592Y-120363868D01*
X131805461Y-120362035D01*
X131801210Y-120355420D01*
X131059849Y-119614059D01*
X131048313Y-119607759D01*
X131036031Y-119617382D01*
X130988089Y-119687662D01*
X130983004Y-119696613D01*
X130893338Y-119889783D01*
X130889775Y-119899470D01*
X130832864Y-120104681D01*
X130830933Y-120114800D01*
X130808302Y-120326574D01*
X130808050Y-120336863D01*
X125751996Y-120336863D01*
X125745020Y-120315392D01*
X125745020Y-120315391D01*
X125743794Y-120311619D01*
X125740583Y-120304794D01*
X125664148Y-120142361D01*
X125614758Y-120037402D01*
X125591315Y-120000461D01*
X125527422Y-119899783D01*
X125452370Y-119781520D01*
X125398779Y-119716739D01*
X125378860Y-119692662D01*
X125259192Y-119548008D01*
X125085349Y-119384759D01*
X125041158Y-119343261D01*
X125041157Y-119343261D01*
X125038271Y-119340550D01*
X124793090Y-119162416D01*
X124759647Y-119144030D01*
X124530986Y-119018322D01*
X124530985Y-119018321D01*
X124527517Y-119016415D01*
X124523848Y-119014962D01*
X124523843Y-119014960D01*
X124249409Y-118906304D01*
X124249408Y-118906304D01*
X124245739Y-118904851D01*
X123952200Y-118829484D01*
X123651530Y-118791500D01*
X123348470Y-118791500D01*
X123047800Y-118829484D01*
X122754261Y-118904851D01*
X122750592Y-118906304D01*
X122750591Y-118906304D01*
X122476157Y-119014960D01*
X122476152Y-119014962D01*
X122472483Y-119016415D01*
X122469015Y-119018321D01*
X122469014Y-119018322D01*
X122240354Y-119144030D01*
X122206910Y-119162416D01*
X121961729Y-119340550D01*
X121958843Y-119343261D01*
X121958842Y-119343261D01*
X121914651Y-119384759D01*
X121740808Y-119548008D01*
X121621140Y-119692662D01*
X121601222Y-119716739D01*
X121547630Y-119781520D01*
X121472578Y-119899783D01*
X121408686Y-120000461D01*
X121385242Y-120037402D01*
X121318763Y-120178678D01*
X121293460Y-120232450D01*
X121246358Y-120285571D01*
X121178013Y-120304794D01*
X121110125Y-120284015D01*
X121064248Y-120229832D01*
X121053452Y-120178678D01*
X121053483Y-120147604D01*
X121062164Y-111292464D01*
X121082233Y-111224364D01*
X121135934Y-111177924D01*
X121206218Y-111167889D01*
X121270770Y-111197445D01*
X121277259Y-111203494D01*
X123443145Y-113369379D01*
X123452247Y-113379522D01*
X123475968Y-113409025D01*
X123480696Y-113412992D01*
X123514421Y-113441291D01*
X123518069Y-113444472D01*
X123519881Y-113446115D01*
X123522075Y-113448309D01*
X123555349Y-113475642D01*
X123556147Y-113476304D01*
X123627474Y-113536154D01*
X123632144Y-113538722D01*
X123636261Y-113542103D01*
X123694145Y-113573140D01*
X123718086Y-113585977D01*
X123719245Y-113586606D01*
X123795381Y-113628462D01*
X123795389Y-113628465D01*
X123800787Y-113631433D01*
X123805869Y-113633045D01*
X123810563Y-113635562D01*
X123816454Y-113637363D01*
X123899477Y-113662747D01*
X123900735Y-113663139D01*
X123989306Y-113691235D01*
X123994597Y-113691829D01*
X123999698Y-113693388D01*
X124092263Y-113702790D01*
X124093450Y-113702916D01*
X124122838Y-113706213D01*
X124139730Y-113708108D01*
X124139735Y-113708108D01*
X124143227Y-113708500D01*
X124146752Y-113708500D01*
X124147737Y-113708555D01*
X124153432Y-113709003D01*
X124165342Y-113710213D01*
X124190334Y-113712752D01*
X124190339Y-113712752D01*
X124196462Y-113713374D01*
X124242108Y-113709059D01*
X124253967Y-113708500D01*
X131834633Y-113708500D01*
X131902754Y-113728502D01*
X131949247Y-113782158D01*
X131959351Y-113852432D01*
X131929857Y-113917012D01*
X131863833Y-113957070D01*
X131859204Y-113958173D01*
X131854091Y-113958955D01*
X131849178Y-113960561D01*
X131849173Y-113960562D01*
X131747923Y-113993656D01*
X131641756Y-114028357D01*
X131443607Y-114131507D01*
X131439474Y-114134610D01*
X131439471Y-114134612D01*
X131269100Y-114262530D01*
X131264965Y-114265635D01*
X131110629Y-114427138D01*
X130984743Y-114611680D01*
X130890688Y-114814305D01*
X130830989Y-115029570D01*
X130807251Y-115251695D01*
X130807548Y-115256848D01*
X130807548Y-115256851D01*
X130813011Y-115351590D01*
X130820110Y-115474715D01*
X130821247Y-115479761D01*
X130821248Y-115479767D01*
X130822375Y-115484767D01*
X130869222Y-115692639D01*
X130953266Y-115899616D01*
X131004019Y-115982438D01*
X131067291Y-116085688D01*
X131069987Y-116090088D01*
X131216250Y-116258938D01*
X131388126Y-116401632D01*
X131396683Y-116406632D01*
X131461445Y-116444476D01*
X131510169Y-116496114D01*
X131523240Y-116565897D01*
X131496509Y-116631669D01*
X131456055Y-116665027D01*
X131443607Y-116671507D01*
X131439474Y-116674610D01*
X131439471Y-116674612D01*
X131343455Y-116746703D01*
X131264965Y-116805635D01*
X131240259Y-116831488D01*
X131152653Y-116923163D01*
X131110629Y-116967138D01*
X131107720Y-116971403D01*
X131107714Y-116971411D01*
X131095409Y-116989450D01*
X130984743Y-117151680D01*
X130966682Y-117190590D01*
X130894355Y-117346406D01*
X130890688Y-117354305D01*
X130830989Y-117569570D01*
X130807251Y-117791695D01*
X130807548Y-117796848D01*
X130807548Y-117796851D01*
X130813011Y-117891590D01*
X130820110Y-118014715D01*
X130821247Y-118019761D01*
X130821248Y-118019767D01*
X130822375Y-118024767D01*
X130869222Y-118232639D01*
X130953266Y-118439616D01*
X130996813Y-118510678D01*
X131067291Y-118625688D01*
X131069987Y-118630088D01*
X131216250Y-118798938D01*
X131388126Y-118941632D01*
X131401149Y-118949242D01*
X131461955Y-118984774D01*
X131510679Y-119036412D01*
X131523750Y-119106195D01*
X131497019Y-119171967D01*
X131456562Y-119205327D01*
X131448460Y-119209544D01*
X131439734Y-119215039D01*
X131419677Y-119230099D01*
X131411223Y-119241427D01*
X131417968Y-119253758D01*
X132157188Y-119992978D01*
X132171132Y-120000592D01*
X132172965Y-120000461D01*
X132179580Y-119996210D01*
X132923389Y-119252401D01*
X132930410Y-119239544D01*
X132923611Y-119230213D01*
X132919559Y-119227521D01*
X132882602Y-119207120D01*
X132832631Y-119156687D01*
X132817859Y-119087245D01*
X132842975Y-119020839D01*
X132870327Y-118994232D01*
X132933401Y-118949242D01*
X133049860Y-118866173D01*
X133086678Y-118829484D01*
X133134089Y-118782238D01*
X133208096Y-118708489D01*
X133267594Y-118625689D01*
X133338453Y-118527077D01*
X133339776Y-118528028D01*
X133386645Y-118484857D01*
X133456580Y-118472625D01*
X133522026Y-118500144D01*
X133549875Y-118531994D01*
X133609987Y-118630088D01*
X133756250Y-118798938D01*
X133928126Y-118941632D01*
X133941149Y-118949242D01*
X134001955Y-118984774D01*
X134050679Y-119036412D01*
X134063750Y-119106195D01*
X134037019Y-119171967D01*
X133996562Y-119205327D01*
X133988460Y-119209544D01*
X133979734Y-119215039D01*
X133959677Y-119230099D01*
X133951223Y-119241427D01*
X133957968Y-119253758D01*
X134697188Y-119992978D01*
X134711132Y-120000592D01*
X134712965Y-120000461D01*
X134719580Y-119996210D01*
X135463389Y-119252401D01*
X135470410Y-119239544D01*
X135463611Y-119230213D01*
X135459559Y-119227521D01*
X135422602Y-119207120D01*
X135372631Y-119156687D01*
X135357859Y-119087245D01*
X135382975Y-119020839D01*
X135410327Y-118994232D01*
X135473401Y-118949242D01*
X135589860Y-118866173D01*
X135626678Y-118829484D01*
X135674089Y-118782238D01*
X135748096Y-118708489D01*
X135807594Y-118625689D01*
X135878453Y-118527077D01*
X135879776Y-118528028D01*
X135926645Y-118484857D01*
X135996580Y-118472625D01*
X136062026Y-118500144D01*
X136089875Y-118531994D01*
X136149987Y-118630088D01*
X136296250Y-118798938D01*
X136468126Y-118941632D01*
X136481149Y-118949242D01*
X136541955Y-118984774D01*
X136590679Y-119036412D01*
X136603750Y-119106195D01*
X136577019Y-119171967D01*
X136536562Y-119205327D01*
X136528460Y-119209544D01*
X136519734Y-119215039D01*
X136499677Y-119230099D01*
X136491223Y-119241427D01*
X136497968Y-119253758D01*
X137237188Y-119992978D01*
X137251132Y-120000592D01*
X137252965Y-120000461D01*
X137259580Y-119996210D01*
X138003389Y-119252401D01*
X138010410Y-119239544D01*
X138003611Y-119230213D01*
X137999559Y-119227521D01*
X137962602Y-119207120D01*
X137912631Y-119156687D01*
X137897859Y-119087245D01*
X137922975Y-119020839D01*
X137950327Y-118994232D01*
X138013401Y-118949242D01*
X138129860Y-118866173D01*
X138166678Y-118829484D01*
X138214089Y-118782238D01*
X138288096Y-118708489D01*
X138347594Y-118625689D01*
X138418453Y-118527077D01*
X138419776Y-118528028D01*
X138466645Y-118484857D01*
X138536580Y-118472625D01*
X138602026Y-118500144D01*
X138629875Y-118531994D01*
X138689987Y-118630088D01*
X138836250Y-118798938D01*
X139008126Y-118941632D01*
X139021149Y-118949242D01*
X139081955Y-118984774D01*
X139130679Y-119036412D01*
X139143750Y-119106195D01*
X139117019Y-119171967D01*
X139076562Y-119205327D01*
X139068460Y-119209544D01*
X139059734Y-119215039D01*
X139039677Y-119230099D01*
X139031223Y-119241427D01*
X139037968Y-119253758D01*
X139777188Y-119992978D01*
X139791132Y-120000592D01*
X139792965Y-120000461D01*
X139799580Y-119996210D01*
X140543389Y-119252401D01*
X140550410Y-119239544D01*
X140543611Y-119230213D01*
X140539559Y-119227521D01*
X140502602Y-119207120D01*
X140452631Y-119156687D01*
X140437859Y-119087245D01*
X140462975Y-119020839D01*
X140490327Y-118994232D01*
X140553401Y-118949242D01*
X140669860Y-118866173D01*
X140706678Y-118829484D01*
X140754089Y-118782238D01*
X140828096Y-118708489D01*
X140887594Y-118625689D01*
X140955435Y-118531277D01*
X140958453Y-118527077D01*
X140979320Y-118484857D01*
X141055136Y-118331453D01*
X141055137Y-118331451D01*
X141057430Y-118326811D01*
X141122370Y-118113069D01*
X141151529Y-117891590D01*
X141153156Y-117825000D01*
X141134852Y-117602361D01*
X141080431Y-117385702D01*
X140991354Y-117180840D01*
X140879291Y-117007617D01*
X140872822Y-116997617D01*
X140872820Y-116997614D01*
X140870014Y-116993277D01*
X140719670Y-116828051D01*
X140715619Y-116824852D01*
X140715615Y-116824848D01*
X140548414Y-116692800D01*
X140548410Y-116692798D01*
X140544359Y-116689598D01*
X140503053Y-116666796D01*
X140453084Y-116616364D01*
X140438312Y-116546921D01*
X140463428Y-116480516D01*
X140490780Y-116453909D01*
X140557060Y-116406632D01*
X140669860Y-116326173D01*
X140828096Y-116168489D01*
X140887594Y-116085689D01*
X140955435Y-115991277D01*
X140958453Y-115987077D01*
X140979320Y-115944857D01*
X141055136Y-115791453D01*
X141055137Y-115791451D01*
X141057430Y-115786811D01*
X141122370Y-115573069D01*
X141151529Y-115351590D01*
X141153156Y-115285000D01*
X141134852Y-115062361D01*
X141080431Y-114845702D01*
X140991354Y-114640840D01*
X140951906Y-114579862D01*
X140872822Y-114457617D01*
X140872820Y-114457614D01*
X140870014Y-114453277D01*
X140719670Y-114288051D01*
X140715619Y-114284852D01*
X140715615Y-114284848D01*
X140548414Y-114152800D01*
X140548410Y-114152798D01*
X140544359Y-114149598D01*
X140526270Y-114139612D01*
X140492136Y-114120769D01*
X140348789Y-114041638D01*
X140343920Y-114039914D01*
X140343916Y-114039912D01*
X140143087Y-113968795D01*
X140143083Y-113968794D01*
X140138212Y-113967069D01*
X140133119Y-113966162D01*
X140133116Y-113966161D01*
X140090370Y-113958547D01*
X140026812Y-113926909D01*
X139990449Y-113865932D01*
X139992826Y-113794975D01*
X140033187Y-113736567D01*
X140098719Y-113709252D01*
X140112466Y-113708500D01*
X144417087Y-113708500D01*
X144485208Y-113728502D01*
X144531701Y-113782158D01*
X144541805Y-113852432D01*
X144512311Y-113917012D01*
X144452585Y-113955396D01*
X144436145Y-113959050D01*
X144409205Y-113963172D01*
X144409200Y-113963173D01*
X144404091Y-113963955D01*
X144191756Y-114033357D01*
X143993607Y-114136507D01*
X143989474Y-114139610D01*
X143989471Y-114139612D01*
X143821624Y-114265635D01*
X143814965Y-114270635D01*
X143660629Y-114432138D01*
X143534743Y-114616680D01*
X143440688Y-114819305D01*
X143380989Y-115034570D01*
X143357251Y-115256695D01*
X143357548Y-115261848D01*
X143357548Y-115261851D01*
X143362914Y-115354908D01*
X143370110Y-115479715D01*
X143371247Y-115484761D01*
X143371248Y-115484767D01*
X143392265Y-115578023D01*
X143419222Y-115697639D01*
X143503266Y-115904616D01*
X143550955Y-115982438D01*
X143617291Y-116090688D01*
X143619987Y-116095088D01*
X143766250Y-116263938D01*
X143841213Y-116326173D01*
X143928123Y-116398327D01*
X143938126Y-116406632D01*
X144002889Y-116444476D01*
X144011445Y-116449476D01*
X144060169Y-116501114D01*
X144073240Y-116570897D01*
X144046509Y-116636669D01*
X144006055Y-116670027D01*
X143993607Y-116676507D01*
X143989474Y-116679610D01*
X143989471Y-116679612D01*
X143821624Y-116805635D01*
X143814965Y-116810635D01*
X143789894Y-116836870D01*
X143692898Y-116938371D01*
X143660629Y-116972138D01*
X143657720Y-116976403D01*
X143657714Y-116976411D01*
X143648815Y-116989457D01*
X143534743Y-117156680D01*
X143440688Y-117359305D01*
X143380989Y-117574570D01*
X143357251Y-117796695D01*
X143357548Y-117801848D01*
X143357548Y-117801851D01*
X143362914Y-117894908D01*
X143370110Y-118019715D01*
X143371247Y-118024761D01*
X143371248Y-118024767D01*
X143392265Y-118118023D01*
X143419222Y-118237639D01*
X143503266Y-118444616D01*
X143543749Y-118510678D01*
X143617291Y-118630688D01*
X143619987Y-118635088D01*
X143766250Y-118803938D01*
X143889551Y-118906304D01*
X143928123Y-118938327D01*
X143938126Y-118946632D01*
X144011955Y-118989774D01*
X144060679Y-119041412D01*
X144073750Y-119111195D01*
X144047019Y-119176967D01*
X144006562Y-119210327D01*
X143998460Y-119214544D01*
X143989734Y-119220039D01*
X143969677Y-119235099D01*
X143961223Y-119246427D01*
X143967968Y-119258758D01*
X144707188Y-119997978D01*
X144721132Y-120005592D01*
X144722965Y-120005461D01*
X144729580Y-120001210D01*
X145473389Y-119257401D01*
X145480410Y-119244544D01*
X145473611Y-119235213D01*
X145469559Y-119232521D01*
X145432602Y-119212120D01*
X145382631Y-119161687D01*
X145367859Y-119092245D01*
X145392975Y-119025839D01*
X145420327Y-118999232D01*
X145487060Y-118951632D01*
X145599860Y-118871173D01*
X145640707Y-118830469D01*
X145703073Y-118768320D01*
X145758096Y-118713489D01*
X145815222Y-118633990D01*
X145888453Y-118532077D01*
X145889776Y-118533028D01*
X145936645Y-118489857D01*
X146006580Y-118477625D01*
X146072026Y-118505144D01*
X146099875Y-118536994D01*
X146159987Y-118635088D01*
X146306250Y-118803938D01*
X146429551Y-118906304D01*
X146468123Y-118938327D01*
X146478126Y-118946632D01*
X146551955Y-118989774D01*
X146600679Y-119041412D01*
X146613750Y-119111195D01*
X146587019Y-119176967D01*
X146546562Y-119210327D01*
X146538460Y-119214544D01*
X146529734Y-119220039D01*
X146509677Y-119235099D01*
X146501223Y-119246427D01*
X146507968Y-119258758D01*
X147247188Y-119997978D01*
X147261132Y-120005592D01*
X147262965Y-120005461D01*
X147269580Y-120001210D01*
X148013389Y-119257401D01*
X148020410Y-119244544D01*
X148013611Y-119235213D01*
X148009559Y-119232521D01*
X147972602Y-119212120D01*
X147922631Y-119161687D01*
X147907859Y-119092245D01*
X147932975Y-119025839D01*
X147960327Y-118999232D01*
X148027060Y-118951632D01*
X148139860Y-118871173D01*
X148180707Y-118830469D01*
X148243073Y-118768320D01*
X148298096Y-118713489D01*
X148355222Y-118633990D01*
X148428453Y-118532077D01*
X148429776Y-118533028D01*
X148476645Y-118489857D01*
X148546580Y-118477625D01*
X148612026Y-118505144D01*
X148639875Y-118536994D01*
X148699987Y-118635088D01*
X148846250Y-118803938D01*
X148969551Y-118906304D01*
X149008123Y-118938327D01*
X149018126Y-118946632D01*
X149091955Y-118989774D01*
X149140679Y-119041412D01*
X149153750Y-119111195D01*
X149127019Y-119176967D01*
X149086562Y-119210327D01*
X149078460Y-119214544D01*
X149069734Y-119220039D01*
X149049677Y-119235099D01*
X149041223Y-119246427D01*
X149047968Y-119258758D01*
X149787188Y-119997978D01*
X149801132Y-120005592D01*
X149802965Y-120005461D01*
X149809580Y-120001210D01*
X150553389Y-119257401D01*
X150560410Y-119244544D01*
X150553611Y-119235213D01*
X150549559Y-119232521D01*
X150512602Y-119212120D01*
X150462631Y-119161687D01*
X150447859Y-119092245D01*
X150472975Y-119025839D01*
X150500327Y-118999232D01*
X150567060Y-118951632D01*
X150679860Y-118871173D01*
X150720707Y-118830469D01*
X150783073Y-118768320D01*
X150838096Y-118713489D01*
X150895222Y-118633990D01*
X150968453Y-118532077D01*
X150969776Y-118533028D01*
X151016645Y-118489857D01*
X151086580Y-118477625D01*
X151152026Y-118505144D01*
X151179875Y-118536994D01*
X151239987Y-118635088D01*
X151386250Y-118803938D01*
X151509551Y-118906304D01*
X151548123Y-118938327D01*
X151558126Y-118946632D01*
X151631955Y-118989774D01*
X151680679Y-119041412D01*
X151693750Y-119111195D01*
X151667019Y-119176967D01*
X151626562Y-119210327D01*
X151618460Y-119214544D01*
X151609734Y-119220039D01*
X151589677Y-119235099D01*
X151581223Y-119246427D01*
X151587968Y-119258758D01*
X152327188Y-119997978D01*
X152341132Y-120005592D01*
X152342965Y-120005461D01*
X152349580Y-120001210D01*
X153093389Y-119257401D01*
X153100410Y-119244544D01*
X153093611Y-119235213D01*
X153089559Y-119232521D01*
X153052602Y-119212120D01*
X153002631Y-119161687D01*
X152987859Y-119092245D01*
X153012975Y-119025839D01*
X153040327Y-118999232D01*
X153107060Y-118951632D01*
X153219860Y-118871173D01*
X153260707Y-118830469D01*
X153323073Y-118768320D01*
X153378096Y-118713489D01*
X153435222Y-118633990D01*
X153505435Y-118536277D01*
X153508453Y-118532077D01*
X153529320Y-118489857D01*
X153605136Y-118336453D01*
X153605137Y-118336451D01*
X153607430Y-118331811D01*
X153672370Y-118118069D01*
X153701529Y-117896590D01*
X153703156Y-117830000D01*
X153684852Y-117607361D01*
X153630431Y-117390702D01*
X153541354Y-117185840D01*
X153500089Y-117122054D01*
X153422822Y-117002617D01*
X153422820Y-117002614D01*
X153420014Y-116998277D01*
X153269670Y-116833051D01*
X153265619Y-116829852D01*
X153265615Y-116829848D01*
X153098414Y-116697800D01*
X153098410Y-116697798D01*
X153094359Y-116694598D01*
X153053053Y-116671796D01*
X153003084Y-116621364D01*
X152988312Y-116551921D01*
X153013428Y-116485516D01*
X153040780Y-116458909D01*
X153084603Y-116427650D01*
X153219860Y-116331173D01*
X153378096Y-116173489D01*
X153435222Y-116093990D01*
X153505435Y-115996277D01*
X153508453Y-115992077D01*
X153529320Y-115949857D01*
X153605136Y-115796453D01*
X153605137Y-115796451D01*
X153607430Y-115791811D01*
X153672370Y-115578069D01*
X153701529Y-115356590D01*
X153703156Y-115290000D01*
X153684852Y-115067361D01*
X153630431Y-114850702D01*
X153541354Y-114645840D01*
X153420014Y-114458277D01*
X153269670Y-114293051D01*
X153265619Y-114289852D01*
X153265615Y-114289848D01*
X153098414Y-114157800D01*
X153098410Y-114157798D01*
X153094359Y-114154598D01*
X153085302Y-114149598D01*
X152957266Y-114078919D01*
X152898789Y-114046638D01*
X152893920Y-114044914D01*
X152893916Y-114044912D01*
X152693087Y-113973795D01*
X152693083Y-113973794D01*
X152688212Y-113972069D01*
X152683119Y-113971162D01*
X152683116Y-113971161D01*
X152612300Y-113958547D01*
X152548742Y-113926909D01*
X152512379Y-113865932D01*
X152514756Y-113794975D01*
X152555117Y-113736567D01*
X152620649Y-113709252D01*
X152634396Y-113708500D01*
X153530075Y-113708500D01*
X153598196Y-113728502D01*
X153619170Y-113745405D01*
X155004595Y-115130830D01*
X155038621Y-115193142D01*
X155041500Y-115219925D01*
X155041500Y-116183134D01*
X155048255Y-116245316D01*
X155099385Y-116381705D01*
X155186739Y-116498261D01*
X155303295Y-116585615D01*
X155311704Y-116588767D01*
X155311705Y-116588768D01*
X155420451Y-116629535D01*
X155477216Y-116672176D01*
X155501916Y-116738738D01*
X155486709Y-116808087D01*
X155467316Y-116834568D01*
X155382653Y-116923163D01*
X155340629Y-116967138D01*
X155337720Y-116971403D01*
X155337714Y-116971411D01*
X155325409Y-116989450D01*
X155214743Y-117151680D01*
X155196682Y-117190590D01*
X155124355Y-117346406D01*
X155120688Y-117354305D01*
X155060989Y-117569570D01*
X155037251Y-117791695D01*
X155037548Y-117796848D01*
X155037548Y-117796851D01*
X155043011Y-117891590D01*
X155050110Y-118014715D01*
X155051247Y-118019761D01*
X155051248Y-118019767D01*
X155052375Y-118024767D01*
X155099222Y-118232639D01*
X155183266Y-118439616D01*
X155226813Y-118510678D01*
X155297291Y-118625688D01*
X155299987Y-118630088D01*
X155446250Y-118798938D01*
X155618126Y-118941632D01*
X155631149Y-118949242D01*
X155691445Y-118984476D01*
X155740169Y-119036114D01*
X155753240Y-119105897D01*
X155726509Y-119171669D01*
X155686055Y-119205027D01*
X155673607Y-119211507D01*
X155669474Y-119214610D01*
X155669471Y-119214612D01*
X155499100Y-119342530D01*
X155494965Y-119345635D01*
X155340629Y-119507138D01*
X155214743Y-119691680D01*
X155120688Y-119894305D01*
X155060989Y-120109570D01*
X155060440Y-120114707D01*
X155059456Y-120123913D01*
X155037251Y-120331695D01*
X155037548Y-120336848D01*
X155037548Y-120336851D01*
X155043011Y-120431590D01*
X155050110Y-120554715D01*
X155051247Y-120559761D01*
X155051248Y-120559767D01*
X155071119Y-120647939D01*
X155099222Y-120772639D01*
X155183266Y-120979616D01*
X155299987Y-121170088D01*
X155446250Y-121338938D01*
X155618126Y-121481632D01*
X155811000Y-121594338D01*
X155815825Y-121596180D01*
X155815826Y-121596181D01*
X155840830Y-121605729D01*
X156019692Y-121674030D01*
X156024760Y-121675061D01*
X156024763Y-121675062D01*
X156129604Y-121696392D01*
X156238597Y-121718567D01*
X156243772Y-121718757D01*
X156243774Y-121718757D01*
X156456673Y-121726564D01*
X156456677Y-121726564D01*
X156461837Y-121726753D01*
X156466957Y-121726097D01*
X156466959Y-121726097D01*
X156678288Y-121699025D01*
X156678289Y-121699025D01*
X156683416Y-121698368D01*
X156688366Y-121696883D01*
X156892429Y-121635661D01*
X156892434Y-121635659D01*
X156897384Y-121634174D01*
X157097994Y-121535896D01*
X157279860Y-121406173D01*
X157438096Y-121248489D01*
X157497594Y-121165689D01*
X157562028Y-121076019D01*
X157568453Y-121067077D01*
X157570874Y-121062180D01*
X157665136Y-120871453D01*
X157665137Y-120871451D01*
X157667430Y-120866811D01*
X157732370Y-120653069D01*
X157733700Y-120642966D01*
X159148257Y-120642966D01*
X159178565Y-120777446D01*
X159181645Y-120787275D01*
X159261770Y-120984603D01*
X159266413Y-120993794D01*
X159377694Y-121175388D01*
X159383777Y-121183699D01*
X159523213Y-121344667D01*
X159530580Y-121351883D01*
X159694434Y-121487916D01*
X159702881Y-121493831D01*
X159886756Y-121601279D01*
X159896042Y-121605729D01*
X160095001Y-121681703D01*
X160104899Y-121684579D01*
X160208250Y-121705606D01*
X160222299Y-121704410D01*
X160226000Y-121694065D01*
X160226000Y-121693517D01*
X160734000Y-121693517D01*
X160738064Y-121707359D01*
X160751478Y-121709393D01*
X160758184Y-121708534D01*
X160768262Y-121706392D01*
X160972255Y-121645191D01*
X160981842Y-121641433D01*
X161173095Y-121547739D01*
X161181945Y-121542464D01*
X161355328Y-121418792D01*
X161363200Y-121412139D01*
X161514052Y-121261812D01*
X161520730Y-121253965D01*
X161648022Y-121076819D01*
X161649147Y-121077627D01*
X161696669Y-121033876D01*
X161766607Y-121021661D01*
X161832046Y-121049197D01*
X161859870Y-121081028D01*
X161917690Y-121175383D01*
X161923777Y-121183699D01*
X162063213Y-121344667D01*
X162070580Y-121351883D01*
X162234434Y-121487916D01*
X162242881Y-121493831D01*
X162426756Y-121601279D01*
X162436042Y-121605729D01*
X162635001Y-121681703D01*
X162644899Y-121684579D01*
X162748250Y-121705606D01*
X162762299Y-121704410D01*
X162766000Y-121694065D01*
X162766000Y-121693517D01*
X163274000Y-121693517D01*
X163278064Y-121707359D01*
X163291478Y-121709393D01*
X163298184Y-121708534D01*
X163308262Y-121706392D01*
X163512255Y-121645191D01*
X163521842Y-121641433D01*
X163713095Y-121547739D01*
X163721945Y-121542464D01*
X163895328Y-121418792D01*
X163903200Y-121412139D01*
X164054052Y-121261812D01*
X164060730Y-121253965D01*
X164188022Y-121076819D01*
X164189147Y-121077627D01*
X164236669Y-121033876D01*
X164306607Y-121021661D01*
X164372046Y-121049197D01*
X164399870Y-121081028D01*
X164457690Y-121175383D01*
X164463777Y-121183699D01*
X164603213Y-121344667D01*
X164610580Y-121351883D01*
X164774434Y-121487916D01*
X164782881Y-121493831D01*
X164966756Y-121601279D01*
X164976042Y-121605729D01*
X165175001Y-121681703D01*
X165184899Y-121684579D01*
X165288250Y-121705606D01*
X165302299Y-121704410D01*
X165306000Y-121694065D01*
X165306000Y-121693517D01*
X165814000Y-121693517D01*
X165818064Y-121707359D01*
X165831478Y-121709393D01*
X165838184Y-121708534D01*
X165848262Y-121706392D01*
X166052255Y-121645191D01*
X166061842Y-121641433D01*
X166253095Y-121547739D01*
X166261945Y-121542464D01*
X166435328Y-121418792D01*
X166443200Y-121412139D01*
X166594052Y-121261812D01*
X166600730Y-121253965D01*
X166728022Y-121076819D01*
X166729147Y-121077627D01*
X166776669Y-121033876D01*
X166846607Y-121021661D01*
X166912046Y-121049197D01*
X166939870Y-121081028D01*
X166997690Y-121175383D01*
X167003777Y-121183699D01*
X167143213Y-121344667D01*
X167150580Y-121351883D01*
X167314434Y-121487916D01*
X167322881Y-121493831D01*
X167506756Y-121601279D01*
X167516042Y-121605729D01*
X167715001Y-121681703D01*
X167724899Y-121684579D01*
X167828250Y-121705606D01*
X167842299Y-121704410D01*
X167846000Y-121694065D01*
X167846000Y-121693517D01*
X168354000Y-121693517D01*
X168358064Y-121707359D01*
X168371478Y-121709393D01*
X168378184Y-121708534D01*
X168388262Y-121706392D01*
X168592255Y-121645191D01*
X168601842Y-121641433D01*
X168793095Y-121547739D01*
X168801945Y-121542464D01*
X168975328Y-121418792D01*
X168983200Y-121412139D01*
X169134052Y-121261812D01*
X169140730Y-121253965D01*
X169265003Y-121081020D01*
X169270313Y-121072183D01*
X169364670Y-120881267D01*
X169368469Y-120871672D01*
X169430377Y-120667910D01*
X169432555Y-120657837D01*
X169433986Y-120646962D01*
X169431775Y-120632778D01*
X169418617Y-120629000D01*
X168372115Y-120629000D01*
X168356876Y-120633475D01*
X168355671Y-120634865D01*
X168354000Y-120642548D01*
X168354000Y-121693517D01*
X167846000Y-121693517D01*
X167846000Y-120647115D01*
X167841525Y-120631876D01*
X167840135Y-120630671D01*
X167832452Y-120629000D01*
X165832115Y-120629000D01*
X165816876Y-120633475D01*
X165815671Y-120634865D01*
X165814000Y-120642548D01*
X165814000Y-121693517D01*
X165306000Y-121693517D01*
X165306000Y-120647115D01*
X165301525Y-120631876D01*
X165300135Y-120630671D01*
X165292452Y-120629000D01*
X163292115Y-120629000D01*
X163276876Y-120633475D01*
X163275671Y-120634865D01*
X163274000Y-120642548D01*
X163274000Y-121693517D01*
X162766000Y-121693517D01*
X162766000Y-120647115D01*
X162761525Y-120631876D01*
X162760135Y-120630671D01*
X162752452Y-120629000D01*
X160752115Y-120629000D01*
X160736876Y-120633475D01*
X160735671Y-120634865D01*
X160734000Y-120642548D01*
X160734000Y-121693517D01*
X160226000Y-121693517D01*
X160226000Y-120647115D01*
X160221525Y-120631876D01*
X160220135Y-120630671D01*
X160212452Y-120629000D01*
X159163225Y-120629000D01*
X159149694Y-120632973D01*
X159148257Y-120642966D01*
X157733700Y-120642966D01*
X157761529Y-120431590D01*
X157762224Y-120403165D01*
X157763074Y-120368365D01*
X157763074Y-120368361D01*
X157763156Y-120365000D01*
X157744852Y-120142361D01*
X157690431Y-119925702D01*
X157601354Y-119720840D01*
X157534424Y-119617382D01*
X157482822Y-119537617D01*
X157482820Y-119537614D01*
X157480014Y-119533277D01*
X157329670Y-119368051D01*
X157325619Y-119364852D01*
X157325615Y-119364848D01*
X157158414Y-119232800D01*
X157158410Y-119232798D01*
X157154359Y-119229598D01*
X157113053Y-119206796D01*
X157063084Y-119156364D01*
X157048312Y-119086921D01*
X157073428Y-119020516D01*
X157100780Y-118993909D01*
X157167060Y-118946632D01*
X157279860Y-118866173D01*
X157316678Y-118829484D01*
X157364089Y-118782238D01*
X157438096Y-118708489D01*
X157497594Y-118625689D01*
X157565435Y-118531277D01*
X157568453Y-118527077D01*
X157589320Y-118484857D01*
X157665136Y-118331453D01*
X157665137Y-118331451D01*
X157667430Y-118326811D01*
X157732370Y-118113069D01*
X157761529Y-117891590D01*
X157763156Y-117825000D01*
X157761240Y-117801695D01*
X159117251Y-117801695D01*
X159117548Y-117806848D01*
X159117548Y-117806851D01*
X159122914Y-117899908D01*
X159130110Y-118024715D01*
X159131247Y-118029761D01*
X159131248Y-118029767D01*
X159152265Y-118123023D01*
X159179222Y-118242639D01*
X159215431Y-118331811D01*
X159257262Y-118434829D01*
X159263266Y-118449616D01*
X159300685Y-118510678D01*
X159377291Y-118635688D01*
X159379987Y-118640088D01*
X159526250Y-118808938D01*
X159598801Y-118869171D01*
X159688123Y-118943327D01*
X159698126Y-118951632D01*
X159770475Y-118993909D01*
X159771955Y-118994774D01*
X159820679Y-119046412D01*
X159833750Y-119116195D01*
X159807019Y-119181967D01*
X159766562Y-119215327D01*
X159758457Y-119219546D01*
X159749738Y-119225036D01*
X159579433Y-119352905D01*
X159571726Y-119359748D01*
X159424590Y-119513717D01*
X159418104Y-119521727D01*
X159298098Y-119697649D01*
X159293000Y-119706623D01*
X159203338Y-119899783D01*
X159199775Y-119909470D01*
X159144389Y-120109183D01*
X159145912Y-120117607D01*
X159158292Y-120121000D01*
X169418344Y-120121000D01*
X169431875Y-120117027D01*
X169433180Y-120107947D01*
X169391214Y-119940875D01*
X169387894Y-119931124D01*
X169302972Y-119735814D01*
X169298105Y-119726739D01*
X169182426Y-119547926D01*
X169176136Y-119539757D01*
X169032293Y-119381677D01*
X169001241Y-119317831D01*
X169009635Y-119247333D01*
X169054812Y-119192564D01*
X169081256Y-119178895D01*
X169174258Y-119144030D01*
X169196705Y-119135615D01*
X169313261Y-119048261D01*
X169400615Y-118931705D01*
X169451745Y-118795316D01*
X169458500Y-118733134D01*
X169458500Y-116936866D01*
X169451745Y-116874684D01*
X169400615Y-116738295D01*
X169313261Y-116621739D01*
X169196705Y-116534385D01*
X169060316Y-116483255D01*
X168998134Y-116476500D01*
X167201866Y-116476500D01*
X167139684Y-116483255D01*
X167003295Y-116534385D01*
X166886739Y-116621739D01*
X166799385Y-116738295D01*
X166796233Y-116746703D01*
X166754919Y-116856907D01*
X166712277Y-116913671D01*
X166645716Y-116938371D01*
X166576367Y-116923163D01*
X166543743Y-116897476D01*
X166493151Y-116841875D01*
X166493142Y-116841866D01*
X166489670Y-116838051D01*
X166485619Y-116834852D01*
X166485615Y-116834848D01*
X166318414Y-116702800D01*
X166318410Y-116702798D01*
X166314359Y-116699598D01*
X166305302Y-116694598D01*
X166210699Y-116642375D01*
X166118789Y-116591638D01*
X166113920Y-116589914D01*
X166113916Y-116589912D01*
X165913087Y-116518795D01*
X165913083Y-116518794D01*
X165908212Y-116517069D01*
X165903119Y-116516162D01*
X165903116Y-116516161D01*
X165693373Y-116478800D01*
X165693367Y-116478799D01*
X165688284Y-116477894D01*
X165614452Y-116476992D01*
X165470081Y-116475228D01*
X165470079Y-116475228D01*
X165464911Y-116475165D01*
X165244091Y-116508955D01*
X165031756Y-116578357D01*
X165001443Y-116594137D01*
X164851532Y-116672176D01*
X164833607Y-116681507D01*
X164829474Y-116684610D01*
X164829471Y-116684612D01*
X164665018Y-116808087D01*
X164654965Y-116815635D01*
X164615525Y-116856907D01*
X164561280Y-116913671D01*
X164500629Y-116977138D01*
X164393201Y-117134621D01*
X164338293Y-117179621D01*
X164267768Y-117187792D01*
X164204021Y-117156538D01*
X164183324Y-117132054D01*
X164102822Y-117007617D01*
X164102820Y-117007614D01*
X164100014Y-117003277D01*
X163949670Y-116838051D01*
X163945619Y-116834852D01*
X163945615Y-116834848D01*
X163778414Y-116702800D01*
X163778410Y-116702798D01*
X163774359Y-116699598D01*
X163765302Y-116694598D01*
X163670699Y-116642375D01*
X163578789Y-116591638D01*
X163573920Y-116589914D01*
X163573916Y-116589912D01*
X163373087Y-116518795D01*
X163373083Y-116518794D01*
X163368212Y-116517069D01*
X163363119Y-116516162D01*
X163363116Y-116516161D01*
X163153373Y-116478800D01*
X163153367Y-116478799D01*
X163148284Y-116477894D01*
X163074452Y-116476992D01*
X162930081Y-116475228D01*
X162930079Y-116475228D01*
X162924911Y-116475165D01*
X162704091Y-116508955D01*
X162491756Y-116578357D01*
X162461443Y-116594137D01*
X162311532Y-116672176D01*
X162293607Y-116681507D01*
X162289474Y-116684610D01*
X162289471Y-116684612D01*
X162125018Y-116808087D01*
X162114965Y-116815635D01*
X162075525Y-116856907D01*
X162021280Y-116913671D01*
X161960629Y-116977138D01*
X161853201Y-117134621D01*
X161798293Y-117179621D01*
X161727768Y-117187792D01*
X161664021Y-117156538D01*
X161643324Y-117132054D01*
X161562822Y-117007617D01*
X161562820Y-117007614D01*
X161560014Y-117003277D01*
X161409670Y-116838051D01*
X161405619Y-116834852D01*
X161405615Y-116834848D01*
X161238414Y-116702800D01*
X161238410Y-116702798D01*
X161234359Y-116699598D01*
X161225302Y-116694598D01*
X161130699Y-116642375D01*
X161038789Y-116591638D01*
X161033920Y-116589914D01*
X161033916Y-116589912D01*
X160833087Y-116518795D01*
X160833083Y-116518794D01*
X160828212Y-116517069D01*
X160823119Y-116516162D01*
X160823116Y-116516161D01*
X160613373Y-116478800D01*
X160613367Y-116478799D01*
X160608284Y-116477894D01*
X160534452Y-116476992D01*
X160390081Y-116475228D01*
X160390079Y-116475228D01*
X160384911Y-116475165D01*
X160164091Y-116508955D01*
X159951756Y-116578357D01*
X159921443Y-116594137D01*
X159771532Y-116672176D01*
X159753607Y-116681507D01*
X159749474Y-116684610D01*
X159749471Y-116684612D01*
X159585018Y-116808087D01*
X159574965Y-116815635D01*
X159535525Y-116856907D01*
X159481280Y-116913671D01*
X159420629Y-116977138D01*
X159417720Y-116981403D01*
X159417714Y-116981411D01*
X159409620Y-116993277D01*
X159294743Y-117161680D01*
X159247715Y-117262993D01*
X159203013Y-117359297D01*
X159200688Y-117364305D01*
X159140989Y-117579570D01*
X159117251Y-117801695D01*
X157761240Y-117801695D01*
X157744852Y-117602361D01*
X157690431Y-117385702D01*
X157601354Y-117180840D01*
X157489291Y-117007617D01*
X157482822Y-116997617D01*
X157482820Y-116997614D01*
X157480014Y-116993277D01*
X157469217Y-116981411D01*
X157332798Y-116831488D01*
X157301746Y-116767642D01*
X157310141Y-116697143D01*
X157355317Y-116642375D01*
X157381761Y-116628706D01*
X157488297Y-116588767D01*
X157496705Y-116585615D01*
X157613261Y-116498261D01*
X157700615Y-116381705D01*
X157751745Y-116245316D01*
X157758500Y-116183134D01*
X157758500Y-114386866D01*
X157751745Y-114324684D01*
X157700615Y-114188295D01*
X157613261Y-114071739D01*
X157496705Y-113984385D01*
X157360316Y-113933255D01*
X157298134Y-113926500D01*
X156704924Y-113926500D01*
X156636803Y-113906498D01*
X156615829Y-113889595D01*
X154756855Y-112030621D01*
X154747753Y-112020478D01*
X154727897Y-111995782D01*
X154724032Y-111990975D01*
X154685578Y-111958708D01*
X154681931Y-111955528D01*
X154680119Y-111953885D01*
X154677925Y-111951691D01*
X154644651Y-111924358D01*
X154643853Y-111923696D01*
X154572526Y-111863846D01*
X154567856Y-111861278D01*
X154563739Y-111857897D01*
X154481914Y-111814023D01*
X154480755Y-111813394D01*
X154404619Y-111771538D01*
X154404611Y-111771535D01*
X154399213Y-111768567D01*
X154394131Y-111766955D01*
X154389437Y-111764438D01*
X154300469Y-111737238D01*
X154299441Y-111736918D01*
X154210694Y-111708765D01*
X154205398Y-111708171D01*
X154200302Y-111706613D01*
X154107741Y-111697210D01*
X154106624Y-111697091D01*
X154077909Y-111693871D01*
X154012444Y-111666400D01*
X153972222Y-111607896D01*
X153970015Y-111536933D01*
X154006523Y-111476043D01*
X154036523Y-111455505D01*
X154042966Y-111452349D01*
X154147994Y-111400896D01*
X154329860Y-111271173D01*
X154488096Y-111113489D01*
X154547594Y-111030689D01*
X154618453Y-110932077D01*
X154619776Y-110933028D01*
X154666645Y-110889857D01*
X154736580Y-110877625D01*
X154802026Y-110905144D01*
X154829875Y-110936994D01*
X154889987Y-111035088D01*
X155036250Y-111203938D01*
X155208126Y-111346632D01*
X155401000Y-111459338D01*
X155609692Y-111539030D01*
X155614760Y-111540061D01*
X155614763Y-111540062D01*
X155722017Y-111561883D01*
X155828597Y-111583567D01*
X155833772Y-111583757D01*
X155833774Y-111583757D01*
X156046673Y-111591564D01*
X156046677Y-111591564D01*
X156051837Y-111591753D01*
X156056957Y-111591097D01*
X156056959Y-111591097D01*
X156268288Y-111564025D01*
X156268289Y-111564025D01*
X156273416Y-111563368D01*
X156326080Y-111547568D01*
X156482429Y-111500661D01*
X156482434Y-111500659D01*
X156487384Y-111499174D01*
X156687994Y-111400896D01*
X156869860Y-111271173D01*
X157028096Y-111113489D01*
X157087594Y-111030689D01*
X157158453Y-110932077D01*
X157159776Y-110933028D01*
X157206645Y-110889857D01*
X157276580Y-110877625D01*
X157342026Y-110905144D01*
X157369875Y-110936994D01*
X157429987Y-111035088D01*
X157576250Y-111203938D01*
X157748126Y-111346632D01*
X157941000Y-111459338D01*
X158149692Y-111539030D01*
X158154760Y-111540061D01*
X158154763Y-111540062D01*
X158262017Y-111561883D01*
X158368597Y-111583567D01*
X158373772Y-111583757D01*
X158373774Y-111583757D01*
X158586673Y-111591564D01*
X158586677Y-111591564D01*
X158591837Y-111591753D01*
X158596957Y-111591097D01*
X158596959Y-111591097D01*
X158808288Y-111564025D01*
X158808289Y-111564025D01*
X158813416Y-111563368D01*
X158866080Y-111547568D01*
X159022429Y-111500661D01*
X159022434Y-111500659D01*
X159027384Y-111499174D01*
X159227994Y-111400896D01*
X159409860Y-111271173D01*
X159568096Y-111113489D01*
X159627594Y-111030689D01*
X159698453Y-110932077D01*
X159699776Y-110933028D01*
X159746645Y-110889857D01*
X159816580Y-110877625D01*
X159882026Y-110905144D01*
X159909875Y-110936994D01*
X159969987Y-111035088D01*
X160116250Y-111203938D01*
X160288126Y-111346632D01*
X160481000Y-111459338D01*
X160689692Y-111539030D01*
X160694760Y-111540061D01*
X160694763Y-111540062D01*
X160802017Y-111561883D01*
X160908597Y-111583567D01*
X160913772Y-111583757D01*
X160913774Y-111583757D01*
X161126673Y-111591564D01*
X161126677Y-111591564D01*
X161131837Y-111591753D01*
X161136957Y-111591097D01*
X161136959Y-111591097D01*
X161348288Y-111564025D01*
X161348289Y-111564025D01*
X161353416Y-111563368D01*
X161406080Y-111547568D01*
X161562429Y-111500661D01*
X161562434Y-111500659D01*
X161567384Y-111499174D01*
X161767994Y-111400896D01*
X161949860Y-111271173D01*
X162108096Y-111113489D01*
X162167594Y-111030689D01*
X162238453Y-110932077D01*
X162239776Y-110933028D01*
X162286645Y-110889857D01*
X162356580Y-110877625D01*
X162422026Y-110905144D01*
X162449875Y-110936994D01*
X162509987Y-111035088D01*
X162656250Y-111203938D01*
X162828126Y-111346632D01*
X163021000Y-111459338D01*
X163229692Y-111539030D01*
X163234760Y-111540061D01*
X163234763Y-111540062D01*
X163342017Y-111561883D01*
X163448597Y-111583567D01*
X163453772Y-111583757D01*
X163453774Y-111583757D01*
X163666673Y-111591564D01*
X163666677Y-111591564D01*
X163671837Y-111591753D01*
X163676957Y-111591097D01*
X163676959Y-111591097D01*
X163888288Y-111564025D01*
X163888289Y-111564025D01*
X163893416Y-111563368D01*
X163946080Y-111547568D01*
X164102429Y-111500661D01*
X164102434Y-111500659D01*
X164107384Y-111499174D01*
X164307994Y-111400896D01*
X164489860Y-111271173D01*
X164648096Y-111113489D01*
X164707594Y-111030689D01*
X164778453Y-110932077D01*
X164779776Y-110933028D01*
X164826645Y-110889857D01*
X164896580Y-110877625D01*
X164962026Y-110905144D01*
X164989875Y-110936994D01*
X165049987Y-111035088D01*
X165196250Y-111203938D01*
X165368126Y-111346632D01*
X165561000Y-111459338D01*
X165769692Y-111539030D01*
X165774760Y-111540061D01*
X165774763Y-111540062D01*
X165882017Y-111561883D01*
X165988597Y-111583567D01*
X165993772Y-111583757D01*
X165993774Y-111583757D01*
X166206673Y-111591564D01*
X166206677Y-111591564D01*
X166211837Y-111591753D01*
X166216957Y-111591097D01*
X166216959Y-111591097D01*
X166428288Y-111564025D01*
X166428289Y-111564025D01*
X166433416Y-111563368D01*
X166486080Y-111547568D01*
X166642429Y-111500661D01*
X166642434Y-111500659D01*
X166647384Y-111499174D01*
X166847994Y-111400896D01*
X167029860Y-111271173D01*
X167188096Y-111113489D01*
X167247594Y-111030689D01*
X167315435Y-110936277D01*
X167318453Y-110932077D01*
X167331995Y-110904678D01*
X167415136Y-110736453D01*
X167415137Y-110736451D01*
X167417430Y-110731811D01*
X167482370Y-110518069D01*
X167511529Y-110296590D01*
X167513156Y-110230000D01*
X167494852Y-110007361D01*
X167466821Y-109895765D01*
X167469625Y-109824825D01*
X167499930Y-109775974D01*
X167746287Y-109529618D01*
X168005501Y-109270404D01*
X168067813Y-109236379D01*
X168094596Y-109233500D01*
X174291800Y-109233500D01*
X174359921Y-109253502D01*
X174379147Y-109269843D01*
X174379420Y-109269540D01*
X174384332Y-109273963D01*
X174388747Y-109278866D01*
X174410329Y-109294546D01*
X174523006Y-109376411D01*
X174543248Y-109391118D01*
X174549276Y-109393802D01*
X174549278Y-109393803D01*
X174569084Y-109402621D01*
X174717712Y-109468794D01*
X174811113Y-109488647D01*
X174898056Y-109507128D01*
X174898061Y-109507128D01*
X174904513Y-109508500D01*
X175095487Y-109508500D01*
X175101939Y-109507128D01*
X175101944Y-109507128D01*
X175188887Y-109488647D01*
X175282288Y-109468794D01*
X175430916Y-109402621D01*
X175450722Y-109393803D01*
X175450724Y-109393802D01*
X175456752Y-109391118D01*
X175476995Y-109376411D01*
X175579881Y-109301659D01*
X175611253Y-109278866D01*
X175649066Y-109236870D01*
X175734621Y-109141852D01*
X175734622Y-109141851D01*
X175739040Y-109136944D01*
X175824377Y-108989137D01*
X175831223Y-108977279D01*
X175831224Y-108977278D01*
X175834527Y-108971556D01*
X175893542Y-108789928D01*
X175913504Y-108600000D01*
X175912163Y-108587237D01*
X175894232Y-108416635D01*
X175894232Y-108416633D01*
X175893542Y-108410072D01*
X175834527Y-108228444D01*
X175739040Y-108063056D01*
X175611253Y-107921134D01*
X175483757Y-107828502D01*
X175462094Y-107812763D01*
X175462093Y-107812762D01*
X175456752Y-107808882D01*
X175450724Y-107806198D01*
X175450722Y-107806197D01*
X175288319Y-107733891D01*
X175288318Y-107733891D01*
X175282288Y-107731206D01*
X175188887Y-107711353D01*
X175101944Y-107692872D01*
X175101939Y-107692872D01*
X175095487Y-107691500D01*
X174904513Y-107691500D01*
X174898061Y-107692872D01*
X174898056Y-107692872D01*
X174811113Y-107711353D01*
X174717712Y-107731206D01*
X174711682Y-107733891D01*
X174711681Y-107733891D01*
X174549278Y-107806197D01*
X174549276Y-107806198D01*
X174543248Y-107808882D01*
X174537907Y-107812762D01*
X174537906Y-107812763D01*
X174516243Y-107828502D01*
X174388747Y-107921134D01*
X174384332Y-107926037D01*
X174379420Y-107930460D01*
X174378295Y-107929211D01*
X174324986Y-107962051D01*
X174291800Y-107966500D01*
X167858767Y-107966500D01*
X167847584Y-107965973D01*
X167840091Y-107964298D01*
X167832166Y-107964547D01*
X167832165Y-107964547D01*
X167825854Y-107964746D01*
X167813982Y-107965119D01*
X167745267Y-107947268D01*
X167697111Y-107895100D01*
X167684804Y-107825178D01*
X167690189Y-107800247D01*
X167691503Y-107796204D01*
X167691503Y-107796202D01*
X167693542Y-107789928D01*
X167695679Y-107769601D01*
X167712814Y-107606565D01*
X167713504Y-107600000D01*
X167695473Y-107428444D01*
X167694232Y-107416635D01*
X167694232Y-107416633D01*
X167693542Y-107410072D01*
X167634527Y-107228444D01*
X167539040Y-107063056D01*
X167422740Y-106933891D01*
X167415675Y-106926045D01*
X167415674Y-106926044D01*
X167411253Y-106921134D01*
X167312157Y-106849136D01*
X167262094Y-106812763D01*
X167262093Y-106812762D01*
X167256752Y-106808882D01*
X167250724Y-106806198D01*
X167250722Y-106806197D01*
X167088319Y-106733891D01*
X167088318Y-106733891D01*
X167082288Y-106731206D01*
X167075833Y-106729834D01*
X167075824Y-106729831D01*
X167006324Y-106715058D01*
X166943851Y-106681330D01*
X166909530Y-106619180D01*
X166914258Y-106548341D01*
X166958461Y-106489876D01*
X166962094Y-106487237D01*
X167111253Y-106378866D01*
X167115668Y-106373963D01*
X167120580Y-106369540D01*
X167121705Y-106370789D01*
X167175014Y-106337949D01*
X167208200Y-106333500D01*
X176202208Y-106333500D01*
X176270329Y-106353502D01*
X176295842Y-106375187D01*
X176388747Y-106478369D01*
X176409990Y-106493803D01*
X176535432Y-106584942D01*
X176543248Y-106590621D01*
X176549276Y-106593305D01*
X176549278Y-106593306D01*
X176711681Y-106665612D01*
X176717712Y-106668297D01*
X176811113Y-106688150D01*
X176898056Y-106706631D01*
X176898061Y-106706631D01*
X176904513Y-106708003D01*
X177095487Y-106708003D01*
X177101939Y-106706631D01*
X177101944Y-106706631D01*
X177188888Y-106688150D01*
X177282288Y-106668297D01*
X177288319Y-106665612D01*
X177450722Y-106593306D01*
X177450724Y-106593305D01*
X177456752Y-106590621D01*
X177464569Y-106584942D01*
X177590010Y-106493803D01*
X177611253Y-106478369D01*
X177615675Y-106473458D01*
X177734621Y-106341355D01*
X177734622Y-106341354D01*
X177739040Y-106336447D01*
X177797314Y-106235513D01*
X177831223Y-106176782D01*
X177831224Y-106176781D01*
X177834527Y-106171059D01*
X177893542Y-105989431D01*
X177903425Y-105895405D01*
X177912814Y-105806068D01*
X177913504Y-105799503D01*
X177902395Y-105693803D01*
X177894232Y-105616138D01*
X177894232Y-105616136D01*
X177893542Y-105609575D01*
X177834527Y-105427947D01*
X177796885Y-105362750D01*
X177780148Y-105293758D01*
X177796886Y-105236752D01*
X177831223Y-105177279D01*
X177831224Y-105177278D01*
X177834527Y-105171556D01*
X177893542Y-104989928D01*
X177913504Y-104800000D01*
X177904052Y-104710072D01*
X177894232Y-104616635D01*
X177894232Y-104616633D01*
X177893542Y-104610072D01*
X177834527Y-104428444D01*
X177828746Y-104418430D01*
X177794747Y-104359543D01*
X177739040Y-104263056D01*
X177630434Y-104142436D01*
X177615675Y-104126045D01*
X177615674Y-104126044D01*
X177611253Y-104121134D01*
X177456752Y-104008882D01*
X177450724Y-104006198D01*
X177450722Y-104006197D01*
X177288319Y-103933891D01*
X177288318Y-103933891D01*
X177282288Y-103931206D01*
X177188888Y-103911353D01*
X177101944Y-103892872D01*
X177101939Y-103892872D01*
X177095487Y-103891500D01*
X176904513Y-103891500D01*
X176898061Y-103892872D01*
X176898056Y-103892872D01*
X176811113Y-103911353D01*
X176717712Y-103931206D01*
X176711682Y-103933891D01*
X176711681Y-103933891D01*
X176549278Y-104006197D01*
X176549276Y-104006198D01*
X176543248Y-104008882D01*
X176388747Y-104121134D01*
X176384332Y-104126037D01*
X176379420Y-104130460D01*
X176378295Y-104129211D01*
X176324986Y-104162051D01*
X176291800Y-104166500D01*
X166376996Y-104166500D01*
X166308875Y-104146498D01*
X166302935Y-104142436D01*
X166262094Y-104112763D01*
X166262093Y-104112762D01*
X166256752Y-104108882D01*
X166250724Y-104106198D01*
X166250722Y-104106197D01*
X166088319Y-104033891D01*
X166088318Y-104033891D01*
X166082288Y-104031206D01*
X165988888Y-104011353D01*
X165901944Y-103992872D01*
X165901939Y-103992872D01*
X165895487Y-103991500D01*
X165704513Y-103991500D01*
X165698061Y-103992872D01*
X165698056Y-103992872D01*
X165611112Y-104011353D01*
X165517712Y-104031206D01*
X165511682Y-104033891D01*
X165511681Y-104033891D01*
X165349278Y-104106197D01*
X165349276Y-104106198D01*
X165343248Y-104108882D01*
X165337907Y-104112762D01*
X165337906Y-104112763D01*
X165297065Y-104142436D01*
X165188747Y-104221134D01*
X165184326Y-104226044D01*
X165184325Y-104226045D01*
X165080402Y-104341464D01*
X165060960Y-104363056D01*
X165012396Y-104447171D01*
X164974188Y-104513350D01*
X164965473Y-104528444D01*
X164906458Y-104710072D01*
X164886496Y-104900000D01*
X164887186Y-104906565D01*
X164896608Y-104996206D01*
X164906458Y-105089928D01*
X164965473Y-105271556D01*
X165060960Y-105436944D01*
X165188747Y-105578866D01*
X165343248Y-105691118D01*
X165349276Y-105693802D01*
X165349278Y-105693803D01*
X165430480Y-105729956D01*
X165517712Y-105768794D01*
X165519860Y-105769251D01*
X165577118Y-105808400D01*
X165604888Y-105874991D01*
X165606458Y-105889928D01*
X165665473Y-106071556D01*
X165760960Y-106236944D01*
X165888747Y-106378866D01*
X165906033Y-106391425D01*
X166025701Y-106478369D01*
X166043248Y-106491118D01*
X166049276Y-106493802D01*
X166049278Y-106493803D01*
X166211681Y-106566109D01*
X166217712Y-106568794D01*
X166224167Y-106570166D01*
X166224176Y-106570169D01*
X166293676Y-106584942D01*
X166356149Y-106618670D01*
X166390470Y-106680820D01*
X166385742Y-106751659D01*
X166341540Y-106810123D01*
X166193837Y-106917436D01*
X166126969Y-106941295D01*
X166119776Y-106941500D01*
X165066371Y-106941500D01*
X164998250Y-106921498D01*
X164977276Y-106904595D01*
X162683770Y-104611089D01*
X162671384Y-104596677D01*
X162662851Y-104585082D01*
X162662846Y-104585077D01*
X162658508Y-104579182D01*
X162652930Y-104574443D01*
X162652927Y-104574440D01*
X162618232Y-104544965D01*
X162610716Y-104538035D01*
X162605021Y-104532340D01*
X162592863Y-104522721D01*
X162582749Y-104514719D01*
X162579345Y-104511928D01*
X162529297Y-104469409D01*
X162529295Y-104469408D01*
X162523715Y-104464667D01*
X162517199Y-104461339D01*
X162512150Y-104457972D01*
X162507021Y-104454805D01*
X162501284Y-104450266D01*
X162435125Y-104419345D01*
X162431225Y-104417439D01*
X162366192Y-104384231D01*
X162359084Y-104382492D01*
X162353441Y-104380393D01*
X162347678Y-104378476D01*
X162341050Y-104375378D01*
X162269583Y-104360513D01*
X162265299Y-104359543D01*
X162259598Y-104358148D01*
X162194390Y-104342192D01*
X162188788Y-104341844D01*
X162188785Y-104341844D01*
X162183236Y-104341500D01*
X162183238Y-104341464D01*
X162179245Y-104341225D01*
X162175053Y-104340851D01*
X162167885Y-104339360D01*
X162101675Y-104341151D01*
X162090479Y-104341454D01*
X162087072Y-104341500D01*
X144566371Y-104341500D01*
X144498250Y-104321498D01*
X144477276Y-104304595D01*
X144020125Y-103847444D01*
X143989387Y-103797285D01*
X143980576Y-103770166D01*
X143934527Y-103628444D01*
X143839040Y-103463056D01*
X143711253Y-103321134D01*
X143556752Y-103208882D01*
X143550724Y-103206198D01*
X143550722Y-103206197D01*
X143388319Y-103133891D01*
X143388318Y-103133891D01*
X143382288Y-103131206D01*
X143288888Y-103111353D01*
X143201944Y-103092872D01*
X143201939Y-103092872D01*
X143195487Y-103091500D01*
X143004513Y-103091500D01*
X142998061Y-103092872D01*
X142998056Y-103092872D01*
X142911112Y-103111353D01*
X142817712Y-103131206D01*
X142811682Y-103133891D01*
X142811681Y-103133891D01*
X142649278Y-103206197D01*
X142649276Y-103206198D01*
X142643248Y-103208882D01*
X142488747Y-103321134D01*
X142360960Y-103463056D01*
X142265473Y-103628444D01*
X142206458Y-103810072D01*
X142186496Y-104000000D01*
X142187186Y-104006565D01*
X142203996Y-104166500D01*
X142206458Y-104189928D01*
X142265473Y-104371556D01*
X142268776Y-104377278D01*
X142268777Y-104377279D01*
X142272791Y-104384231D01*
X142360960Y-104536944D01*
X142365378Y-104541851D01*
X142365379Y-104541852D01*
X142414744Y-104596677D01*
X142488747Y-104678866D01*
X142643248Y-104791118D01*
X142649276Y-104793802D01*
X142649278Y-104793803D01*
X142811681Y-104866109D01*
X142817712Y-104868794D01*
X142824167Y-104870166D01*
X142824176Y-104870169D01*
X142880772Y-104882199D01*
X142943669Y-104916350D01*
X143616230Y-105588911D01*
X143628616Y-105603323D01*
X143637149Y-105614918D01*
X143637154Y-105614923D01*
X143641492Y-105620818D01*
X143647070Y-105625557D01*
X143647073Y-105625560D01*
X143681768Y-105655035D01*
X143689284Y-105661965D01*
X143694979Y-105667660D01*
X143697861Y-105669940D01*
X143717251Y-105685281D01*
X143720655Y-105688072D01*
X143770703Y-105730591D01*
X143776285Y-105735333D01*
X143782801Y-105738661D01*
X143787850Y-105742028D01*
X143792979Y-105745195D01*
X143798716Y-105749734D01*
X143864875Y-105780655D01*
X143868769Y-105782558D01*
X143933808Y-105815769D01*
X143940916Y-105817508D01*
X143946559Y-105819607D01*
X143952322Y-105821524D01*
X143958950Y-105824622D01*
X143966112Y-105826112D01*
X143966113Y-105826112D01*
X144030412Y-105839486D01*
X144034696Y-105840456D01*
X144105610Y-105857808D01*
X144111212Y-105858156D01*
X144111215Y-105858156D01*
X144116764Y-105858500D01*
X144116762Y-105858536D01*
X144120755Y-105858775D01*
X144124947Y-105859149D01*
X144132115Y-105860640D01*
X144209520Y-105858546D01*
X144212928Y-105858500D01*
X153212831Y-105858500D01*
X153280952Y-105878502D01*
X153327445Y-105932158D01*
X153337549Y-106002432D01*
X153308055Y-106067012D01*
X153264080Y-106099607D01*
X153249278Y-106106197D01*
X153249276Y-106106198D01*
X153243248Y-106108882D01*
X153088747Y-106221134D01*
X152983567Y-106337949D01*
X152971052Y-106351848D01*
X152941560Y-106375988D01*
X152908638Y-106395458D01*
X152894317Y-106409779D01*
X152879284Y-106422619D01*
X152862893Y-106434528D01*
X152857842Y-106440634D01*
X152834702Y-106468605D01*
X152826712Y-106477384D01*
X150507747Y-108796348D01*
X150499461Y-108803888D01*
X150492982Y-108808000D01*
X150487557Y-108813777D01*
X150446357Y-108857651D01*
X150443602Y-108860493D01*
X150423865Y-108880230D01*
X150421385Y-108883427D01*
X150413682Y-108892447D01*
X150383414Y-108924679D01*
X150379595Y-108931625D01*
X150379593Y-108931628D01*
X150373652Y-108942434D01*
X150362801Y-108958953D01*
X150350387Y-108974958D01*
X150348319Y-108973354D01*
X150307526Y-109011999D01*
X150183607Y-109076507D01*
X150179474Y-109079610D01*
X150179471Y-109079612D01*
X150009100Y-109207530D01*
X150004965Y-109210635D01*
X149939762Y-109278866D01*
X149856968Y-109365505D01*
X149850629Y-109372138D01*
X149743201Y-109529621D01*
X149688293Y-109574621D01*
X149617768Y-109582792D01*
X149554021Y-109551538D01*
X149533324Y-109527054D01*
X149452822Y-109402617D01*
X149452820Y-109402614D01*
X149450014Y-109398277D01*
X149299670Y-109233051D01*
X149295619Y-109229852D01*
X149295615Y-109229848D01*
X149128414Y-109097800D01*
X149128410Y-109097798D01*
X149124359Y-109094598D01*
X148928789Y-108986638D01*
X148923920Y-108984914D01*
X148923916Y-108984912D01*
X148723087Y-108913795D01*
X148723083Y-108913794D01*
X148718212Y-108912069D01*
X148713119Y-108911162D01*
X148713116Y-108911161D01*
X148503373Y-108873800D01*
X148503367Y-108873799D01*
X148498284Y-108872894D01*
X148424452Y-108871992D01*
X148280081Y-108870228D01*
X148280079Y-108870228D01*
X148274911Y-108870165D01*
X148054091Y-108903955D01*
X147841756Y-108973357D01*
X147643607Y-109076507D01*
X147639474Y-109079610D01*
X147639471Y-109079612D01*
X147469100Y-109207530D01*
X147464965Y-109210635D01*
X147399762Y-109278866D01*
X147316968Y-109365505D01*
X147310629Y-109372138D01*
X147203201Y-109529621D01*
X147148293Y-109574621D01*
X147077768Y-109582792D01*
X147014021Y-109551538D01*
X146993324Y-109527054D01*
X146912822Y-109402617D01*
X146912820Y-109402614D01*
X146910014Y-109398277D01*
X146759670Y-109233051D01*
X146755619Y-109229852D01*
X146755615Y-109229848D01*
X146588414Y-109097800D01*
X146588410Y-109097798D01*
X146584359Y-109094598D01*
X146388789Y-108986638D01*
X146383920Y-108984914D01*
X146383916Y-108984912D01*
X146183087Y-108913795D01*
X146183083Y-108913794D01*
X146178212Y-108912069D01*
X146173119Y-108911162D01*
X146173116Y-108911161D01*
X145963373Y-108873800D01*
X145963367Y-108873799D01*
X145958284Y-108872894D01*
X145884452Y-108871992D01*
X145740081Y-108870228D01*
X145740079Y-108870228D01*
X145734911Y-108870165D01*
X145514091Y-108903955D01*
X145301756Y-108973357D01*
X145103607Y-109076507D01*
X145099474Y-109079610D01*
X145099471Y-109079612D01*
X144929100Y-109207530D01*
X144924965Y-109210635D01*
X144859762Y-109278866D01*
X144776968Y-109365505D01*
X144770629Y-109372138D01*
X144663201Y-109529621D01*
X144608293Y-109574621D01*
X144537768Y-109582792D01*
X144474021Y-109551538D01*
X144453324Y-109527054D01*
X144372822Y-109402617D01*
X144372820Y-109402614D01*
X144370014Y-109398277D01*
X144219670Y-109233051D01*
X144215619Y-109229852D01*
X144215615Y-109229848D01*
X144048414Y-109097800D01*
X144048410Y-109097798D01*
X144044359Y-109094598D01*
X143848789Y-108986638D01*
X143843920Y-108984914D01*
X143843916Y-108984912D01*
X143643087Y-108913795D01*
X143643083Y-108913794D01*
X143638212Y-108912069D01*
X143633119Y-108911162D01*
X143633116Y-108911161D01*
X143423373Y-108873800D01*
X143423367Y-108873799D01*
X143418284Y-108872894D01*
X143344452Y-108871992D01*
X143200081Y-108870228D01*
X143200079Y-108870228D01*
X143194911Y-108870165D01*
X142974091Y-108903955D01*
X142761756Y-108973357D01*
X142563607Y-109076507D01*
X142559474Y-109079610D01*
X142559471Y-109079612D01*
X142389100Y-109207530D01*
X142384965Y-109210635D01*
X142319762Y-109278866D01*
X142236968Y-109365505D01*
X142230629Y-109372138D01*
X142123201Y-109529621D01*
X142068293Y-109574621D01*
X141997768Y-109582792D01*
X141934021Y-109551538D01*
X141913324Y-109527054D01*
X141832822Y-109402617D01*
X141832820Y-109402614D01*
X141830014Y-109398277D01*
X141679670Y-109233051D01*
X141675619Y-109229852D01*
X141675615Y-109229848D01*
X141508414Y-109097800D01*
X141508410Y-109097798D01*
X141504359Y-109094598D01*
X141308789Y-108986638D01*
X141303920Y-108984914D01*
X141303916Y-108984912D01*
X141103087Y-108913795D01*
X141103083Y-108913794D01*
X141098212Y-108912069D01*
X141093119Y-108911162D01*
X141093116Y-108911161D01*
X140883373Y-108873800D01*
X140883367Y-108873799D01*
X140878284Y-108872894D01*
X140804452Y-108871992D01*
X140660081Y-108870228D01*
X140660079Y-108870228D01*
X140654911Y-108870165D01*
X140434091Y-108903955D01*
X140221756Y-108973357D01*
X140023607Y-109076507D01*
X140019474Y-109079610D01*
X140019471Y-109079612D01*
X139849100Y-109207530D01*
X139844965Y-109210635D01*
X139779762Y-109278866D01*
X139696968Y-109365505D01*
X139690629Y-109372138D01*
X139583201Y-109529621D01*
X139528293Y-109574621D01*
X139457768Y-109582792D01*
X139394021Y-109551538D01*
X139373324Y-109527054D01*
X139292822Y-109402617D01*
X139292820Y-109402614D01*
X139290014Y-109398277D01*
X139139670Y-109233051D01*
X139135619Y-109229852D01*
X139135615Y-109229848D01*
X138968414Y-109097800D01*
X138968410Y-109097798D01*
X138964359Y-109094598D01*
X138768789Y-108986638D01*
X138763920Y-108984914D01*
X138763916Y-108984912D01*
X138563087Y-108913795D01*
X138563083Y-108913794D01*
X138558212Y-108912069D01*
X138553119Y-108911162D01*
X138553116Y-108911161D01*
X138343373Y-108873800D01*
X138343367Y-108873799D01*
X138338284Y-108872894D01*
X138264452Y-108871992D01*
X138120081Y-108870228D01*
X138120079Y-108870228D01*
X138114911Y-108870165D01*
X137894091Y-108903955D01*
X137681756Y-108973357D01*
X137483607Y-109076507D01*
X137479474Y-109079610D01*
X137479471Y-109079612D01*
X137309100Y-109207530D01*
X137304965Y-109210635D01*
X137239762Y-109278866D01*
X137156968Y-109365505D01*
X137150629Y-109372138D01*
X137147720Y-109376403D01*
X137147714Y-109376411D01*
X137129835Y-109402621D01*
X137043204Y-109529618D01*
X137042898Y-109530066D01*
X136987987Y-109575069D01*
X136917462Y-109583240D01*
X136853715Y-109551986D01*
X136833017Y-109527501D01*
X136803062Y-109481197D01*
X136792377Y-109471995D01*
X136782812Y-109476398D01*
X136042022Y-110217188D01*
X136034408Y-110231132D01*
X136034539Y-110232965D01*
X136038790Y-110239580D01*
X136780474Y-110981264D01*
X136792484Y-110987823D01*
X136804223Y-110978855D01*
X136838022Y-110931819D01*
X136839277Y-110932721D01*
X136886391Y-110889355D01*
X136956330Y-110877148D01*
X137021767Y-110904691D01*
X137049580Y-110936513D01*
X137107287Y-111030683D01*
X137107291Y-111030688D01*
X137109987Y-111035088D01*
X137256250Y-111203938D01*
X137428126Y-111346632D01*
X137524881Y-111403171D01*
X137616506Y-111456712D01*
X137665230Y-111508350D01*
X137678301Y-111578133D01*
X137651570Y-111643905D01*
X137593523Y-111684784D01*
X137552936Y-111691500D01*
X136317262Y-111691500D01*
X136249141Y-111671498D01*
X136202648Y-111617842D01*
X136192544Y-111547568D01*
X136222038Y-111482988D01*
X136261829Y-111452349D01*
X136363098Y-111402738D01*
X136371944Y-111397465D01*
X136419247Y-111363723D01*
X136427648Y-111353023D01*
X136420660Y-111339870D01*
X135682812Y-110602022D01*
X135668868Y-110594408D01*
X135667035Y-110594539D01*
X135660420Y-110598790D01*
X134916737Y-111342473D01*
X134909977Y-111354853D01*
X134915258Y-111361907D01*
X135077497Y-111456712D01*
X135126221Y-111508351D01*
X135139292Y-111578133D01*
X135112561Y-111643905D01*
X135054514Y-111684784D01*
X135013927Y-111691500D01*
X133778398Y-111691500D01*
X133710277Y-111671498D01*
X133663784Y-111617842D01*
X133653680Y-111547568D01*
X133683174Y-111482988D01*
X133722964Y-111452350D01*
X133827994Y-111400896D01*
X134009860Y-111271173D01*
X134168096Y-111113489D01*
X134227594Y-111030689D01*
X134298453Y-110932077D01*
X134299640Y-110932930D01*
X134346960Y-110889362D01*
X134416897Y-110877145D01*
X134482338Y-110904678D01*
X134510166Y-110936512D01*
X134536459Y-110979419D01*
X134546916Y-110988880D01*
X134555694Y-110985096D01*
X135297978Y-110242812D01*
X135305592Y-110228868D01*
X135305461Y-110227035D01*
X135301210Y-110220420D01*
X134559849Y-109479059D01*
X134548313Y-109472759D01*
X134536031Y-109482382D01*
X134503499Y-109530072D01*
X134448587Y-109575075D01*
X134378063Y-109583246D01*
X134314316Y-109551992D01*
X134293618Y-109527508D01*
X134212822Y-109402617D01*
X134212820Y-109402614D01*
X134210014Y-109398277D01*
X134059670Y-109233051D01*
X134055619Y-109229852D01*
X134055615Y-109229848D01*
X133899338Y-109106427D01*
X134911223Y-109106427D01*
X134917968Y-109118758D01*
X135657188Y-109857978D01*
X135671132Y-109865592D01*
X135672965Y-109865461D01*
X135679580Y-109861210D01*
X136423389Y-109117401D01*
X136430410Y-109104544D01*
X136423611Y-109095213D01*
X136419554Y-109092518D01*
X136233117Y-108989599D01*
X136223705Y-108985369D01*
X136022959Y-108914280D01*
X136012989Y-108911646D01*
X135803327Y-108874301D01*
X135793073Y-108873331D01*
X135580116Y-108870728D01*
X135569832Y-108871448D01*
X135359321Y-108903661D01*
X135349293Y-108906050D01*
X135146868Y-108972212D01*
X135137359Y-108976209D01*
X134948466Y-109074540D01*
X134939734Y-109080039D01*
X134919677Y-109095099D01*
X134911223Y-109106427D01*
X133899338Y-109106427D01*
X133888414Y-109097800D01*
X133888410Y-109097798D01*
X133884359Y-109094598D01*
X133688789Y-108986638D01*
X133683920Y-108984914D01*
X133683916Y-108984912D01*
X133483087Y-108913795D01*
X133483083Y-108913794D01*
X133478212Y-108912069D01*
X133473119Y-108911162D01*
X133473116Y-108911161D01*
X133263373Y-108873800D01*
X133263367Y-108873799D01*
X133258284Y-108872894D01*
X133184452Y-108871992D01*
X133040081Y-108870228D01*
X133040079Y-108870228D01*
X133034911Y-108870165D01*
X132814091Y-108903955D01*
X132601756Y-108973357D01*
X132403607Y-109076507D01*
X132399474Y-109079610D01*
X132399471Y-109079612D01*
X132229100Y-109207530D01*
X132224965Y-109210635D01*
X132159762Y-109278866D01*
X132076968Y-109365505D01*
X132070629Y-109372138D01*
X131963201Y-109529621D01*
X131908293Y-109574621D01*
X131837768Y-109582792D01*
X131774021Y-109551538D01*
X131753324Y-109527054D01*
X131672822Y-109402617D01*
X131672820Y-109402614D01*
X131670014Y-109398277D01*
X131519670Y-109233051D01*
X131515619Y-109229852D01*
X131515615Y-109229848D01*
X131348414Y-109097800D01*
X131348410Y-109097798D01*
X131344359Y-109094598D01*
X131148789Y-108986638D01*
X131143920Y-108984914D01*
X131143916Y-108984912D01*
X130943087Y-108913795D01*
X130943083Y-108913794D01*
X130938212Y-108912069D01*
X130933119Y-108911162D01*
X130933116Y-108911161D01*
X130723373Y-108873800D01*
X130723367Y-108873799D01*
X130718284Y-108872894D01*
X130644452Y-108871992D01*
X130500081Y-108870228D01*
X130500079Y-108870228D01*
X130494911Y-108870165D01*
X130274091Y-108903955D01*
X130061756Y-108973357D01*
X129863607Y-109076507D01*
X129859474Y-109079610D01*
X129859471Y-109079612D01*
X129689100Y-109207530D01*
X129684965Y-109210635D01*
X129619762Y-109278866D01*
X129536968Y-109365505D01*
X129530629Y-109372138D01*
X129527720Y-109376403D01*
X129527714Y-109376411D01*
X129438601Y-109507046D01*
X129383690Y-109552049D01*
X129313165Y-109560220D01*
X129249418Y-109528966D01*
X129228721Y-109504482D01*
X129162822Y-109402617D01*
X129162820Y-109402614D01*
X129160014Y-109398277D01*
X129009670Y-109233051D01*
X129005619Y-109229852D01*
X129005615Y-109229848D01*
X128838414Y-109097800D01*
X128838410Y-109097798D01*
X128834359Y-109094598D01*
X128638789Y-108986638D01*
X128633920Y-108984914D01*
X128633916Y-108984912D01*
X128433087Y-108913795D01*
X128433083Y-108913794D01*
X128428212Y-108912069D01*
X128423119Y-108911162D01*
X128423116Y-108911161D01*
X128213373Y-108873800D01*
X128213367Y-108873799D01*
X128208284Y-108872894D01*
X128134452Y-108871992D01*
X127990081Y-108870228D01*
X127990079Y-108870228D01*
X127984911Y-108870165D01*
X127764091Y-108903955D01*
X127551756Y-108973357D01*
X127353607Y-109076507D01*
X127349474Y-109079610D01*
X127349471Y-109079612D01*
X127179100Y-109207530D01*
X127174965Y-109210635D01*
X127109762Y-109278866D01*
X127026968Y-109365505D01*
X127020629Y-109372138D01*
X127017720Y-109376403D01*
X127017714Y-109376411D01*
X126999835Y-109402621D01*
X126894743Y-109556680D01*
X126847716Y-109657992D01*
X126814256Y-109730076D01*
X126800688Y-109759305D01*
X126740989Y-109974570D01*
X126717251Y-110196695D01*
X126717548Y-110201848D01*
X126717548Y-110201851D01*
X126723011Y-110296590D01*
X126730110Y-110419715D01*
X126731247Y-110424761D01*
X126731248Y-110424767D01*
X126751119Y-110512939D01*
X126779222Y-110637639D01*
X126863266Y-110844616D01*
X126902374Y-110908434D01*
X126977291Y-111030688D01*
X126979987Y-111035088D01*
X127126250Y-111203938D01*
X127298126Y-111346632D01*
X127394881Y-111403171D01*
X127486506Y-111456712D01*
X127535230Y-111508350D01*
X127548301Y-111578133D01*
X127521570Y-111643905D01*
X127463523Y-111684784D01*
X127422936Y-111691500D01*
X124669925Y-111691500D01*
X124601804Y-111671498D01*
X124580830Y-111654595D01*
X122745405Y-109819171D01*
X122711380Y-109756859D01*
X122708500Y-109730076D01*
X122708500Y-102300000D01*
X144986496Y-102300000D01*
X144987186Y-102306565D01*
X144992608Y-102358148D01*
X145006458Y-102489928D01*
X145065473Y-102671556D01*
X145160960Y-102836944D01*
X145165378Y-102841851D01*
X145165379Y-102841852D01*
X145172215Y-102849444D01*
X145288747Y-102978866D01*
X145443248Y-103091118D01*
X145449276Y-103093802D01*
X145449278Y-103093803D01*
X145539318Y-103133891D01*
X145617712Y-103168794D01*
X145711113Y-103188647D01*
X145798056Y-103207128D01*
X145798061Y-103207128D01*
X145804513Y-103208500D01*
X145995487Y-103208500D01*
X146001939Y-103207128D01*
X146001944Y-103207128D01*
X146088887Y-103188647D01*
X146182288Y-103168794D01*
X146260682Y-103133891D01*
X146350722Y-103093803D01*
X146350724Y-103093802D01*
X146356752Y-103091118D01*
X146511253Y-102978866D01*
X146627785Y-102849444D01*
X146634621Y-102841852D01*
X146634622Y-102841851D01*
X146639040Y-102836944D01*
X146734527Y-102671556D01*
X146793542Y-102489928D01*
X146810907Y-102324706D01*
X146837920Y-102259050D01*
X146847122Y-102248782D01*
X146980773Y-102115131D01*
X147043085Y-102081105D01*
X147113900Y-102086170D01*
X147170736Y-102128717D01*
X147195547Y-102195237D01*
X147195178Y-102217395D01*
X147186496Y-102300000D01*
X147187186Y-102306565D01*
X147192608Y-102358148D01*
X147206458Y-102489928D01*
X147265473Y-102671556D01*
X147360960Y-102836944D01*
X147365378Y-102841851D01*
X147365379Y-102841852D01*
X147372215Y-102849444D01*
X147488747Y-102978866D01*
X147643248Y-103091118D01*
X147649276Y-103093802D01*
X147649278Y-103093803D01*
X147739318Y-103133891D01*
X147817712Y-103168794D01*
X147911113Y-103188647D01*
X147998056Y-103207128D01*
X147998061Y-103207128D01*
X148004513Y-103208500D01*
X148195487Y-103208500D01*
X148201939Y-103207128D01*
X148201944Y-103207128D01*
X148288887Y-103188647D01*
X148382288Y-103168794D01*
X148460682Y-103133891D01*
X148550722Y-103093803D01*
X148550724Y-103093802D01*
X148556752Y-103091118D01*
X148711253Y-102978866D01*
X148827785Y-102849444D01*
X148834621Y-102841852D01*
X148834622Y-102841851D01*
X148839040Y-102836944D01*
X148934527Y-102671556D01*
X148993542Y-102489928D01*
X149010907Y-102324706D01*
X149037920Y-102259050D01*
X149047122Y-102248782D01*
X149300372Y-101995532D01*
X149362684Y-101961506D01*
X149433499Y-101966571D01*
X149490335Y-102009118D01*
X149515146Y-102075638D01*
X149512714Y-102110823D01*
X149511552Y-102116291D01*
X149509511Y-102122572D01*
X149489549Y-102312500D01*
X149509511Y-102502428D01*
X149568526Y-102684056D01*
X149571829Y-102689778D01*
X149571830Y-102689779D01*
X149605739Y-102748510D01*
X149664013Y-102849444D01*
X149668431Y-102854351D01*
X149668432Y-102854352D01*
X149709534Y-102900000D01*
X149791800Y-102991366D01*
X149890896Y-103063364D01*
X149923755Y-103087237D01*
X149946301Y-103103618D01*
X149952329Y-103106302D01*
X149952331Y-103106303D01*
X150092689Y-103168794D01*
X150120765Y-103181294D01*
X150214165Y-103201147D01*
X150301109Y-103219628D01*
X150301114Y-103219628D01*
X150307566Y-103221000D01*
X150498540Y-103221000D01*
X150504992Y-103219628D01*
X150504997Y-103219628D01*
X150591941Y-103201147D01*
X150685341Y-103181294D01*
X150713417Y-103168794D01*
X150853775Y-103106303D01*
X150853777Y-103106302D01*
X150859805Y-103103618D01*
X150882352Y-103087237D01*
X150915210Y-103063364D01*
X151014306Y-102991366D01*
X151096572Y-102900000D01*
X151137674Y-102854352D01*
X151137675Y-102854351D01*
X151142093Y-102849444D01*
X151200367Y-102748510D01*
X151234276Y-102689779D01*
X151234277Y-102689778D01*
X151237580Y-102684056D01*
X151296595Y-102502428D01*
X151313960Y-102337206D01*
X151340973Y-102271550D01*
X151350166Y-102261291D01*
X151849727Y-101761731D01*
X151912038Y-101727706D01*
X151982854Y-101732771D01*
X152039689Y-101775318D01*
X152064500Y-101841838D01*
X152063269Y-101870541D01*
X152061780Y-101879943D01*
X152062526Y-101887835D01*
X152065941Y-101923961D01*
X152066500Y-101935819D01*
X152066500Y-102197476D01*
X152046498Y-102265597D01*
X152034142Y-102281779D01*
X151960960Y-102363056D01*
X151957659Y-102368774D01*
X151884283Y-102495865D01*
X151865473Y-102528444D01*
X151806458Y-102710072D01*
X151805768Y-102716633D01*
X151805768Y-102716635D01*
X151792411Y-102843726D01*
X151786496Y-102900000D01*
X151806458Y-103089928D01*
X151865473Y-103271556D01*
X151960960Y-103436944D01*
X152088747Y-103578866D01*
X152243248Y-103691118D01*
X152249276Y-103693802D01*
X152249278Y-103693803D01*
X152411681Y-103766109D01*
X152417712Y-103768794D01*
X152511112Y-103788647D01*
X152598056Y-103807128D01*
X152598061Y-103807128D01*
X152604513Y-103808500D01*
X152795487Y-103808500D01*
X152801939Y-103807128D01*
X152801944Y-103807128D01*
X152888888Y-103788647D01*
X152982288Y-103768794D01*
X152988319Y-103766109D01*
X153150722Y-103693803D01*
X153150724Y-103693802D01*
X153156752Y-103691118D01*
X153311253Y-103578866D01*
X153439040Y-103436944D01*
X153534527Y-103271556D01*
X153593542Y-103089928D01*
X153613504Y-102900000D01*
X153607589Y-102843726D01*
X153594232Y-102716635D01*
X153594232Y-102716633D01*
X153593542Y-102710072D01*
X153534527Y-102528444D01*
X153515718Y-102495865D01*
X153442341Y-102368774D01*
X153439040Y-102363056D01*
X153415766Y-102337207D01*
X153373975Y-102290794D01*
X153343258Y-102226787D01*
X153352022Y-102156333D01*
X153378516Y-102117388D01*
X153725501Y-101770404D01*
X153787813Y-101736379D01*
X153814596Y-101733500D01*
X154291800Y-101733500D01*
X154359921Y-101753502D01*
X154379147Y-101769843D01*
X154379420Y-101769540D01*
X154384332Y-101773963D01*
X154388747Y-101778866D01*
X154400269Y-101787237D01*
X154517093Y-101872115D01*
X154543248Y-101891118D01*
X154549276Y-101893802D01*
X154549278Y-101893803D01*
X154711681Y-101966109D01*
X154717712Y-101968794D01*
X154811113Y-101988647D01*
X154898056Y-102007128D01*
X154898061Y-102007128D01*
X154904513Y-102008500D01*
X155095487Y-102008500D01*
X155101939Y-102007128D01*
X155101944Y-102007128D01*
X155188887Y-101988647D01*
X155282288Y-101968794D01*
X155288319Y-101966109D01*
X155450722Y-101893803D01*
X155450724Y-101893802D01*
X155456752Y-101891118D01*
X155611253Y-101778866D01*
X155626682Y-101761731D01*
X155739040Y-101636944D01*
X155740067Y-101637869D01*
X155790479Y-101598991D01*
X155867531Y-101594361D01*
X155884557Y-101598732D01*
X155903273Y-101605140D01*
X155909345Y-101607768D01*
X155952934Y-101639091D01*
X155988747Y-101678866D01*
X155994089Y-101682747D01*
X155994091Y-101682749D01*
X156131729Y-101782749D01*
X156143248Y-101791118D01*
X156149276Y-101793802D01*
X156149278Y-101793803D01*
X156311681Y-101866109D01*
X156317712Y-101868794D01*
X156404479Y-101887237D01*
X156498056Y-101907128D01*
X156498061Y-101907128D01*
X156504513Y-101908500D01*
X156695487Y-101908500D01*
X156701939Y-101907128D01*
X156701944Y-101907128D01*
X156795521Y-101887237D01*
X156882288Y-101868794D01*
X156888319Y-101866109D01*
X157050722Y-101793803D01*
X157050724Y-101793802D01*
X157056752Y-101791118D01*
X157068277Y-101782745D01*
X157190194Y-101694166D01*
X157211253Y-101678866D01*
X157266731Y-101617251D01*
X157334621Y-101541852D01*
X157334622Y-101541851D01*
X157339040Y-101536944D01*
X157415003Y-101405373D01*
X157431223Y-101377279D01*
X157431224Y-101377278D01*
X157434527Y-101371556D01*
X157493542Y-101189928D01*
X157494272Y-101182988D01*
X157499662Y-101131697D01*
X157526675Y-101066040D01*
X157584896Y-101025410D01*
X157651168Y-101021620D01*
X157668999Y-101025410D01*
X157760355Y-101044829D01*
X157760360Y-101044829D01*
X157766812Y-101046201D01*
X157957786Y-101046201D01*
X157964238Y-101044829D01*
X157964243Y-101044829D01*
X158055599Y-101025410D01*
X158144587Y-101006495D01*
X158213642Y-100975750D01*
X158313021Y-100931504D01*
X158313023Y-100931503D01*
X158319051Y-100928819D01*
X158473552Y-100816567D01*
X158601339Y-100674645D01*
X158696826Y-100509257D01*
X158708719Y-100472654D01*
X158748793Y-100414049D01*
X158814190Y-100386412D01*
X158879800Y-100396484D01*
X159042212Y-100468794D01*
X159135613Y-100488647D01*
X159222556Y-100507128D01*
X159222561Y-100507128D01*
X159229013Y-100508500D01*
X159419987Y-100508500D01*
X159426439Y-100507128D01*
X159426444Y-100507128D01*
X159513388Y-100488647D01*
X159606788Y-100468794D01*
X159769200Y-100396484D01*
X159775222Y-100393803D01*
X159775224Y-100393802D01*
X159781252Y-100391118D01*
X159787730Y-100386412D01*
X159891420Y-100311076D01*
X159935753Y-100278866D01*
X160063540Y-100136944D01*
X160159027Y-99971556D01*
X160218042Y-99789928D01*
X160238004Y-99600000D01*
X160218042Y-99410072D01*
X160159027Y-99228444D01*
X160063540Y-99063056D01*
X160021743Y-99016635D01*
X159940175Y-98926045D01*
X159940174Y-98926044D01*
X159935753Y-98921134D01*
X159781252Y-98808882D01*
X159775224Y-98806198D01*
X159775222Y-98806197D01*
X159612819Y-98733891D01*
X159612818Y-98733891D01*
X159606788Y-98731206D01*
X159513388Y-98711353D01*
X159426444Y-98692872D01*
X159426439Y-98692872D01*
X159419987Y-98691500D01*
X159305931Y-98691500D01*
X159245231Y-98675915D01*
X159216505Y-98660123D01*
X159209560Y-98656305D01*
X159189937Y-98651267D01*
X159171234Y-98644863D01*
X159159920Y-98639967D01*
X159159919Y-98639967D01*
X159152645Y-98636819D01*
X159144822Y-98635580D01*
X159144812Y-98635577D01*
X159108976Y-98629901D01*
X159097356Y-98627495D01*
X159062211Y-98618472D01*
X159062210Y-98618472D01*
X159054530Y-98616500D01*
X159034276Y-98616500D01*
X159014565Y-98614949D01*
X159012034Y-98614548D01*
X158994557Y-98611780D01*
X158986665Y-98612526D01*
X158950539Y-98615941D01*
X158938681Y-98616500D01*
X149028763Y-98616500D01*
X149017579Y-98615973D01*
X149010091Y-98614299D01*
X149002168Y-98614548D01*
X148942033Y-98616438D01*
X148938075Y-98616500D01*
X148910144Y-98616500D01*
X148906229Y-98616995D01*
X148906225Y-98616995D01*
X148906167Y-98617003D01*
X148906138Y-98617006D01*
X148894296Y-98617939D01*
X148850110Y-98619327D01*
X148832744Y-98624372D01*
X148830658Y-98624978D01*
X148811306Y-98628986D01*
X148804235Y-98629880D01*
X148791203Y-98631526D01*
X148783834Y-98634443D01*
X148783832Y-98634444D01*
X148750097Y-98647800D01*
X148738869Y-98651645D01*
X148696407Y-98663982D01*
X148689585Y-98668016D01*
X148689579Y-98668019D01*
X148678968Y-98674294D01*
X148661218Y-98682990D01*
X148649756Y-98687528D01*
X148649751Y-98687531D01*
X148642383Y-98690448D01*
X148635968Y-98695109D01*
X148606625Y-98716427D01*
X148596707Y-98722943D01*
X148582736Y-98731206D01*
X148558637Y-98745458D01*
X148544313Y-98759782D01*
X148529281Y-98772621D01*
X148512893Y-98784528D01*
X148494967Y-98806197D01*
X148484712Y-98818593D01*
X148476722Y-98827373D01*
X145949500Y-101354595D01*
X145887188Y-101388621D01*
X145860405Y-101391500D01*
X145804513Y-101391500D01*
X145798061Y-101392872D01*
X145798056Y-101392872D01*
X145726887Y-101408000D01*
X145617712Y-101431206D01*
X145611682Y-101433891D01*
X145611681Y-101433891D01*
X145449278Y-101506197D01*
X145449276Y-101506198D01*
X145443248Y-101508882D01*
X145288747Y-101621134D01*
X145284326Y-101626044D01*
X145284325Y-101626045D01*
X145198058Y-101721855D01*
X145160960Y-101763056D01*
X145065473Y-101928444D01*
X145006458Y-102110072D01*
X145005768Y-102116633D01*
X145005768Y-102116635D01*
X144995178Y-102217397D01*
X144986496Y-102300000D01*
X122708500Y-102300000D01*
X122708500Y-99200000D01*
X143886496Y-99200000D01*
X143906458Y-99389928D01*
X143965473Y-99571556D01*
X144060960Y-99736944D01*
X144065378Y-99741851D01*
X144065379Y-99741852D01*
X144108667Y-99789928D01*
X144188747Y-99878866D01*
X144343248Y-99991118D01*
X144349276Y-99993802D01*
X144349278Y-99993803D01*
X144511681Y-100066109D01*
X144517712Y-100068794D01*
X144611113Y-100088647D01*
X144698056Y-100107128D01*
X144698061Y-100107128D01*
X144704513Y-100108500D01*
X144895487Y-100108500D01*
X144901939Y-100107128D01*
X144901944Y-100107128D01*
X144988888Y-100088647D01*
X145082288Y-100068794D01*
X145088319Y-100066109D01*
X145250722Y-99993803D01*
X145250724Y-99993802D01*
X145256752Y-99991118D01*
X145411253Y-99878866D01*
X145491333Y-99789928D01*
X145534621Y-99741852D01*
X145534622Y-99741851D01*
X145539040Y-99736944D01*
X145634527Y-99571556D01*
X145689387Y-99402714D01*
X145720125Y-99352556D01*
X146656331Y-98416350D01*
X146719228Y-98382199D01*
X146775824Y-98370169D01*
X146775833Y-98370166D01*
X146782288Y-98368794D01*
X146860682Y-98333891D01*
X146950722Y-98293803D01*
X146950724Y-98293802D01*
X146956752Y-98291118D01*
X147111253Y-98178866D01*
X147209418Y-98069843D01*
X147234621Y-98041852D01*
X147234622Y-98041851D01*
X147239040Y-98036944D01*
X147334527Y-97871556D01*
X147393542Y-97689928D01*
X147403393Y-97596206D01*
X147412814Y-97506565D01*
X147413504Y-97500000D01*
X147393542Y-97310072D01*
X147334527Y-97128444D01*
X147239040Y-96963056D01*
X147193970Y-96913000D01*
X147115675Y-96826045D01*
X147115674Y-96826044D01*
X147111253Y-96821134D01*
X146956752Y-96708882D01*
X146950724Y-96706198D01*
X146950722Y-96706197D01*
X146788319Y-96633891D01*
X146788318Y-96633891D01*
X146782288Y-96631206D01*
X146688888Y-96611353D01*
X146601944Y-96592872D01*
X146601939Y-96592872D01*
X146595487Y-96591500D01*
X146404513Y-96591500D01*
X146398061Y-96592872D01*
X146398056Y-96592872D01*
X146311112Y-96611353D01*
X146217712Y-96631206D01*
X146211682Y-96633891D01*
X146211681Y-96633891D01*
X146049278Y-96706197D01*
X146049276Y-96706198D01*
X146043248Y-96708882D01*
X145888747Y-96821134D01*
X145884326Y-96826044D01*
X145884325Y-96826045D01*
X145806031Y-96913000D01*
X145760960Y-96963056D01*
X145665473Y-97128444D01*
X145652363Y-97168794D01*
X145610613Y-97297285D01*
X145579875Y-97347444D01*
X144643669Y-98283650D01*
X144580772Y-98317801D01*
X144524176Y-98329831D01*
X144524167Y-98329834D01*
X144517712Y-98331206D01*
X144511682Y-98333891D01*
X144511681Y-98333891D01*
X144349278Y-98406197D01*
X144349276Y-98406198D01*
X144343248Y-98408882D01*
X144188747Y-98521134D01*
X144184326Y-98526044D01*
X144184325Y-98526045D01*
X144067039Y-98656305D01*
X144060960Y-98663056D01*
X143965473Y-98828444D01*
X143906458Y-99010072D01*
X143886496Y-99200000D01*
X122708500Y-99200000D01*
X122708500Y-96300000D01*
X169186496Y-96300000D01*
X169206458Y-96489928D01*
X169265473Y-96671556D01*
X169360960Y-96836944D01*
X169365378Y-96841851D01*
X169365379Y-96841852D01*
X169384471Y-96863056D01*
X169488747Y-96978866D01*
X169643248Y-97091118D01*
X169649276Y-97093802D01*
X169649278Y-97093803D01*
X169741200Y-97134729D01*
X169817712Y-97168794D01*
X169911113Y-97188647D01*
X169998056Y-97207128D01*
X169998061Y-97207128D01*
X170004513Y-97208500D01*
X170060405Y-97208500D01*
X170128526Y-97228502D01*
X170149501Y-97245405D01*
X170487460Y-97583365D01*
X170696353Y-97792258D01*
X170703887Y-97800537D01*
X170708000Y-97807018D01*
X170757651Y-97853643D01*
X170760493Y-97856398D01*
X170780230Y-97876135D01*
X170783427Y-97878615D01*
X170792447Y-97886318D01*
X170824679Y-97916586D01*
X170831625Y-97920405D01*
X170831628Y-97920407D01*
X170842434Y-97926348D01*
X170858953Y-97937199D01*
X170874959Y-97949614D01*
X170882228Y-97952759D01*
X170882232Y-97952762D01*
X170915537Y-97967174D01*
X170926187Y-97972391D01*
X170964940Y-97993695D01*
X170972615Y-97995666D01*
X170972616Y-97995666D01*
X170984562Y-97998733D01*
X171003267Y-98005137D01*
X171021855Y-98013181D01*
X171029678Y-98014420D01*
X171029688Y-98014423D01*
X171065524Y-98020099D01*
X171077144Y-98022505D01*
X171111113Y-98031226D01*
X171119970Y-98033500D01*
X171140224Y-98033500D01*
X171159934Y-98035051D01*
X171179943Y-98038220D01*
X171187835Y-98037474D01*
X171223961Y-98034059D01*
X171235819Y-98033500D01*
X176391800Y-98033500D01*
X176459921Y-98053502D01*
X176479147Y-98069843D01*
X176479420Y-98069540D01*
X176484332Y-98073963D01*
X176488747Y-98078866D01*
X176510329Y-98094546D01*
X176626385Y-98178866D01*
X176643248Y-98191118D01*
X176649276Y-98193802D01*
X176649278Y-98193803D01*
X176811681Y-98266109D01*
X176817712Y-98268794D01*
X176887604Y-98283650D01*
X176998056Y-98307128D01*
X176998061Y-98307128D01*
X177004513Y-98308500D01*
X177195487Y-98308500D01*
X177201939Y-98307128D01*
X177201944Y-98307128D01*
X177312396Y-98283650D01*
X177382288Y-98268794D01*
X177388319Y-98266109D01*
X177550722Y-98193803D01*
X177550724Y-98193802D01*
X177556752Y-98191118D01*
X177573616Y-98178866D01*
X177612157Y-98150864D01*
X177711253Y-98078866D01*
X177747851Y-98038220D01*
X177834621Y-97941852D01*
X177834622Y-97941851D01*
X177839040Y-97936944D01*
X177934527Y-97771556D01*
X177993542Y-97589928D01*
X178013504Y-97400000D01*
X178007980Y-97347444D01*
X177994232Y-97216635D01*
X177994232Y-97216633D01*
X177993542Y-97210072D01*
X177934527Y-97028444D01*
X177867875Y-96912999D01*
X177851137Y-96844005D01*
X177867875Y-96787000D01*
X177931223Y-96677279D01*
X177931224Y-96677278D01*
X177934527Y-96671556D01*
X177993542Y-96489928D01*
X178013504Y-96300000D01*
X177993542Y-96110072D01*
X177934527Y-95928444D01*
X177839040Y-95763056D01*
X177711253Y-95621134D01*
X177556752Y-95508882D01*
X177550724Y-95506198D01*
X177550722Y-95506197D01*
X177388319Y-95433891D01*
X177388318Y-95433891D01*
X177382288Y-95431206D01*
X177288887Y-95411353D01*
X177201944Y-95392872D01*
X177201939Y-95392872D01*
X177195487Y-95391500D01*
X177004513Y-95391500D01*
X176998061Y-95392872D01*
X176998056Y-95392872D01*
X176911112Y-95411353D01*
X176817712Y-95431206D01*
X176811682Y-95433891D01*
X176811681Y-95433891D01*
X176649278Y-95506197D01*
X176649276Y-95506198D01*
X176643248Y-95508882D01*
X176488747Y-95621134D01*
X176484332Y-95626037D01*
X176479420Y-95630460D01*
X176478295Y-95629211D01*
X176424986Y-95662051D01*
X176391800Y-95666500D01*
X172108200Y-95666500D01*
X172040079Y-95646498D01*
X172020853Y-95630157D01*
X172020580Y-95630460D01*
X172015668Y-95626037D01*
X172011253Y-95621134D01*
X171856752Y-95508882D01*
X171850724Y-95506198D01*
X171850722Y-95506197D01*
X171688319Y-95433891D01*
X171688318Y-95433891D01*
X171682288Y-95431206D01*
X171588887Y-95411353D01*
X171501944Y-95392872D01*
X171501939Y-95392872D01*
X171495487Y-95391500D01*
X171304513Y-95391500D01*
X171298061Y-95392872D01*
X171298056Y-95392872D01*
X171211112Y-95411353D01*
X171117712Y-95431206D01*
X171111682Y-95433891D01*
X171111681Y-95433891D01*
X170949278Y-95506197D01*
X170949276Y-95506198D01*
X170943248Y-95508882D01*
X170937907Y-95512762D01*
X170937906Y-95512763D01*
X170824061Y-95595477D01*
X170757194Y-95619335D01*
X170688042Y-95603255D01*
X170675939Y-95595477D01*
X170562094Y-95512763D01*
X170562093Y-95512762D01*
X170556752Y-95508882D01*
X170550724Y-95506198D01*
X170550722Y-95506197D01*
X170388319Y-95433891D01*
X170388318Y-95433891D01*
X170382288Y-95431206D01*
X170288887Y-95411353D01*
X170201944Y-95392872D01*
X170201939Y-95392872D01*
X170195487Y-95391500D01*
X170004513Y-95391500D01*
X169998061Y-95392872D01*
X169998056Y-95392872D01*
X169911112Y-95411353D01*
X169817712Y-95431206D01*
X169811682Y-95433891D01*
X169811681Y-95433891D01*
X169649278Y-95506197D01*
X169649276Y-95506198D01*
X169643248Y-95508882D01*
X169488747Y-95621134D01*
X169360960Y-95763056D01*
X169265473Y-95928444D01*
X169206458Y-96110072D01*
X169186496Y-96300000D01*
X122708500Y-96300000D01*
X122708500Y-90669925D01*
X122728502Y-90601804D01*
X122745405Y-90580830D01*
X124680829Y-88645405D01*
X124743141Y-88611380D01*
X124769924Y-88608500D01*
X137303065Y-88608500D01*
X137371186Y-88628502D01*
X137417679Y-88682158D01*
X137427783Y-88752432D01*
X137398289Y-88817012D01*
X137378719Y-88835259D01*
X137304965Y-88890635D01*
X137150629Y-89052138D01*
X137147720Y-89056403D01*
X137147714Y-89056411D01*
X137076267Y-89161149D01*
X137024743Y-89236680D01*
X137009003Y-89270590D01*
X136947172Y-89403794D01*
X136930688Y-89439305D01*
X136870989Y-89654570D01*
X136847251Y-89876695D01*
X136847548Y-89881848D01*
X136847548Y-89881851D01*
X136853202Y-89979908D01*
X136860110Y-90099715D01*
X136861247Y-90104761D01*
X136861248Y-90104767D01*
X136867211Y-90131226D01*
X136909222Y-90317639D01*
X136993266Y-90524616D01*
X137040567Y-90601804D01*
X137107291Y-90710688D01*
X137109987Y-90715088D01*
X137256250Y-90883938D01*
X137428126Y-91026632D01*
X137621000Y-91139338D01*
X137829692Y-91219030D01*
X137834760Y-91220061D01*
X137834763Y-91220062D01*
X137942017Y-91241883D01*
X138048597Y-91263567D01*
X138053772Y-91263757D01*
X138053774Y-91263757D01*
X138266673Y-91271564D01*
X138266677Y-91271564D01*
X138271837Y-91271753D01*
X138276957Y-91271097D01*
X138276959Y-91271097D01*
X138488288Y-91244025D01*
X138488289Y-91244025D01*
X138493416Y-91243368D01*
X138498366Y-91241883D01*
X138702429Y-91180661D01*
X138702434Y-91180659D01*
X138707384Y-91179174D01*
X138907994Y-91080896D01*
X139089860Y-90951173D01*
X139248096Y-90793489D01*
X139307594Y-90710689D01*
X139378453Y-90612077D01*
X139379776Y-90613028D01*
X139426645Y-90569857D01*
X139496580Y-90557625D01*
X139562026Y-90585144D01*
X139589875Y-90616994D01*
X139649987Y-90715088D01*
X139796250Y-90883938D01*
X139968126Y-91026632D01*
X140161000Y-91139338D01*
X140369692Y-91219030D01*
X140374760Y-91220061D01*
X140374763Y-91220062D01*
X140482017Y-91241883D01*
X140588597Y-91263567D01*
X140593772Y-91263757D01*
X140593774Y-91263757D01*
X140806673Y-91271564D01*
X140806677Y-91271564D01*
X140811837Y-91271753D01*
X140816957Y-91271097D01*
X140816959Y-91271097D01*
X141028288Y-91244025D01*
X141028289Y-91244025D01*
X141033416Y-91243368D01*
X141038366Y-91241883D01*
X141242429Y-91180661D01*
X141242434Y-91180659D01*
X141247384Y-91179174D01*
X141447994Y-91080896D01*
X141629860Y-90951173D01*
X141788096Y-90793489D01*
X141847594Y-90710689D01*
X141918453Y-90612077D01*
X141919776Y-90613028D01*
X141966645Y-90569857D01*
X142036580Y-90557625D01*
X142102026Y-90585144D01*
X142129875Y-90616994D01*
X142189987Y-90715088D01*
X142336250Y-90883938D01*
X142508126Y-91026632D01*
X142701000Y-91139338D01*
X142909692Y-91219030D01*
X142914760Y-91220061D01*
X142914763Y-91220062D01*
X143022017Y-91241883D01*
X143128597Y-91263567D01*
X143133772Y-91263757D01*
X143133774Y-91263757D01*
X143346673Y-91271564D01*
X143346677Y-91271564D01*
X143351837Y-91271753D01*
X143356957Y-91271097D01*
X143356959Y-91271097D01*
X143568288Y-91244025D01*
X143568289Y-91244025D01*
X143573416Y-91243368D01*
X143578366Y-91241883D01*
X143782429Y-91180661D01*
X143782434Y-91180659D01*
X143787384Y-91179174D01*
X143987994Y-91080896D01*
X144169860Y-90951173D01*
X144328096Y-90793489D01*
X144387594Y-90710689D01*
X144458453Y-90612077D01*
X144459776Y-90613028D01*
X144506645Y-90569857D01*
X144576580Y-90557625D01*
X144642026Y-90585144D01*
X144669875Y-90616994D01*
X144729987Y-90715088D01*
X144876250Y-90883938D01*
X145048126Y-91026632D01*
X145241000Y-91139338D01*
X145449692Y-91219030D01*
X145454760Y-91220061D01*
X145454763Y-91220062D01*
X145562017Y-91241883D01*
X145668597Y-91263567D01*
X145673772Y-91263757D01*
X145673774Y-91263757D01*
X145886673Y-91271564D01*
X145886677Y-91271564D01*
X145891837Y-91271753D01*
X145896957Y-91271097D01*
X145896959Y-91271097D01*
X146108288Y-91244025D01*
X146108289Y-91244025D01*
X146113416Y-91243368D01*
X146118366Y-91241883D01*
X146322429Y-91180661D01*
X146322434Y-91180659D01*
X146327384Y-91179174D01*
X146527994Y-91080896D01*
X146709860Y-90951173D01*
X146868096Y-90793489D01*
X146927594Y-90710689D01*
X146998453Y-90612077D01*
X146999776Y-90613028D01*
X147046645Y-90569857D01*
X147116580Y-90557625D01*
X147182026Y-90585144D01*
X147209875Y-90616994D01*
X147269987Y-90715088D01*
X147416250Y-90883938D01*
X147588126Y-91026632D01*
X147781000Y-91139338D01*
X147989692Y-91219030D01*
X147994760Y-91220061D01*
X147994763Y-91220062D01*
X148102017Y-91241883D01*
X148208597Y-91263567D01*
X148213772Y-91263757D01*
X148213774Y-91263757D01*
X148426673Y-91271564D01*
X148426677Y-91271564D01*
X148431837Y-91271753D01*
X148436957Y-91271097D01*
X148436959Y-91271097D01*
X148648288Y-91244025D01*
X148648289Y-91244025D01*
X148653416Y-91243368D01*
X148658366Y-91241883D01*
X148862429Y-91180661D01*
X148862434Y-91180659D01*
X148867384Y-91179174D01*
X149067994Y-91080896D01*
X149249860Y-90951173D01*
X149408096Y-90793489D01*
X149467594Y-90710689D01*
X149538453Y-90612077D01*
X149539776Y-90613028D01*
X149586645Y-90569857D01*
X149656580Y-90557625D01*
X149722026Y-90585144D01*
X149749875Y-90616994D01*
X149809987Y-90715088D01*
X149956250Y-90883938D01*
X150128126Y-91026632D01*
X150321000Y-91139338D01*
X150529692Y-91219030D01*
X150534760Y-91220061D01*
X150534763Y-91220062D01*
X150642017Y-91241883D01*
X150748597Y-91263567D01*
X150753772Y-91263757D01*
X150753774Y-91263757D01*
X150966673Y-91271564D01*
X150966677Y-91271564D01*
X150971837Y-91271753D01*
X150976957Y-91271097D01*
X150976959Y-91271097D01*
X151188288Y-91244025D01*
X151188289Y-91244025D01*
X151193416Y-91243368D01*
X151198366Y-91241883D01*
X151402429Y-91180661D01*
X151402434Y-91180659D01*
X151407384Y-91179174D01*
X151607994Y-91080896D01*
X151789860Y-90951173D01*
X151948096Y-90793489D01*
X152007594Y-90710689D01*
X152078453Y-90612077D01*
X152079776Y-90613028D01*
X152126645Y-90569857D01*
X152196580Y-90557625D01*
X152262026Y-90585144D01*
X152289875Y-90616994D01*
X152349987Y-90715088D01*
X152496250Y-90883938D01*
X152668126Y-91026632D01*
X152861000Y-91139338D01*
X153069692Y-91219030D01*
X153074760Y-91220061D01*
X153074763Y-91220062D01*
X153182017Y-91241883D01*
X153288597Y-91263567D01*
X153293772Y-91263757D01*
X153293774Y-91263757D01*
X153506673Y-91271564D01*
X153506677Y-91271564D01*
X153511837Y-91271753D01*
X153516957Y-91271097D01*
X153516959Y-91271097D01*
X153728288Y-91244025D01*
X153728289Y-91244025D01*
X153733416Y-91243368D01*
X153738366Y-91241883D01*
X153942429Y-91180661D01*
X153942434Y-91180659D01*
X153947384Y-91179174D01*
X154147994Y-91080896D01*
X154329860Y-90951173D01*
X154488096Y-90793489D01*
X154547594Y-90710689D01*
X154618453Y-90612077D01*
X154619776Y-90613028D01*
X154666645Y-90569857D01*
X154736580Y-90557625D01*
X154802026Y-90585144D01*
X154829875Y-90616994D01*
X154889987Y-90715088D01*
X155036250Y-90883938D01*
X155208126Y-91026632D01*
X155401000Y-91139338D01*
X155609692Y-91219030D01*
X155614760Y-91220061D01*
X155614763Y-91220062D01*
X155722017Y-91241883D01*
X155828597Y-91263567D01*
X155833772Y-91263757D01*
X155833774Y-91263757D01*
X156046673Y-91271564D01*
X156046677Y-91271564D01*
X156051837Y-91271753D01*
X156056957Y-91271097D01*
X156056959Y-91271097D01*
X156268288Y-91244025D01*
X156268289Y-91244025D01*
X156273416Y-91243368D01*
X156278366Y-91241883D01*
X156482429Y-91180661D01*
X156482434Y-91180659D01*
X156487384Y-91179174D01*
X156687994Y-91080896D01*
X156869860Y-90951173D01*
X157028096Y-90793489D01*
X157087594Y-90710689D01*
X157158453Y-90612077D01*
X157159776Y-90613028D01*
X157206645Y-90569857D01*
X157276580Y-90557625D01*
X157342026Y-90585144D01*
X157369875Y-90616994D01*
X157429987Y-90715088D01*
X157576250Y-90883938D01*
X157748126Y-91026632D01*
X157941000Y-91139338D01*
X158149692Y-91219030D01*
X158154760Y-91220061D01*
X158154763Y-91220062D01*
X158262017Y-91241883D01*
X158368597Y-91263567D01*
X158373772Y-91263757D01*
X158373774Y-91263757D01*
X158586673Y-91271564D01*
X158586677Y-91271564D01*
X158591837Y-91271753D01*
X158596957Y-91271097D01*
X158596959Y-91271097D01*
X158808288Y-91244025D01*
X158808289Y-91244025D01*
X158813416Y-91243368D01*
X158818366Y-91241883D01*
X159022429Y-91180661D01*
X159022434Y-91180659D01*
X159027384Y-91179174D01*
X159227994Y-91080896D01*
X159409860Y-90951173D01*
X159568096Y-90793489D01*
X159627594Y-90710689D01*
X159698453Y-90612077D01*
X159699776Y-90613028D01*
X159746645Y-90569857D01*
X159816580Y-90557625D01*
X159882026Y-90585144D01*
X159909875Y-90616994D01*
X159969987Y-90715088D01*
X160116250Y-90883938D01*
X160288126Y-91026632D01*
X160481000Y-91139338D01*
X160689692Y-91219030D01*
X160694760Y-91220061D01*
X160694763Y-91220062D01*
X160802017Y-91241883D01*
X160908597Y-91263567D01*
X160913772Y-91263757D01*
X160913774Y-91263757D01*
X161126673Y-91271564D01*
X161126677Y-91271564D01*
X161131837Y-91271753D01*
X161136957Y-91271097D01*
X161136959Y-91271097D01*
X161348288Y-91244025D01*
X161348289Y-91244025D01*
X161353416Y-91243368D01*
X161358366Y-91241883D01*
X161562429Y-91180661D01*
X161562434Y-91180659D01*
X161567384Y-91179174D01*
X161767994Y-91080896D01*
X161949860Y-90951173D01*
X162108096Y-90793489D01*
X162167594Y-90710689D01*
X162238453Y-90612077D01*
X162239776Y-90613028D01*
X162286645Y-90569857D01*
X162356580Y-90557625D01*
X162422026Y-90585144D01*
X162449875Y-90616994D01*
X162509987Y-90715088D01*
X162656250Y-90883938D01*
X162828126Y-91026632D01*
X163021000Y-91139338D01*
X163229692Y-91219030D01*
X163234760Y-91220061D01*
X163234763Y-91220062D01*
X163342017Y-91241883D01*
X163448597Y-91263567D01*
X163453772Y-91263757D01*
X163453774Y-91263757D01*
X163666673Y-91271564D01*
X163666677Y-91271564D01*
X163671837Y-91271753D01*
X163676957Y-91271097D01*
X163676959Y-91271097D01*
X163888288Y-91244025D01*
X163888289Y-91244025D01*
X163893416Y-91243368D01*
X163898366Y-91241883D01*
X164102429Y-91180661D01*
X164102434Y-91180659D01*
X164107384Y-91179174D01*
X164307994Y-91080896D01*
X164489860Y-90951173D01*
X164648096Y-90793489D01*
X164707594Y-90710689D01*
X164778453Y-90612077D01*
X164779776Y-90613028D01*
X164826645Y-90569857D01*
X164896580Y-90557625D01*
X164962026Y-90585144D01*
X164989875Y-90616994D01*
X165049987Y-90715088D01*
X165196250Y-90883938D01*
X165368126Y-91026632D01*
X165561000Y-91139338D01*
X165769692Y-91219030D01*
X165774760Y-91220061D01*
X165774763Y-91220062D01*
X165882017Y-91241883D01*
X165988597Y-91263567D01*
X165993772Y-91263757D01*
X165993774Y-91263757D01*
X166206673Y-91271564D01*
X166206677Y-91271564D01*
X166211837Y-91271753D01*
X166216957Y-91271097D01*
X166216959Y-91271097D01*
X166428288Y-91244025D01*
X166428289Y-91244025D01*
X166433416Y-91243368D01*
X166438366Y-91241883D01*
X166642429Y-91180661D01*
X166642434Y-91180659D01*
X166647384Y-91179174D01*
X166847994Y-91080896D01*
X167029860Y-90951173D01*
X167188096Y-90793489D01*
X167247594Y-90710689D01*
X167315435Y-90616277D01*
X167318453Y-90612077D01*
X167339320Y-90569857D01*
X167415136Y-90416453D01*
X167415137Y-90416451D01*
X167417430Y-90411811D01*
X167482370Y-90198069D01*
X167511529Y-89976590D01*
X167513156Y-89910000D01*
X167494852Y-89687361D01*
X167472908Y-89600000D01*
X174086496Y-89600000D01*
X174106458Y-89789928D01*
X174165473Y-89971556D01*
X174260960Y-90136944D01*
X174388747Y-90278866D01*
X174543248Y-90391118D01*
X174549276Y-90393802D01*
X174549278Y-90393803D01*
X174711681Y-90466109D01*
X174717712Y-90468794D01*
X174811113Y-90488647D01*
X174898056Y-90507128D01*
X174898061Y-90507128D01*
X174904513Y-90508500D01*
X175095487Y-90508500D01*
X175101939Y-90507128D01*
X175101944Y-90507128D01*
X175188887Y-90488647D01*
X175282288Y-90468794D01*
X175288319Y-90466109D01*
X175450722Y-90393803D01*
X175450724Y-90393802D01*
X175456752Y-90391118D01*
X175611253Y-90278866D01*
X175739040Y-90136944D01*
X175834527Y-89971556D01*
X175893542Y-89789928D01*
X175913504Y-89600000D01*
X175900442Y-89475720D01*
X175894232Y-89416635D01*
X175894232Y-89416633D01*
X175893542Y-89410072D01*
X175834527Y-89228444D01*
X175823163Y-89208760D01*
X175752007Y-89085516D01*
X175739040Y-89063056D01*
X175665863Y-88981785D01*
X175635147Y-88917779D01*
X175633500Y-88897476D01*
X175633500Y-87023709D01*
X175653502Y-86955588D01*
X175707158Y-86909095D01*
X175733303Y-86900462D01*
X175754292Y-86896001D01*
X175882288Y-86868794D01*
X175888319Y-86866109D01*
X176050722Y-86793803D01*
X176050724Y-86793802D01*
X176056752Y-86791118D01*
X176108624Y-86753431D01*
X176172120Y-86707298D01*
X176211253Y-86678866D01*
X176215675Y-86673955D01*
X176334621Y-86541852D01*
X176334622Y-86541851D01*
X176339040Y-86536944D01*
X176434527Y-86371556D01*
X176493542Y-86189928D01*
X176496785Y-86159079D01*
X176512814Y-86006565D01*
X176513504Y-86000000D01*
X176493542Y-85810072D01*
X176434527Y-85628444D01*
X176339040Y-85463056D01*
X176239383Y-85352375D01*
X176215675Y-85326045D01*
X176215674Y-85326044D01*
X176211253Y-85321134D01*
X176056752Y-85208882D01*
X176050724Y-85206198D01*
X176050722Y-85206197D01*
X175888319Y-85133891D01*
X175888318Y-85133891D01*
X175882288Y-85131206D01*
X175788888Y-85111353D01*
X175701944Y-85092872D01*
X175701939Y-85092872D01*
X175695487Y-85091500D01*
X175504513Y-85091500D01*
X175498061Y-85092872D01*
X175498056Y-85092872D01*
X175411112Y-85111353D01*
X175317712Y-85131206D01*
X175311682Y-85133891D01*
X175311681Y-85133891D01*
X175149278Y-85206197D01*
X175149276Y-85206198D01*
X175143248Y-85208882D01*
X174988747Y-85321134D01*
X174984326Y-85326044D01*
X174984325Y-85326045D01*
X174960618Y-85352375D01*
X174860960Y-85463056D01*
X174765473Y-85628444D01*
X174706458Y-85810072D01*
X174705768Y-85816633D01*
X174705768Y-85816635D01*
X174689093Y-85975292D01*
X174662080Y-86040949D01*
X174652878Y-86051217D01*
X174607747Y-86096348D01*
X174599461Y-86103888D01*
X174592982Y-86108000D01*
X174587557Y-86113777D01*
X174546357Y-86157651D01*
X174543602Y-86160493D01*
X174523865Y-86180230D01*
X174521385Y-86183427D01*
X174513682Y-86192447D01*
X174483414Y-86224679D01*
X174479595Y-86231625D01*
X174479593Y-86231628D01*
X174473652Y-86242434D01*
X174462801Y-86258953D01*
X174450386Y-86274959D01*
X174447241Y-86282228D01*
X174447238Y-86282232D01*
X174432826Y-86315537D01*
X174427609Y-86326187D01*
X174406305Y-86364940D01*
X174404334Y-86372615D01*
X174404334Y-86372616D01*
X174401267Y-86384562D01*
X174394863Y-86403266D01*
X174386819Y-86421855D01*
X174385580Y-86429678D01*
X174385577Y-86429688D01*
X174379901Y-86465524D01*
X174377495Y-86477144D01*
X174366500Y-86519970D01*
X174366500Y-86540224D01*
X174364949Y-86559934D01*
X174361780Y-86579943D01*
X174362526Y-86587835D01*
X174365941Y-86623961D01*
X174366500Y-86635819D01*
X174366500Y-88897476D01*
X174346498Y-88965597D01*
X174334142Y-88981779D01*
X174260960Y-89063056D01*
X174247993Y-89085516D01*
X174176838Y-89208760D01*
X174165473Y-89228444D01*
X174106458Y-89410072D01*
X174105768Y-89416633D01*
X174105768Y-89416635D01*
X174099558Y-89475720D01*
X174086496Y-89600000D01*
X167472908Y-89600000D01*
X167440431Y-89470702D01*
X167351354Y-89265840D01*
X167230014Y-89078277D01*
X167079670Y-88913051D01*
X167075616Y-88909849D01*
X167075615Y-88909848D01*
X166908414Y-88777800D01*
X166908410Y-88777798D01*
X166904359Y-88774598D01*
X166708789Y-88666638D01*
X166703920Y-88664914D01*
X166703916Y-88664912D01*
X166503087Y-88593795D01*
X166503083Y-88593794D01*
X166498212Y-88592069D01*
X166493119Y-88591162D01*
X166493116Y-88591161D01*
X166283373Y-88553800D01*
X166283367Y-88553799D01*
X166278284Y-88552894D01*
X166204452Y-88551992D01*
X166060081Y-88550228D01*
X166060079Y-88550228D01*
X166054911Y-88550165D01*
X165834091Y-88583955D01*
X165621756Y-88653357D01*
X165423607Y-88756507D01*
X165419474Y-88759610D01*
X165419471Y-88759612D01*
X165249100Y-88887530D01*
X165244965Y-88890635D01*
X165090629Y-89052138D01*
X164983201Y-89209621D01*
X164928293Y-89254621D01*
X164857768Y-89262792D01*
X164794021Y-89231538D01*
X164773324Y-89207054D01*
X164692822Y-89082617D01*
X164692820Y-89082614D01*
X164690014Y-89078277D01*
X164539670Y-88913051D01*
X164535616Y-88909849D01*
X164535615Y-88909848D01*
X164368414Y-88777800D01*
X164368410Y-88777798D01*
X164364359Y-88774598D01*
X164168789Y-88666638D01*
X164163920Y-88664914D01*
X164163916Y-88664912D01*
X163963087Y-88593795D01*
X163963083Y-88593794D01*
X163958212Y-88592069D01*
X163953119Y-88591162D01*
X163953116Y-88591161D01*
X163743373Y-88553800D01*
X163743367Y-88553799D01*
X163738284Y-88552894D01*
X163664452Y-88551992D01*
X163520081Y-88550228D01*
X163520079Y-88550228D01*
X163514911Y-88550165D01*
X163294091Y-88583955D01*
X163081756Y-88653357D01*
X162883607Y-88756507D01*
X162879474Y-88759610D01*
X162879471Y-88759612D01*
X162709100Y-88887530D01*
X162704965Y-88890635D01*
X162550629Y-89052138D01*
X162443201Y-89209621D01*
X162388293Y-89254621D01*
X162317768Y-89262792D01*
X162254021Y-89231538D01*
X162233324Y-89207054D01*
X162152822Y-89082617D01*
X162152820Y-89082614D01*
X162150014Y-89078277D01*
X161999670Y-88913051D01*
X161995616Y-88909849D01*
X161995615Y-88909848D01*
X161828414Y-88777800D01*
X161828410Y-88777798D01*
X161824359Y-88774598D01*
X161628789Y-88666638D01*
X161623920Y-88664914D01*
X161623916Y-88664912D01*
X161423087Y-88593795D01*
X161423083Y-88593794D01*
X161418212Y-88592069D01*
X161413119Y-88591162D01*
X161413116Y-88591161D01*
X161203373Y-88553800D01*
X161203367Y-88553799D01*
X161198284Y-88552894D01*
X161124452Y-88551992D01*
X160980081Y-88550228D01*
X160980079Y-88550228D01*
X160974911Y-88550165D01*
X160754091Y-88583955D01*
X160541756Y-88653357D01*
X160343607Y-88756507D01*
X160339474Y-88759610D01*
X160339471Y-88759612D01*
X160169100Y-88887530D01*
X160164965Y-88890635D01*
X160010629Y-89052138D01*
X159903201Y-89209621D01*
X159848293Y-89254621D01*
X159777768Y-89262792D01*
X159714021Y-89231538D01*
X159693324Y-89207054D01*
X159612822Y-89082617D01*
X159612820Y-89082614D01*
X159610014Y-89078277D01*
X159459670Y-88913051D01*
X159455616Y-88909849D01*
X159455615Y-88909848D01*
X159288414Y-88777800D01*
X159288410Y-88777798D01*
X159284359Y-88774598D01*
X159088789Y-88666638D01*
X159083920Y-88664914D01*
X159083916Y-88664912D01*
X158883087Y-88593795D01*
X158883083Y-88593794D01*
X158878212Y-88592069D01*
X158873119Y-88591162D01*
X158873116Y-88591161D01*
X158663373Y-88553800D01*
X158663367Y-88553799D01*
X158658284Y-88552894D01*
X158584452Y-88551992D01*
X158440081Y-88550228D01*
X158440079Y-88550228D01*
X158434911Y-88550165D01*
X158214091Y-88583955D01*
X158001756Y-88653357D01*
X157803607Y-88756507D01*
X157799474Y-88759610D01*
X157799471Y-88759612D01*
X157629100Y-88887530D01*
X157624965Y-88890635D01*
X157470629Y-89052138D01*
X157363201Y-89209621D01*
X157308293Y-89254621D01*
X157237768Y-89262792D01*
X157174021Y-89231538D01*
X157153324Y-89207054D01*
X157072822Y-89082617D01*
X157072820Y-89082614D01*
X157070014Y-89078277D01*
X156919670Y-88913051D01*
X156915616Y-88909849D01*
X156915615Y-88909848D01*
X156748414Y-88777800D01*
X156748410Y-88777798D01*
X156744359Y-88774598D01*
X156548789Y-88666638D01*
X156543920Y-88664914D01*
X156543916Y-88664912D01*
X156343087Y-88593795D01*
X156343083Y-88593794D01*
X156338212Y-88592069D01*
X156333119Y-88591162D01*
X156333116Y-88591161D01*
X156123373Y-88553800D01*
X156123367Y-88553799D01*
X156118284Y-88552894D01*
X156044452Y-88551992D01*
X155900081Y-88550228D01*
X155900079Y-88550228D01*
X155894911Y-88550165D01*
X155674091Y-88583955D01*
X155461756Y-88653357D01*
X155263607Y-88756507D01*
X155259474Y-88759610D01*
X155259471Y-88759612D01*
X155089100Y-88887530D01*
X155084965Y-88890635D01*
X154930629Y-89052138D01*
X154823201Y-89209621D01*
X154768293Y-89254621D01*
X154697768Y-89262792D01*
X154634021Y-89231538D01*
X154613324Y-89207054D01*
X154532822Y-89082617D01*
X154532820Y-89082614D01*
X154530014Y-89078277D01*
X154379670Y-88913051D01*
X154375616Y-88909849D01*
X154375615Y-88909848D01*
X154208414Y-88777800D01*
X154208410Y-88777798D01*
X154204359Y-88774598D01*
X154008789Y-88666638D01*
X154003920Y-88664914D01*
X154003916Y-88664912D01*
X153803087Y-88593795D01*
X153803083Y-88593794D01*
X153798212Y-88592069D01*
X153793119Y-88591162D01*
X153793116Y-88591161D01*
X153583373Y-88553800D01*
X153583367Y-88553799D01*
X153578284Y-88552894D01*
X153504452Y-88551992D01*
X153360081Y-88550228D01*
X153360079Y-88550228D01*
X153354911Y-88550165D01*
X153134091Y-88583955D01*
X152921756Y-88653357D01*
X152723607Y-88756507D01*
X152719474Y-88759610D01*
X152719471Y-88759612D01*
X152549100Y-88887530D01*
X152544965Y-88890635D01*
X152390629Y-89052138D01*
X152283201Y-89209621D01*
X152228293Y-89254621D01*
X152157768Y-89262792D01*
X152094021Y-89231538D01*
X152073324Y-89207054D01*
X151992822Y-89082617D01*
X151992820Y-89082614D01*
X151990014Y-89078277D01*
X151839670Y-88913051D01*
X151835616Y-88909849D01*
X151835615Y-88909848D01*
X151668414Y-88777800D01*
X151668410Y-88777798D01*
X151664359Y-88774598D01*
X151468789Y-88666638D01*
X151463920Y-88664914D01*
X151463916Y-88664912D01*
X151263087Y-88593795D01*
X151263083Y-88593794D01*
X151258212Y-88592069D01*
X151253119Y-88591162D01*
X151253116Y-88591161D01*
X151043373Y-88553800D01*
X151043367Y-88553799D01*
X151038284Y-88552894D01*
X150964452Y-88551992D01*
X150820081Y-88550228D01*
X150820079Y-88550228D01*
X150814911Y-88550165D01*
X150594091Y-88583955D01*
X150381756Y-88653357D01*
X150183607Y-88756507D01*
X150179474Y-88759610D01*
X150179471Y-88759612D01*
X150009100Y-88887530D01*
X150004965Y-88890635D01*
X149850629Y-89052138D01*
X149743201Y-89209621D01*
X149688293Y-89254621D01*
X149617768Y-89262792D01*
X149554021Y-89231538D01*
X149533324Y-89207054D01*
X149452822Y-89082617D01*
X149452820Y-89082614D01*
X149450014Y-89078277D01*
X149299670Y-88913051D01*
X149295616Y-88909849D01*
X149295615Y-88909848D01*
X149128414Y-88777800D01*
X149128410Y-88777798D01*
X149124359Y-88774598D01*
X148928789Y-88666638D01*
X148923920Y-88664914D01*
X148923916Y-88664912D01*
X148723087Y-88593795D01*
X148723083Y-88593794D01*
X148718212Y-88592069D01*
X148713119Y-88591162D01*
X148713116Y-88591161D01*
X148503373Y-88553800D01*
X148503367Y-88553799D01*
X148498284Y-88552894D01*
X148424452Y-88551992D01*
X148280081Y-88550228D01*
X148280079Y-88550228D01*
X148274911Y-88550165D01*
X148054091Y-88583955D01*
X147841756Y-88653357D01*
X147643607Y-88756507D01*
X147639474Y-88759610D01*
X147639471Y-88759612D01*
X147469100Y-88887530D01*
X147464965Y-88890635D01*
X147310629Y-89052138D01*
X147203201Y-89209621D01*
X147148293Y-89254621D01*
X147077768Y-89262792D01*
X147014021Y-89231538D01*
X146993324Y-89207054D01*
X146912822Y-89082617D01*
X146912820Y-89082614D01*
X146910014Y-89078277D01*
X146759670Y-88913051D01*
X146755616Y-88909849D01*
X146755615Y-88909848D01*
X146588414Y-88777800D01*
X146588410Y-88777798D01*
X146584359Y-88774598D01*
X146388789Y-88666638D01*
X146383920Y-88664914D01*
X146383916Y-88664912D01*
X146183087Y-88593795D01*
X146183083Y-88593794D01*
X146178212Y-88592069D01*
X146173119Y-88591162D01*
X146173116Y-88591161D01*
X145963373Y-88553800D01*
X145963367Y-88553799D01*
X145958284Y-88552894D01*
X145884452Y-88551992D01*
X145740081Y-88550228D01*
X145740079Y-88550228D01*
X145734911Y-88550165D01*
X145514091Y-88583955D01*
X145301756Y-88653357D01*
X145103607Y-88756507D01*
X145099474Y-88759610D01*
X145099471Y-88759612D01*
X144929100Y-88887530D01*
X144924965Y-88890635D01*
X144770629Y-89052138D01*
X144663201Y-89209621D01*
X144608293Y-89254621D01*
X144537768Y-89262792D01*
X144474021Y-89231538D01*
X144453324Y-89207054D01*
X144372822Y-89082617D01*
X144372820Y-89082614D01*
X144370014Y-89078277D01*
X144219670Y-88913051D01*
X144215616Y-88909849D01*
X144215615Y-88909848D01*
X144048414Y-88777800D01*
X144048410Y-88777798D01*
X144044359Y-88774598D01*
X143848789Y-88666638D01*
X143843920Y-88664914D01*
X143843916Y-88664912D01*
X143643087Y-88593795D01*
X143643083Y-88593794D01*
X143638212Y-88592069D01*
X143633119Y-88591162D01*
X143633116Y-88591161D01*
X143423373Y-88553800D01*
X143423367Y-88553799D01*
X143418284Y-88552894D01*
X143344452Y-88551992D01*
X143200081Y-88550228D01*
X143200079Y-88550228D01*
X143194911Y-88550165D01*
X142974091Y-88583955D01*
X142761756Y-88653357D01*
X142563607Y-88756507D01*
X142559474Y-88759610D01*
X142559471Y-88759612D01*
X142389100Y-88887530D01*
X142384965Y-88890635D01*
X142230629Y-89052138D01*
X142123201Y-89209621D01*
X142068293Y-89254621D01*
X141997768Y-89262792D01*
X141934021Y-89231538D01*
X141913324Y-89207054D01*
X141832822Y-89082617D01*
X141832820Y-89082614D01*
X141830014Y-89078277D01*
X141679670Y-88913051D01*
X141571326Y-88827486D01*
X141530264Y-88769570D01*
X141527032Y-88698647D01*
X141562657Y-88637235D01*
X141625828Y-88604833D01*
X141638437Y-88603084D01*
X141670098Y-88600314D01*
X141718413Y-88596087D01*
X141723532Y-88594600D01*
X141728833Y-88594080D01*
X141817834Y-88567209D01*
X141818967Y-88566874D01*
X141902414Y-88542630D01*
X141902418Y-88542628D01*
X141908336Y-88540909D01*
X141913068Y-88538456D01*
X141918169Y-88536916D01*
X141923612Y-88534022D01*
X142000260Y-88493269D01*
X142001426Y-88492657D01*
X142078453Y-88452729D01*
X142083926Y-88449892D01*
X142088089Y-88446569D01*
X142092796Y-88444066D01*
X142164918Y-88385245D01*
X142165774Y-88384554D01*
X142204973Y-88353262D01*
X142207477Y-88350758D01*
X142208195Y-88350116D01*
X142212528Y-88346415D01*
X142246062Y-88319065D01*
X142275288Y-88283737D01*
X142283277Y-88274958D01*
X147144452Y-83413783D01*
X147206764Y-83379757D01*
X147217534Y-83377899D01*
X147373433Y-83357928D01*
X147388288Y-83356025D01*
X147388289Y-83356025D01*
X147393416Y-83355368D01*
X147417318Y-83348197D01*
X147602429Y-83292661D01*
X147602434Y-83292659D01*
X147607384Y-83291174D01*
X147807994Y-83192896D01*
X147989860Y-83063173D01*
X148148096Y-82905489D01*
X148278453Y-82724077D01*
X148377430Y-82523811D01*
X148384664Y-82500000D01*
X170782502Y-82500000D01*
X170802457Y-82728087D01*
X170803881Y-82733400D01*
X170803881Y-82733402D01*
X170850970Y-82909137D01*
X170861716Y-82949243D01*
X170864039Y-82954224D01*
X170864039Y-82954225D01*
X170956151Y-83151762D01*
X170956154Y-83151767D01*
X170958477Y-83156749D01*
X171089802Y-83344300D01*
X171251700Y-83506198D01*
X171256208Y-83509355D01*
X171256211Y-83509357D01*
X171272499Y-83520762D01*
X171439251Y-83637523D01*
X171444233Y-83639846D01*
X171444238Y-83639849D01*
X171641775Y-83731961D01*
X171646757Y-83734284D01*
X171652065Y-83735706D01*
X171652067Y-83735707D01*
X171862598Y-83792119D01*
X171862600Y-83792119D01*
X171867913Y-83793543D01*
X172096000Y-83813498D01*
X172324087Y-83793543D01*
X172329400Y-83792119D01*
X172329402Y-83792119D01*
X172539933Y-83735707D01*
X172539935Y-83735706D01*
X172545243Y-83734284D01*
X172550225Y-83731961D01*
X172747762Y-83639849D01*
X172747767Y-83639846D01*
X172752749Y-83637523D01*
X172919501Y-83520762D01*
X172935789Y-83509357D01*
X172935792Y-83509355D01*
X172940300Y-83506198D01*
X173102198Y-83344300D01*
X173233523Y-83156749D01*
X173235846Y-83151767D01*
X173235849Y-83151762D01*
X173327961Y-82954225D01*
X173327961Y-82954224D01*
X173330284Y-82949243D01*
X173341031Y-82909137D01*
X173388119Y-82733402D01*
X173388119Y-82733400D01*
X173389543Y-82728087D01*
X173409498Y-82500000D01*
X173389543Y-82271913D01*
X173388119Y-82266598D01*
X173331707Y-82056067D01*
X173331706Y-82056065D01*
X173330284Y-82050757D01*
X173318444Y-82025365D01*
X173235849Y-81848238D01*
X173235846Y-81848233D01*
X173233523Y-81843251D01*
X173102198Y-81655700D01*
X172940300Y-81493802D01*
X172935792Y-81490645D01*
X172935789Y-81490643D01*
X172781473Y-81382590D01*
X172752749Y-81362477D01*
X172747767Y-81360154D01*
X172747762Y-81360151D01*
X172550225Y-81268039D01*
X172550224Y-81268039D01*
X172545243Y-81265716D01*
X172539935Y-81264294D01*
X172539933Y-81264293D01*
X172329402Y-81207881D01*
X172329400Y-81207881D01*
X172324087Y-81206457D01*
X172096000Y-81186502D01*
X171867913Y-81206457D01*
X171862600Y-81207881D01*
X171862598Y-81207881D01*
X171652067Y-81264293D01*
X171652065Y-81264294D01*
X171646757Y-81265716D01*
X171641776Y-81268039D01*
X171641775Y-81268039D01*
X171444238Y-81360151D01*
X171444233Y-81360154D01*
X171439251Y-81362477D01*
X171410527Y-81382590D01*
X171256211Y-81490643D01*
X171256208Y-81490645D01*
X171251700Y-81493802D01*
X171089802Y-81655700D01*
X170958477Y-81843251D01*
X170956154Y-81848233D01*
X170956151Y-81848238D01*
X170873556Y-82025365D01*
X170861716Y-82050757D01*
X170860294Y-82056065D01*
X170860293Y-82056067D01*
X170803881Y-82266598D01*
X170802457Y-82271913D01*
X170782502Y-82500000D01*
X148384664Y-82500000D01*
X148442370Y-82310069D01*
X148471529Y-82088590D01*
X148472324Y-82056067D01*
X148473074Y-82025365D01*
X148473074Y-82025361D01*
X148473156Y-82022000D01*
X148454852Y-81799361D01*
X148400431Y-81582702D01*
X148311354Y-81377840D01*
X148201403Y-81207881D01*
X148192822Y-81194617D01*
X148192820Y-81194614D01*
X148190014Y-81190277D01*
X148039670Y-81025051D01*
X148035619Y-81021852D01*
X148035615Y-81021848D01*
X147868414Y-80889800D01*
X147868410Y-80889798D01*
X147864359Y-80886598D01*
X147822569Y-80863529D01*
X147772598Y-80813097D01*
X147757826Y-80743654D01*
X147782942Y-80677248D01*
X147810293Y-80650642D01*
X147859247Y-80615723D01*
X147867648Y-80605023D01*
X147860660Y-80591870D01*
X147122812Y-79854022D01*
X147108868Y-79846408D01*
X147107035Y-79846539D01*
X147100420Y-79850790D01*
X146356737Y-80594473D01*
X146349977Y-80606853D01*
X146355258Y-80613907D01*
X146401969Y-80641203D01*
X146450693Y-80692841D01*
X146463764Y-80762624D01*
X146437033Y-80828396D01*
X146396584Y-80861752D01*
X146383607Y-80868507D01*
X146379474Y-80871610D01*
X146379471Y-80871612D01*
X146355247Y-80889800D01*
X146204965Y-81002635D01*
X146050629Y-81164138D01*
X146047715Y-81168410D01*
X146047714Y-81168411D01*
X145982308Y-81264293D01*
X145924743Y-81348680D01*
X145830688Y-81551305D01*
X145770989Y-81766570D01*
X145770440Y-81771707D01*
X145755590Y-81910661D01*
X145728462Y-81976271D01*
X145719398Y-81986367D01*
X141151171Y-86554595D01*
X141088859Y-86588621D01*
X141062076Y-86591500D01*
X124361842Y-86591500D01*
X124348235Y-86590763D01*
X124316737Y-86587341D01*
X124316732Y-86587341D01*
X124310611Y-86586676D01*
X124292611Y-86588251D01*
X124260609Y-86591050D01*
X124255784Y-86591379D01*
X124253313Y-86591500D01*
X124250231Y-86591500D01*
X124227763Y-86593703D01*
X124207489Y-86595691D01*
X124206174Y-86595813D01*
X124173913Y-86598636D01*
X124113587Y-86603913D01*
X124108468Y-86605400D01*
X124103167Y-86605920D01*
X124014194Y-86632782D01*
X124013054Y-86633120D01*
X123923663Y-86659091D01*
X123918929Y-86661545D01*
X123913831Y-86663084D01*
X123908387Y-86665978D01*
X123908386Y-86665979D01*
X123831831Y-86706684D01*
X123830663Y-86707298D01*
X123748074Y-86750108D01*
X123743911Y-86753431D01*
X123739204Y-86755934D01*
X123667082Y-86814755D01*
X123666226Y-86815446D01*
X123627027Y-86846738D01*
X123624523Y-86849242D01*
X123623805Y-86849884D01*
X123619472Y-86853585D01*
X123585938Y-86880935D01*
X123582011Y-86885682D01*
X123582009Y-86885684D01*
X123556713Y-86916262D01*
X123548723Y-86925042D01*
X121299031Y-89174735D01*
X121236719Y-89208760D01*
X121165904Y-89203696D01*
X121109068Y-89161149D01*
X121084257Y-89094629D01*
X121083936Y-89085516D01*
X121087238Y-85717013D01*
X124960542Y-85717013D01*
X124969838Y-85729028D01*
X125026446Y-85768665D01*
X125035941Y-85774148D01*
X125237364Y-85868072D01*
X125247656Y-85871818D01*
X125462328Y-85929339D01*
X125473123Y-85931242D01*
X125694525Y-85950613D01*
X125705475Y-85950613D01*
X125926877Y-85931242D01*
X125937672Y-85929339D01*
X126152344Y-85871818D01*
X126162636Y-85868072D01*
X126364059Y-85774148D01*
X126373554Y-85768665D01*
X126431000Y-85728441D01*
X126439375Y-85717964D01*
X126432307Y-85704517D01*
X125712812Y-84985022D01*
X125698868Y-84977408D01*
X125697035Y-84977539D01*
X125690420Y-84981790D01*
X124966972Y-85705238D01*
X124960542Y-85717013D01*
X121087238Y-85717013D01*
X121088315Y-84618475D01*
X124362387Y-84618475D01*
X124381758Y-84839877D01*
X124383661Y-84850672D01*
X124441182Y-85065344D01*
X124444928Y-85075636D01*
X124538852Y-85277059D01*
X124544335Y-85286554D01*
X124584559Y-85344000D01*
X124595036Y-85352375D01*
X124608483Y-85345307D01*
X125327978Y-84625812D01*
X125334356Y-84614132D01*
X126064408Y-84614132D01*
X126064539Y-84615965D01*
X126068790Y-84622580D01*
X126792238Y-85346028D01*
X126804013Y-85352458D01*
X126816028Y-85343162D01*
X126855665Y-85286554D01*
X126861148Y-85277059D01*
X126955072Y-85075636D01*
X126958818Y-85065344D01*
X127016339Y-84850672D01*
X127018242Y-84839877D01*
X127037613Y-84618475D01*
X127037613Y-84607525D01*
X127018242Y-84386123D01*
X127016339Y-84375328D01*
X126958818Y-84160656D01*
X126955072Y-84150364D01*
X126861148Y-83948941D01*
X126855665Y-83939446D01*
X126815441Y-83882000D01*
X126804964Y-83873625D01*
X126791517Y-83880693D01*
X126072022Y-84600188D01*
X126064408Y-84614132D01*
X125334356Y-84614132D01*
X125335592Y-84611868D01*
X125335461Y-84610035D01*
X125331210Y-84603420D01*
X124607762Y-83879972D01*
X124595987Y-83873542D01*
X124583972Y-83882838D01*
X124544335Y-83939446D01*
X124538852Y-83948941D01*
X124444928Y-84150364D01*
X124441182Y-84160656D01*
X124383661Y-84375328D01*
X124381758Y-84386123D01*
X124362387Y-84607525D01*
X124362387Y-84618475D01*
X121088315Y-84618475D01*
X121089105Y-83813019D01*
X121089404Y-83508036D01*
X124960625Y-83508036D01*
X124967693Y-83521483D01*
X125687188Y-84240978D01*
X125701132Y-84248592D01*
X125702965Y-84248461D01*
X125709580Y-84244210D01*
X126433028Y-83520762D01*
X126439458Y-83508987D01*
X126430162Y-83496972D01*
X126373554Y-83457335D01*
X126364059Y-83451852D01*
X126162636Y-83357928D01*
X126152344Y-83354182D01*
X125937672Y-83296661D01*
X125926877Y-83294758D01*
X125705475Y-83275387D01*
X125694525Y-83275387D01*
X125473123Y-83294758D01*
X125462328Y-83296661D01*
X125247656Y-83354182D01*
X125237364Y-83357928D01*
X125035941Y-83451852D01*
X125026446Y-83457335D01*
X124969000Y-83497559D01*
X124960625Y-83508036D01*
X121089404Y-83508036D01*
X121091752Y-81113000D01*
X129361406Y-81113000D01*
X129381742Y-81345444D01*
X129383166Y-81350757D01*
X129383166Y-81350759D01*
X129422539Y-81497699D01*
X129442133Y-81570826D01*
X129444455Y-81575806D01*
X129444456Y-81575808D01*
X129538418Y-81777310D01*
X129538421Y-81777315D01*
X129540744Y-81782297D01*
X129674578Y-81973432D01*
X129839568Y-82138422D01*
X129844076Y-82141579D01*
X129844079Y-82141581D01*
X130026194Y-82269099D01*
X130030703Y-82272256D01*
X130035685Y-82274579D01*
X130035690Y-82274582D01*
X130237192Y-82368544D01*
X130242174Y-82370867D01*
X130247482Y-82372289D01*
X130247484Y-82372290D01*
X130462241Y-82429834D01*
X130462243Y-82429834D01*
X130467556Y-82431258D01*
X130700000Y-82451594D01*
X130932444Y-82431258D01*
X130937757Y-82429834D01*
X130937759Y-82429834D01*
X131152516Y-82372290D01*
X131152518Y-82372289D01*
X131157826Y-82370867D01*
X131162808Y-82368544D01*
X131364310Y-82274582D01*
X131364315Y-82274579D01*
X131369297Y-82272256D01*
X131373806Y-82269099D01*
X131555921Y-82141581D01*
X131555924Y-82141579D01*
X131560432Y-82138422D01*
X131725422Y-81973432D01*
X131859256Y-81782297D01*
X131861579Y-81777315D01*
X131861582Y-81777310D01*
X131955544Y-81575808D01*
X131955545Y-81575806D01*
X131957867Y-81570826D01*
X131977462Y-81497699D01*
X132016834Y-81350759D01*
X132016834Y-81350757D01*
X132018258Y-81345444D01*
X132038594Y-81113000D01*
X132018258Y-80880556D01*
X132016834Y-80875241D01*
X131959290Y-80660484D01*
X131959289Y-80660482D01*
X131957867Y-80655174D01*
X131938624Y-80613907D01*
X131861582Y-80448690D01*
X131861579Y-80448685D01*
X131859256Y-80443703D01*
X131725422Y-80252568D01*
X131560432Y-80087578D01*
X131555924Y-80084421D01*
X131555921Y-80084419D01*
X131373806Y-79956901D01*
X131373804Y-79956900D01*
X131369297Y-79953744D01*
X131364315Y-79951421D01*
X131364310Y-79951418D01*
X131162808Y-79857456D01*
X131162806Y-79857455D01*
X131157826Y-79855133D01*
X131152518Y-79853711D01*
X131152516Y-79853710D01*
X130937759Y-79796166D01*
X130937757Y-79796166D01*
X130932444Y-79794742D01*
X130700000Y-79774406D01*
X130467556Y-79794742D01*
X130462243Y-79796166D01*
X130462241Y-79796166D01*
X130247484Y-79853710D01*
X130247482Y-79853711D01*
X130242174Y-79855133D01*
X130237194Y-79857455D01*
X130237192Y-79857456D01*
X130035690Y-79951418D01*
X130035685Y-79951421D01*
X130030703Y-79953744D01*
X130026196Y-79956900D01*
X130026194Y-79956901D01*
X129844079Y-80084419D01*
X129844076Y-80084421D01*
X129839568Y-80087578D01*
X129674578Y-80252568D01*
X129540744Y-80443703D01*
X129538421Y-80448685D01*
X129538418Y-80448690D01*
X129461376Y-80613907D01*
X129442133Y-80655174D01*
X129440711Y-80660482D01*
X129440710Y-80660484D01*
X129383166Y-80875241D01*
X129381742Y-80880556D01*
X129361406Y-81113000D01*
X121091752Y-81113000D01*
X121093378Y-79453863D01*
X145748050Y-79453863D01*
X145760309Y-79666477D01*
X145761745Y-79676697D01*
X145808565Y-79884446D01*
X145811645Y-79894275D01*
X145891770Y-80091603D01*
X145896413Y-80100794D01*
X145976460Y-80231420D01*
X145986916Y-80240880D01*
X145995694Y-80237096D01*
X146737978Y-79494812D01*
X146744356Y-79483132D01*
X147474408Y-79483132D01*
X147474539Y-79484965D01*
X147478790Y-79491580D01*
X148220474Y-80233264D01*
X148232484Y-80239823D01*
X148244223Y-80230855D01*
X148275004Y-80188019D01*
X148280315Y-80179180D01*
X148374670Y-79988267D01*
X148378469Y-79978672D01*
X148440376Y-79774915D01*
X148442555Y-79764834D01*
X148470590Y-79551887D01*
X148471109Y-79545212D01*
X148472572Y-79485364D01*
X148472378Y-79478646D01*
X148454781Y-79264604D01*
X148453096Y-79254424D01*
X148401214Y-79047875D01*
X148397894Y-79038124D01*
X148312972Y-78842814D01*
X148308105Y-78833739D01*
X148243063Y-78733197D01*
X148232377Y-78723995D01*
X148222812Y-78728398D01*
X147482022Y-79469188D01*
X147474408Y-79483132D01*
X146744356Y-79483132D01*
X146745592Y-79480868D01*
X146745461Y-79479035D01*
X146741210Y-79472420D01*
X145999849Y-78731059D01*
X145988313Y-78724759D01*
X145976031Y-78734382D01*
X145928089Y-78804662D01*
X145923004Y-78813613D01*
X145833338Y-79006783D01*
X145829775Y-79016470D01*
X145772864Y-79221681D01*
X145770933Y-79231800D01*
X145748302Y-79443574D01*
X145748050Y-79453863D01*
X121093378Y-79453863D01*
X121096458Y-76312467D01*
X121116527Y-76244367D01*
X121170228Y-76197927D01*
X121240512Y-76187892D01*
X121305064Y-76217448D01*
X121336466Y-76258944D01*
X121383554Y-76359012D01*
X121383558Y-76359019D01*
X121385242Y-76362598D01*
X121547630Y-76618480D01*
X121740808Y-76851992D01*
X121743695Y-76854703D01*
X121947167Y-77045775D01*
X121961729Y-77059450D01*
X122206910Y-77237584D01*
X122210379Y-77239491D01*
X122210382Y-77239493D01*
X122469014Y-77381678D01*
X122472483Y-77383585D01*
X122476152Y-77385038D01*
X122476157Y-77385040D01*
X122734154Y-77487188D01*
X122754261Y-77495149D01*
X123047800Y-77570516D01*
X123348470Y-77608500D01*
X123651530Y-77608500D01*
X123952200Y-77570516D01*
X124245739Y-77495149D01*
X124265846Y-77487188D01*
X124523843Y-77385040D01*
X124523848Y-77385038D01*
X124527517Y-77383585D01*
X124530986Y-77381678D01*
X124789618Y-77239493D01*
X124789621Y-77239491D01*
X124793090Y-77237584D01*
X125038271Y-77059450D01*
X125052834Y-77045775D01*
X125198809Y-76908695D01*
X145747251Y-76908695D01*
X145747548Y-76913848D01*
X145747548Y-76913851D01*
X145759812Y-77126547D01*
X145760110Y-77131715D01*
X145761247Y-77136761D01*
X145761248Y-77136767D01*
X145783969Y-77237584D01*
X145809222Y-77349639D01*
X145893266Y-77556616D01*
X146009987Y-77747088D01*
X146156250Y-77915938D01*
X146328126Y-78058632D01*
X146401955Y-78101774D01*
X146450679Y-78153412D01*
X146463750Y-78223195D01*
X146437019Y-78288967D01*
X146396562Y-78322327D01*
X146388460Y-78326544D01*
X146379734Y-78332039D01*
X146359677Y-78347099D01*
X146351223Y-78358427D01*
X146357968Y-78370758D01*
X147097188Y-79109978D01*
X147111132Y-79117592D01*
X147112965Y-79117461D01*
X147119580Y-79113210D01*
X147646728Y-78586062D01*
X167874493Y-78586062D01*
X167883789Y-78598077D01*
X167934994Y-78633931D01*
X167944489Y-78639414D01*
X168141947Y-78731490D01*
X168152239Y-78735236D01*
X168362688Y-78791625D01*
X168373481Y-78793528D01*
X168590525Y-78812517D01*
X168601475Y-78812517D01*
X168818519Y-78793528D01*
X168829312Y-78791625D01*
X169039761Y-78735236D01*
X169050053Y-78731490D01*
X169247511Y-78639414D01*
X169257006Y-78633931D01*
X169309048Y-78597491D01*
X169317424Y-78587012D01*
X169310356Y-78573566D01*
X168608812Y-77872022D01*
X168594868Y-77864408D01*
X168593035Y-77864539D01*
X168586420Y-77868790D01*
X167880923Y-78574287D01*
X167874493Y-78586062D01*
X147646728Y-78586062D01*
X147863389Y-78369401D01*
X147870410Y-78356544D01*
X147863611Y-78347213D01*
X147859559Y-78344521D01*
X147822602Y-78324120D01*
X147772631Y-78273687D01*
X147757859Y-78204245D01*
X147782975Y-78137839D01*
X147810327Y-78111232D01*
X147833797Y-78094491D01*
X147989860Y-77983173D01*
X148018910Y-77954225D01*
X148144435Y-77829137D01*
X148148096Y-77825489D01*
X148207594Y-77742689D01*
X148275435Y-77648277D01*
X148278453Y-77644077D01*
X148314564Y-77571013D01*
X148346954Y-77505475D01*
X167283483Y-77505475D01*
X167302472Y-77722519D01*
X167304375Y-77733312D01*
X167360764Y-77943761D01*
X167364510Y-77954053D01*
X167456586Y-78151511D01*
X167462069Y-78161006D01*
X167498509Y-78213048D01*
X167508988Y-78221424D01*
X167522434Y-78214356D01*
X168223978Y-77512812D01*
X168230356Y-77501132D01*
X168960408Y-77501132D01*
X168960539Y-77502965D01*
X168964790Y-77509580D01*
X169670287Y-78215077D01*
X169682062Y-78221507D01*
X169694077Y-78212211D01*
X169729931Y-78161006D01*
X169735414Y-78151511D01*
X169827490Y-77954053D01*
X169831236Y-77943761D01*
X169887625Y-77733312D01*
X169889528Y-77722519D01*
X169908517Y-77505475D01*
X169908517Y-77500000D01*
X174282502Y-77500000D01*
X174302457Y-77728087D01*
X174303881Y-77733400D01*
X174303881Y-77733402D01*
X174353677Y-77919240D01*
X174361716Y-77949243D01*
X174364039Y-77954224D01*
X174364039Y-77954225D01*
X174456151Y-78151762D01*
X174456154Y-78151767D01*
X174458477Y-78156749D01*
X174531902Y-78261611D01*
X174581217Y-78332039D01*
X174589802Y-78344300D01*
X174751700Y-78506198D01*
X174756208Y-78509355D01*
X174756211Y-78509357D01*
X174834389Y-78564098D01*
X174939251Y-78637523D01*
X174944233Y-78639846D01*
X174944238Y-78639849D01*
X175124692Y-78723995D01*
X175146757Y-78734284D01*
X175152065Y-78735706D01*
X175152067Y-78735707D01*
X175362598Y-78792119D01*
X175362600Y-78792119D01*
X175367913Y-78793543D01*
X175596000Y-78813498D01*
X175824087Y-78793543D01*
X175829400Y-78792119D01*
X175829402Y-78792119D01*
X176039933Y-78735707D01*
X176039935Y-78735706D01*
X176045243Y-78734284D01*
X176067308Y-78723995D01*
X176247762Y-78639849D01*
X176247767Y-78639846D01*
X176252749Y-78637523D01*
X176357611Y-78564098D01*
X176435789Y-78509357D01*
X176435792Y-78509355D01*
X176440300Y-78506198D01*
X176602198Y-78344300D01*
X176610784Y-78332039D01*
X176660098Y-78261611D01*
X176733523Y-78156749D01*
X176735846Y-78151767D01*
X176735849Y-78151762D01*
X176827961Y-77954225D01*
X176827961Y-77954224D01*
X176830284Y-77949243D01*
X176838324Y-77919240D01*
X176888119Y-77733402D01*
X176888119Y-77733400D01*
X176889543Y-77728087D01*
X176909498Y-77500000D01*
X176889543Y-77271913D01*
X176876956Y-77224939D01*
X176831707Y-77056067D01*
X176831706Y-77056065D01*
X176830284Y-77050757D01*
X176812169Y-77011908D01*
X176735849Y-76848238D01*
X176735846Y-76848233D01*
X176733523Y-76843251D01*
X176643260Y-76714342D01*
X176605357Y-76660211D01*
X176605355Y-76660208D01*
X176602198Y-76655700D01*
X176440300Y-76493802D01*
X176435792Y-76490645D01*
X176435789Y-76490643D01*
X176309920Y-76402509D01*
X176252749Y-76362477D01*
X176247767Y-76360154D01*
X176247762Y-76360151D01*
X176050225Y-76268039D01*
X176050224Y-76268039D01*
X176045243Y-76265716D01*
X176039935Y-76264294D01*
X176039933Y-76264293D01*
X175829402Y-76207881D01*
X175829400Y-76207881D01*
X175824087Y-76206457D01*
X175596000Y-76186502D01*
X175367913Y-76206457D01*
X175362600Y-76207881D01*
X175362598Y-76207881D01*
X175152067Y-76264293D01*
X175152065Y-76264294D01*
X175146757Y-76265716D01*
X175141776Y-76268039D01*
X175141775Y-76268039D01*
X174944238Y-76360151D01*
X174944233Y-76360154D01*
X174939251Y-76362477D01*
X174882080Y-76402509D01*
X174756211Y-76490643D01*
X174756208Y-76490645D01*
X174751700Y-76493802D01*
X174589802Y-76655700D01*
X174586645Y-76660208D01*
X174586643Y-76660211D01*
X174548740Y-76714342D01*
X174458477Y-76843251D01*
X174456154Y-76848233D01*
X174456151Y-76848238D01*
X174379831Y-77011908D01*
X174361716Y-77050757D01*
X174360294Y-77056065D01*
X174360293Y-77056067D01*
X174315044Y-77224939D01*
X174302457Y-77271913D01*
X174282502Y-77500000D01*
X169908517Y-77500000D01*
X169908517Y-77494525D01*
X169889528Y-77277481D01*
X169887625Y-77266688D01*
X169831236Y-77056239D01*
X169827490Y-77045947D01*
X169735414Y-76848489D01*
X169729931Y-76838994D01*
X169693491Y-76786952D01*
X169683012Y-76778576D01*
X169669566Y-76785644D01*
X168968022Y-77487188D01*
X168960408Y-77501132D01*
X168230356Y-77501132D01*
X168231592Y-77498868D01*
X168231461Y-77497035D01*
X168227210Y-77490420D01*
X167521713Y-76784923D01*
X167509938Y-76778493D01*
X167497923Y-76787789D01*
X167462069Y-76838994D01*
X167456586Y-76848489D01*
X167364510Y-77045947D01*
X167360764Y-77056239D01*
X167304375Y-77266688D01*
X167302472Y-77277481D01*
X167283483Y-77494525D01*
X167283483Y-77505475D01*
X148346954Y-77505475D01*
X148375136Y-77448453D01*
X148375137Y-77448451D01*
X148377430Y-77443811D01*
X148442370Y-77230069D01*
X148471529Y-77008590D01*
X148473156Y-76942000D01*
X148454852Y-76719361D01*
X148400431Y-76502702D01*
X148361422Y-76412988D01*
X167874576Y-76412988D01*
X167881644Y-76426434D01*
X168583188Y-77127978D01*
X168597132Y-77135592D01*
X168598965Y-77135461D01*
X168605580Y-77131210D01*
X169311077Y-76425713D01*
X169317507Y-76413938D01*
X169308211Y-76401923D01*
X169257006Y-76366069D01*
X169247511Y-76360586D01*
X169050053Y-76268510D01*
X169039761Y-76264764D01*
X168829312Y-76208375D01*
X168818519Y-76206472D01*
X168601475Y-76187483D01*
X168590525Y-76187483D01*
X168373481Y-76206472D01*
X168362688Y-76208375D01*
X168152239Y-76264764D01*
X168141947Y-76268510D01*
X167944489Y-76360586D01*
X167934994Y-76366069D01*
X167882952Y-76402509D01*
X167874576Y-76412988D01*
X148361422Y-76412988D01*
X148311354Y-76297840D01*
X148259346Y-76217448D01*
X148192822Y-76114617D01*
X148192820Y-76114614D01*
X148190014Y-76110277D01*
X148039670Y-75945051D01*
X148035619Y-75941852D01*
X148035615Y-75941848D01*
X147868414Y-75809800D01*
X147868410Y-75809798D01*
X147864359Y-75806598D01*
X147823053Y-75783796D01*
X147773084Y-75733364D01*
X147758312Y-75663921D01*
X147783428Y-75597516D01*
X147810780Y-75570909D01*
X147854603Y-75539650D01*
X147989860Y-75443173D01*
X148148096Y-75285489D01*
X148207594Y-75202689D01*
X148275435Y-75108277D01*
X148278453Y-75104077D01*
X148377430Y-74903811D01*
X148442370Y-74690069D01*
X148471529Y-74468590D01*
X148473156Y-74402000D01*
X148454852Y-74179361D01*
X148400431Y-73962702D01*
X148311354Y-73757840D01*
X148190014Y-73570277D01*
X148039670Y-73405051D01*
X148035619Y-73401852D01*
X148035615Y-73401848D01*
X147868414Y-73269800D01*
X147868410Y-73269798D01*
X147864359Y-73266598D01*
X147668789Y-73158638D01*
X147663920Y-73156914D01*
X147663916Y-73156912D01*
X147463087Y-73085795D01*
X147463083Y-73085794D01*
X147458212Y-73084069D01*
X147453119Y-73083162D01*
X147453116Y-73083161D01*
X147243373Y-73045800D01*
X147243367Y-73045799D01*
X147238284Y-73044894D01*
X147164452Y-73043992D01*
X147020081Y-73042228D01*
X147020079Y-73042228D01*
X147014911Y-73042165D01*
X146794091Y-73075955D01*
X146581756Y-73145357D01*
X146383607Y-73248507D01*
X146379474Y-73251610D01*
X146379471Y-73251612D01*
X146261017Y-73340550D01*
X146204965Y-73382635D01*
X146050629Y-73544138D01*
X145924743Y-73728680D01*
X145830688Y-73931305D01*
X145770989Y-74146570D01*
X145747251Y-74368695D01*
X145747548Y-74373848D01*
X145747548Y-74373851D01*
X145753011Y-74468590D01*
X145760110Y-74591715D01*
X145761247Y-74596761D01*
X145761248Y-74596767D01*
X145781119Y-74684939D01*
X145809222Y-74809639D01*
X145893266Y-75016616D01*
X146009987Y-75207088D01*
X146156250Y-75375938D01*
X146328126Y-75518632D01*
X146398595Y-75559811D01*
X146401445Y-75561476D01*
X146450169Y-75613114D01*
X146463240Y-75682897D01*
X146436509Y-75748669D01*
X146396055Y-75782027D01*
X146383607Y-75788507D01*
X146379474Y-75791610D01*
X146379471Y-75791612D01*
X146355247Y-75809800D01*
X146204965Y-75922635D01*
X146050629Y-76084138D01*
X145924743Y-76268680D01*
X145830688Y-76471305D01*
X145770989Y-76686570D01*
X145747251Y-76908695D01*
X125198809Y-76908695D01*
X125256305Y-76854703D01*
X125259192Y-76851992D01*
X125452370Y-76618480D01*
X125614758Y-76362598D01*
X125728185Y-76121553D01*
X125742105Y-76091971D01*
X125742107Y-76091967D01*
X125743794Y-76088381D01*
X125837445Y-75800154D01*
X125894233Y-75502462D01*
X125913262Y-75200000D01*
X125894233Y-74897538D01*
X125837445Y-74599846D01*
X125770256Y-74393061D01*
X125745020Y-74315392D01*
X125745020Y-74315391D01*
X125743794Y-74311619D01*
X125614758Y-74037402D01*
X125452370Y-73781520D01*
X125259192Y-73548008D01*
X125038271Y-73340550D01*
X124793090Y-73162416D01*
X124783079Y-73156912D01*
X124530986Y-73018322D01*
X124530985Y-73018321D01*
X124527517Y-73016415D01*
X124523848Y-73014962D01*
X124523843Y-73014960D01*
X124363945Y-72951652D01*
X124307971Y-72907977D01*
X124284495Y-72840974D01*
X124300971Y-72771916D01*
X124352167Y-72722727D01*
X124410329Y-72708500D01*
X126455000Y-72708500D01*
X180386328Y-72794105D01*
G37*
%TD.AperFunction*%
%TD*%
M02*
