%TF.GenerationSoftware,KiCad,Pcbnew,(6.0.8-1)-1*%
%TF.CreationDate,2023-01-29T13:44:33-06:00*%
%TF.ProjectId,M4_CAN_Feather_Carrier,4d345f43-414e-45f4-9665-61746865725f,rev?*%
%TF.SameCoordinates,Original*%
%TF.FileFunction,Legend,Top*%
%TF.FilePolarity,Positive*%
%FSLAX46Y46*%
G04 Gerber Fmt 4.6, Leading zero omitted, Abs format (unit mm)*
G04 Created by KiCad (PCBNEW (6.0.8-1)-1) date 2023-01-29 13:44:33*
%MOMM*%
%LPD*%
G01*
G04 APERTURE LIST*
%ADD10C,0.150000*%
%ADD11C,0.254000*%
%ADD12C,0.120000*%
%ADD13C,0.100000*%
%ADD14C,0.200000*%
G04 APERTURE END LIST*
D10*
X128314404Y-115724761D02*
X128457261Y-115772380D01*
X128695357Y-115772380D01*
X128790595Y-115724761D01*
X128838214Y-115677142D01*
X128885833Y-115581904D01*
X128885833Y-115486666D01*
X128838214Y-115391428D01*
X128790595Y-115343809D01*
X128695357Y-115296190D01*
X128504880Y-115248571D01*
X128409642Y-115200952D01*
X128362023Y-115153333D01*
X128314404Y-115058095D01*
X128314404Y-114962857D01*
X128362023Y-114867619D01*
X128409642Y-114820000D01*
X128504880Y-114772380D01*
X128742976Y-114772380D01*
X128885833Y-114820000D01*
X129314404Y-115772380D02*
X129314404Y-114772380D01*
X130314404Y-114820000D02*
X130219166Y-114772380D01*
X130076309Y-114772380D01*
X129933452Y-114820000D01*
X129838214Y-114915238D01*
X129790595Y-115010476D01*
X129742976Y-115200952D01*
X129742976Y-115343809D01*
X129790595Y-115534285D01*
X129838214Y-115629523D01*
X129933452Y-115724761D01*
X130076309Y-115772380D01*
X130171547Y-115772380D01*
X130314404Y-115724761D01*
X130362023Y-115677142D01*
X130362023Y-115343809D01*
X130171547Y-115343809D01*
X145035714Y-123302380D02*
X144464285Y-123302380D01*
X144750000Y-123302380D02*
X144750000Y-122302380D01*
X144654761Y-122445238D01*
X144559523Y-122540476D01*
X144464285Y-122588095D01*
X146964285Y-122397619D02*
X147011904Y-122350000D01*
X147107142Y-122302380D01*
X147345238Y-122302380D01*
X147440476Y-122350000D01*
X147488095Y-122397619D01*
X147535714Y-122492857D01*
X147535714Y-122588095D01*
X147488095Y-122730952D01*
X146916666Y-123302380D01*
X147535714Y-123302380D01*
X152490476Y-122635714D02*
X152490476Y-123302380D01*
X152252380Y-122254761D02*
X152014285Y-122969047D01*
X152633333Y-122969047D01*
X180452380Y-84433333D02*
X179452380Y-84433333D01*
X180452380Y-83861904D01*
X179452380Y-83861904D01*
X179928571Y-83385714D02*
X179928571Y-83052380D01*
X180452380Y-82909523D02*
X180452380Y-83385714D01*
X179452380Y-83385714D01*
X179452380Y-82909523D01*
X179452380Y-82290476D02*
X179452380Y-82100000D01*
X179500000Y-82004761D01*
X179595238Y-81909523D01*
X179785714Y-81861904D01*
X180119047Y-81861904D01*
X180309523Y-81909523D01*
X180404761Y-82004761D01*
X180452380Y-82100000D01*
X180452380Y-82290476D01*
X180404761Y-82385714D01*
X180309523Y-82480952D01*
X180119047Y-82528571D01*
X179785714Y-82528571D01*
X179595238Y-82480952D01*
X179500000Y-82385714D01*
X179452380Y-82290476D01*
X180452380Y-81433333D02*
X179452380Y-81433333D01*
X179452380Y-81052380D01*
X179500000Y-80957142D01*
X179547619Y-80909523D01*
X179642857Y-80861904D01*
X179785714Y-80861904D01*
X179880952Y-80909523D01*
X179928571Y-80957142D01*
X179976190Y-81052380D01*
X179976190Y-81433333D01*
X180452380Y-80433333D02*
X179452380Y-80433333D01*
X179452380Y-80052380D02*
X180452380Y-79385714D01*
X179452380Y-79385714D02*
X180452380Y-80052380D01*
X179928571Y-79004761D02*
X179928571Y-78671428D01*
X180452380Y-78528571D02*
X180452380Y-79004761D01*
X179452380Y-79004761D01*
X179452380Y-78528571D01*
X180452380Y-77623809D02*
X180452380Y-78100000D01*
X179452380Y-78100000D01*
X127647738Y-118312380D02*
X127647738Y-117312380D01*
X128028690Y-117312380D01*
X128123928Y-117360000D01*
X128171547Y-117407619D01*
X128219166Y-117502857D01*
X128219166Y-117645714D01*
X128171547Y-117740952D01*
X128123928Y-117788571D01*
X128028690Y-117836190D01*
X127647738Y-117836190D01*
X128552500Y-117312380D02*
X128790595Y-118312380D01*
X128981071Y-117598095D01*
X129171547Y-118312380D01*
X129409642Y-117312380D01*
X130362023Y-118312380D02*
X130028690Y-117836190D01*
X129790595Y-118312380D02*
X129790595Y-117312380D01*
X130171547Y-117312380D01*
X130266785Y-117360000D01*
X130314404Y-117407619D01*
X130362023Y-117502857D01*
X130362023Y-117645714D01*
X130314404Y-117740952D01*
X130266785Y-117788571D01*
X130171547Y-117836190D01*
X129790595Y-117836190D01*
X136966666Y-122302380D02*
X137585714Y-122302380D01*
X137252380Y-122683333D01*
X137395238Y-122683333D01*
X137490476Y-122730952D01*
X137538095Y-122778571D01*
X137585714Y-122873809D01*
X137585714Y-123111904D01*
X137538095Y-123207142D01*
X137490476Y-123254761D01*
X137395238Y-123302380D01*
X137109523Y-123302380D01*
X137014285Y-123254761D01*
X136966666Y-123207142D01*
X134950000Y-113200000D02*
X135521428Y-113200000D01*
X134835714Y-113542857D02*
X135235714Y-112342857D01*
X135635714Y-113542857D01*
X136035714Y-113542857D02*
X136035714Y-112342857D01*
X136835714Y-112342857D02*
X137064285Y-112342857D01*
X137178571Y-112400000D01*
X137292857Y-112514285D01*
X137350000Y-112742857D01*
X137350000Y-113142857D01*
X137292857Y-113371428D01*
X137178571Y-113485714D01*
X137064285Y-113542857D01*
X136835714Y-113542857D01*
X136721428Y-113485714D01*
X136607142Y-113371428D01*
X136550000Y-113142857D01*
X136550000Y-112742857D01*
X136607142Y-112514285D01*
X136721428Y-112400000D01*
X136835714Y-112342857D01*
X149466666Y-122302380D02*
X150085714Y-122302380D01*
X149752380Y-122683333D01*
X149895238Y-122683333D01*
X149990476Y-122730952D01*
X150038095Y-122778571D01*
X150085714Y-122873809D01*
X150085714Y-123111904D01*
X150038095Y-123207142D01*
X149990476Y-123254761D01*
X149895238Y-123302380D01*
X149609523Y-123302380D01*
X149514285Y-123254761D01*
X149466666Y-123207142D01*
X132535714Y-123302380D02*
X131964285Y-123302380D01*
X132250000Y-123302380D02*
X132250000Y-122302380D01*
X132154761Y-122445238D01*
X132059523Y-122540476D01*
X131964285Y-122588095D01*
X160257142Y-114642857D02*
X160657142Y-115842857D01*
X161057142Y-114642857D01*
X161457142Y-115842857D02*
X161457142Y-114642857D01*
X161742857Y-114642857D01*
X161914285Y-114700000D01*
X162028571Y-114814285D01*
X162085714Y-114928571D01*
X162142857Y-115157142D01*
X162142857Y-115328571D01*
X162085714Y-115557142D01*
X162028571Y-115671428D01*
X161914285Y-115785714D01*
X161742857Y-115842857D01*
X161457142Y-115842857D01*
X162657142Y-115842857D02*
X162657142Y-114642857D01*
X162942857Y-114642857D01*
X163114285Y-114700000D01*
X163228571Y-114814285D01*
X163285714Y-114928571D01*
X163342857Y-115157142D01*
X163342857Y-115328571D01*
X163285714Y-115557142D01*
X163228571Y-115671428D01*
X163114285Y-115785714D01*
X162942857Y-115842857D01*
X162657142Y-115842857D01*
X164771428Y-115842857D02*
X164771428Y-114642857D01*
X165228571Y-114642857D01*
X165342857Y-114700000D01*
X165400000Y-114757142D01*
X165457142Y-114871428D01*
X165457142Y-115042857D01*
X165400000Y-115157142D01*
X165342857Y-115214285D01*
X165228571Y-115271428D01*
X164771428Y-115271428D01*
X165857142Y-114642857D02*
X166142857Y-115842857D01*
X166371428Y-114985714D01*
X166600000Y-115842857D01*
X166885714Y-114642857D01*
X168028571Y-115842857D02*
X167628571Y-115271428D01*
X167342857Y-115842857D02*
X167342857Y-114642857D01*
X167800000Y-114642857D01*
X167914285Y-114700000D01*
X167971428Y-114757142D01*
X168028571Y-114871428D01*
X168028571Y-115042857D01*
X167971428Y-115157142D01*
X167914285Y-115214285D01*
X167800000Y-115271428D01*
X167342857Y-115271428D01*
X139990476Y-122635714D02*
X139990476Y-123302380D01*
X139752380Y-122254761D02*
X139514285Y-122969047D01*
X140133333Y-122969047D01*
X122992380Y-110014404D02*
X121992380Y-110014404D01*
X122706666Y-109681071D01*
X121992380Y-109347738D01*
X122992380Y-109347738D01*
X122325714Y-108442976D02*
X122992380Y-108442976D01*
X121944761Y-108681071D02*
X122659047Y-108919166D01*
X122659047Y-108300119D01*
X122897142Y-106585833D02*
X122944761Y-106633452D01*
X122992380Y-106776309D01*
X122992380Y-106871547D01*
X122944761Y-107014404D01*
X122849523Y-107109642D01*
X122754285Y-107157261D01*
X122563809Y-107204880D01*
X122420952Y-107204880D01*
X122230476Y-107157261D01*
X122135238Y-107109642D01*
X122040000Y-107014404D01*
X121992380Y-106871547D01*
X121992380Y-106776309D01*
X122040000Y-106633452D01*
X122087619Y-106585833D01*
X122706666Y-106204880D02*
X122706666Y-105728690D01*
X122992380Y-106300119D02*
X121992380Y-105966785D01*
X122992380Y-105633452D01*
X122992380Y-105300119D02*
X121992380Y-105300119D01*
X122992380Y-104728690D01*
X121992380Y-104728690D01*
X122468571Y-103157261D02*
X122468571Y-103490595D01*
X122992380Y-103490595D02*
X121992380Y-103490595D01*
X121992380Y-103014404D01*
X122944761Y-102252500D02*
X122992380Y-102347738D01*
X122992380Y-102538214D01*
X122944761Y-102633452D01*
X122849523Y-102681071D01*
X122468571Y-102681071D01*
X122373333Y-102633452D01*
X122325714Y-102538214D01*
X122325714Y-102347738D01*
X122373333Y-102252500D01*
X122468571Y-102204880D01*
X122563809Y-102204880D01*
X122659047Y-102681071D01*
X122992380Y-101347738D02*
X122468571Y-101347738D01*
X122373333Y-101395357D01*
X122325714Y-101490595D01*
X122325714Y-101681071D01*
X122373333Y-101776309D01*
X122944761Y-101347738D02*
X122992380Y-101442976D01*
X122992380Y-101681071D01*
X122944761Y-101776309D01*
X122849523Y-101823928D01*
X122754285Y-101823928D01*
X122659047Y-101776309D01*
X122611428Y-101681071D01*
X122611428Y-101442976D01*
X122563809Y-101347738D01*
X122325714Y-101014404D02*
X122325714Y-100633452D01*
X121992380Y-100871547D02*
X122849523Y-100871547D01*
X122944761Y-100823928D01*
X122992380Y-100728690D01*
X122992380Y-100633452D01*
X122992380Y-100300119D02*
X121992380Y-100300119D01*
X122992380Y-99871547D02*
X122468571Y-99871547D01*
X122373333Y-99919166D01*
X122325714Y-100014404D01*
X122325714Y-100157261D01*
X122373333Y-100252500D01*
X122420952Y-100300119D01*
X122944761Y-99014404D02*
X122992380Y-99109642D01*
X122992380Y-99300119D01*
X122944761Y-99395357D01*
X122849523Y-99442976D01*
X122468571Y-99442976D01*
X122373333Y-99395357D01*
X122325714Y-99300119D01*
X122325714Y-99109642D01*
X122373333Y-99014404D01*
X122468571Y-98966785D01*
X122563809Y-98966785D01*
X122659047Y-99442976D01*
X122992380Y-98538214D02*
X122325714Y-98538214D01*
X122516190Y-98538214D02*
X122420952Y-98490595D01*
X122373333Y-98442976D01*
X122325714Y-98347738D01*
X122325714Y-98252500D01*
X122897142Y-96585833D02*
X122944761Y-96633452D01*
X122992380Y-96776309D01*
X122992380Y-96871547D01*
X122944761Y-97014404D01*
X122849523Y-97109642D01*
X122754285Y-97157261D01*
X122563809Y-97204880D01*
X122420952Y-97204880D01*
X122230476Y-97157261D01*
X122135238Y-97109642D01*
X122040000Y-97014404D01*
X121992380Y-96871547D01*
X121992380Y-96776309D01*
X122040000Y-96633452D01*
X122087619Y-96585833D01*
X122992380Y-95728690D02*
X122468571Y-95728690D01*
X122373333Y-95776309D01*
X122325714Y-95871547D01*
X122325714Y-96062023D01*
X122373333Y-96157261D01*
X122944761Y-95728690D02*
X122992380Y-95823928D01*
X122992380Y-96062023D01*
X122944761Y-96157261D01*
X122849523Y-96204880D01*
X122754285Y-96204880D01*
X122659047Y-96157261D01*
X122611428Y-96062023D01*
X122611428Y-95823928D01*
X122563809Y-95728690D01*
X122992380Y-95252500D02*
X122325714Y-95252500D01*
X122516190Y-95252500D02*
X122420952Y-95204880D01*
X122373333Y-95157261D01*
X122325714Y-95062023D01*
X122325714Y-94966785D01*
X122992380Y-94633452D02*
X122325714Y-94633452D01*
X122516190Y-94633452D02*
X122420952Y-94585833D01*
X122373333Y-94538214D01*
X122325714Y-94442976D01*
X122325714Y-94347738D01*
X122992380Y-94014404D02*
X122325714Y-94014404D01*
X121992380Y-94014404D02*
X122040000Y-94062023D01*
X122087619Y-94014404D01*
X122040000Y-93966785D01*
X121992380Y-94014404D01*
X122087619Y-94014404D01*
X122944761Y-93157261D02*
X122992380Y-93252500D01*
X122992380Y-93442976D01*
X122944761Y-93538214D01*
X122849523Y-93585833D01*
X122468571Y-93585833D01*
X122373333Y-93538214D01*
X122325714Y-93442976D01*
X122325714Y-93252500D01*
X122373333Y-93157261D01*
X122468571Y-93109642D01*
X122563809Y-93109642D01*
X122659047Y-93585833D01*
X122992380Y-92681071D02*
X122325714Y-92681071D01*
X122516190Y-92681071D02*
X122420952Y-92633452D01*
X122373333Y-92585833D01*
X122325714Y-92490595D01*
X122325714Y-92395357D01*
X121992380Y-91442976D02*
X122992380Y-91109642D01*
X121992380Y-90776309D01*
X121992380Y-90538214D02*
X121992380Y-89919166D01*
X122373333Y-90252500D01*
X122373333Y-90109642D01*
X122420952Y-90014404D01*
X122468571Y-89966785D01*
X122563809Y-89919166D01*
X122801904Y-89919166D01*
X122897142Y-89966785D01*
X122944761Y-90014404D01*
X122992380Y-90109642D01*
X122992380Y-90395357D01*
X122944761Y-90490595D01*
X122897142Y-90538214D01*
X124078571Y-109681071D02*
X124078571Y-110014404D01*
X124602380Y-110014404D02*
X123602380Y-110014404D01*
X123602380Y-109538214D01*
X124602380Y-108585833D02*
X124126190Y-108919166D01*
X124602380Y-109157261D02*
X123602380Y-109157261D01*
X123602380Y-108776309D01*
X123650000Y-108681071D01*
X123697619Y-108633452D01*
X123792857Y-108585833D01*
X123935714Y-108585833D01*
X124030952Y-108633452D01*
X124078571Y-108681071D01*
X124126190Y-108776309D01*
X124126190Y-109157261D01*
X124507142Y-107585833D02*
X124554761Y-107633452D01*
X124602380Y-107776309D01*
X124602380Y-107871547D01*
X124554761Y-108014404D01*
X124459523Y-108109642D01*
X124364285Y-108157261D01*
X124173809Y-108204880D01*
X124030952Y-108204880D01*
X123840476Y-108157261D01*
X123745238Y-108109642D01*
X123650000Y-108014404D01*
X123602380Y-107871547D01*
X123602380Y-107776309D01*
X123650000Y-107633452D01*
X123697619Y-107585833D01*
X123697619Y-107204880D02*
X123650000Y-107157261D01*
X123602380Y-107062023D01*
X123602380Y-106823928D01*
X123650000Y-106728690D01*
X123697619Y-106681071D01*
X123792857Y-106633452D01*
X123888095Y-106633452D01*
X124030952Y-106681071D01*
X124602380Y-107252500D01*
X124602380Y-106633452D01*
X123935714Y-105776309D02*
X124602380Y-105776309D01*
X123554761Y-106014404D02*
X124269047Y-106252500D01*
X124269047Y-105633452D01*
X123602380Y-104823928D02*
X123602380Y-105014404D01*
X123650000Y-105109642D01*
X123697619Y-105157261D01*
X123840476Y-105252500D01*
X124030952Y-105300119D01*
X124411904Y-105300119D01*
X124507142Y-105252500D01*
X124554761Y-105204880D01*
X124602380Y-105109642D01*
X124602380Y-104919166D01*
X124554761Y-104823928D01*
X124507142Y-104776309D01*
X124411904Y-104728690D01*
X124173809Y-104728690D01*
X124078571Y-104776309D01*
X124030952Y-104823928D01*
X123983333Y-104919166D01*
X123983333Y-105109642D01*
X124030952Y-105204880D01*
X124078571Y-105252500D01*
X124173809Y-105300119D01*
X124030952Y-104157261D02*
X123983333Y-104252500D01*
X123935714Y-104300119D01*
X123840476Y-104347738D01*
X123792857Y-104347738D01*
X123697619Y-104300119D01*
X123650000Y-104252500D01*
X123602380Y-104157261D01*
X123602380Y-103966785D01*
X123650000Y-103871547D01*
X123697619Y-103823928D01*
X123792857Y-103776309D01*
X123840476Y-103776309D01*
X123935714Y-103823928D01*
X123983333Y-103871547D01*
X124030952Y-103966785D01*
X124030952Y-104157261D01*
X124078571Y-104252500D01*
X124126190Y-104300119D01*
X124221428Y-104347738D01*
X124411904Y-104347738D01*
X124507142Y-104300119D01*
X124554761Y-104252500D01*
X124602380Y-104157261D01*
X124602380Y-103966785D01*
X124554761Y-103871547D01*
X124507142Y-103823928D01*
X124411904Y-103776309D01*
X124221428Y-103776309D01*
X124126190Y-103823928D01*
X124078571Y-103871547D01*
X124030952Y-103966785D01*
X126593333Y-109728690D02*
X126545714Y-109776309D01*
X126402857Y-109871547D01*
X126307619Y-109919166D01*
X126164761Y-109966785D01*
X125926666Y-110014404D01*
X125736190Y-110014404D01*
X125498095Y-109966785D01*
X125355238Y-109919166D01*
X125260000Y-109871547D01*
X125117142Y-109776309D01*
X125069523Y-109728690D01*
X126164761Y-108919166D02*
X126212380Y-109014404D01*
X126212380Y-109204880D01*
X126164761Y-109300119D01*
X126117142Y-109347738D01*
X126021904Y-109395357D01*
X125736190Y-109395357D01*
X125640952Y-109347738D01*
X125593333Y-109300119D01*
X125545714Y-109204880D01*
X125545714Y-109014404D01*
X125593333Y-108919166D01*
X126593333Y-108585833D02*
X126545714Y-108538214D01*
X126402857Y-108442976D01*
X126307619Y-108395357D01*
X126164761Y-108347738D01*
X125926666Y-108300119D01*
X125736190Y-108300119D01*
X125498095Y-108347738D01*
X125355238Y-108395357D01*
X125260000Y-108442976D01*
X125117142Y-108538214D01*
X125069523Y-108585833D01*
X125307619Y-107109642D02*
X125260000Y-107062023D01*
X125212380Y-106966785D01*
X125212380Y-106728690D01*
X125260000Y-106633452D01*
X125307619Y-106585833D01*
X125402857Y-106538214D01*
X125498095Y-106538214D01*
X125640952Y-106585833D01*
X126212380Y-107157261D01*
X126212380Y-106538214D01*
X125212380Y-105919166D02*
X125212380Y-105823928D01*
X125260000Y-105728690D01*
X125307619Y-105681071D01*
X125402857Y-105633452D01*
X125593333Y-105585833D01*
X125831428Y-105585833D01*
X126021904Y-105633452D01*
X126117142Y-105681071D01*
X126164761Y-105728690D01*
X126212380Y-105823928D01*
X126212380Y-105919166D01*
X126164761Y-106014404D01*
X126117142Y-106062023D01*
X126021904Y-106109642D01*
X125831428Y-106157261D01*
X125593333Y-106157261D01*
X125402857Y-106109642D01*
X125307619Y-106062023D01*
X125260000Y-106014404D01*
X125212380Y-105919166D01*
X125307619Y-105204880D02*
X125260000Y-105157261D01*
X125212380Y-105062023D01*
X125212380Y-104823928D01*
X125260000Y-104728690D01*
X125307619Y-104681071D01*
X125402857Y-104633452D01*
X125498095Y-104633452D01*
X125640952Y-104681071D01*
X126212380Y-105252500D01*
X126212380Y-104633452D01*
X125212380Y-104300119D02*
X125212380Y-103681071D01*
X125593333Y-104014404D01*
X125593333Y-103871547D01*
X125640952Y-103776309D01*
X125688571Y-103728690D01*
X125783809Y-103681071D01*
X126021904Y-103681071D01*
X126117142Y-103728690D01*
X126164761Y-103776309D01*
X126212380Y-103871547D01*
X126212380Y-104157261D01*
X126164761Y-104252500D01*
X126117142Y-104300119D01*
X126164761Y-102538214D02*
X126212380Y-102395357D01*
X126212380Y-102157261D01*
X126164761Y-102062023D01*
X126117142Y-102014404D01*
X126021904Y-101966785D01*
X125926666Y-101966785D01*
X125831428Y-102014404D01*
X125783809Y-102062023D01*
X125736190Y-102157261D01*
X125688571Y-102347738D01*
X125640952Y-102442976D01*
X125593333Y-102490595D01*
X125498095Y-102538214D01*
X125402857Y-102538214D01*
X125307619Y-102490595D01*
X125260000Y-102442976D01*
X125212380Y-102347738D01*
X125212380Y-102109642D01*
X125260000Y-101966785D01*
X126212380Y-101538214D02*
X125212380Y-101538214D01*
X125688571Y-101538214D02*
X125688571Y-100966785D01*
X126212380Y-100966785D02*
X125212380Y-100966785D01*
X126212380Y-99919166D02*
X125736190Y-100252500D01*
X126212380Y-100490595D02*
X125212380Y-100490595D01*
X125212380Y-100109642D01*
X125260000Y-100014404D01*
X125307619Y-99966785D01*
X125402857Y-99919166D01*
X125545714Y-99919166D01*
X125640952Y-99966785D01*
X125688571Y-100014404D01*
X125736190Y-100109642D01*
X125736190Y-100490595D01*
X126212380Y-99490595D02*
X125212380Y-99490595D01*
X125926666Y-99157261D01*
X125212380Y-98823928D01*
X126212380Y-98823928D01*
X142461904Y-120000000D02*
X142366666Y-119952380D01*
X142223809Y-119952380D01*
X142080952Y-120000000D01*
X141985714Y-120095238D01*
X141938095Y-120190476D01*
X141890476Y-120380952D01*
X141890476Y-120523809D01*
X141938095Y-120714285D01*
X141985714Y-120809523D01*
X142080952Y-120904761D01*
X142223809Y-120952380D01*
X142319047Y-120952380D01*
X142461904Y-120904761D01*
X142509523Y-120857142D01*
X142509523Y-120523809D01*
X142319047Y-120523809D01*
X134464285Y-122397619D02*
X134511904Y-122350000D01*
X134607142Y-122302380D01*
X134845238Y-122302380D01*
X134940476Y-122350000D01*
X134988095Y-122397619D01*
X135035714Y-122492857D01*
X135035714Y-122588095D01*
X134988095Y-122730952D01*
X134416666Y-123302380D01*
X135035714Y-123302380D01*
X141938095Y-118412380D02*
X141938095Y-117412380D01*
X142319047Y-117412380D01*
X142414285Y-117460000D01*
X142461904Y-117507619D01*
X142509523Y-117602857D01*
X142509523Y-117745714D01*
X142461904Y-117840952D01*
X142414285Y-117888571D01*
X142319047Y-117936190D01*
X141938095Y-117936190D01*
X128266785Y-119900000D02*
X128171547Y-119852380D01*
X128028690Y-119852380D01*
X127885833Y-119900000D01*
X127790595Y-119995238D01*
X127742976Y-120090476D01*
X127695357Y-120280952D01*
X127695357Y-120423809D01*
X127742976Y-120614285D01*
X127790595Y-120709523D01*
X127885833Y-120804761D01*
X128028690Y-120852380D01*
X128123928Y-120852380D01*
X128266785Y-120804761D01*
X128314404Y-120757142D01*
X128314404Y-120423809D01*
X128123928Y-120423809D01*
X128742976Y-120852380D02*
X128742976Y-119852380D01*
X129314404Y-120852380D01*
X129314404Y-119852380D01*
X129790595Y-120852380D02*
X129790595Y-119852380D01*
X130028690Y-119852380D01*
X130171547Y-119900000D01*
X130266785Y-119995238D01*
X130314404Y-120090476D01*
X130362023Y-120280952D01*
X130362023Y-120423809D01*
X130314404Y-120614285D01*
X130266785Y-120709523D01*
X130171547Y-120804761D01*
X130028690Y-120852380D01*
X129790595Y-120852380D01*
X147371428Y-113542857D02*
X147371428Y-112342857D01*
X147657142Y-112342857D01*
X147828571Y-112400000D01*
X147942857Y-112514285D01*
X148000000Y-112628571D01*
X148057142Y-112857142D01*
X148057142Y-113028571D01*
X148000000Y-113257142D01*
X147942857Y-113371428D01*
X147828571Y-113485714D01*
X147657142Y-113542857D01*
X147371428Y-113542857D01*
X148571428Y-113542857D02*
X148571428Y-112342857D01*
X149371428Y-112342857D02*
X149600000Y-112342857D01*
X149714285Y-112400000D01*
X149828571Y-112514285D01*
X149885714Y-112742857D01*
X149885714Y-113142857D01*
X149828571Y-113371428D01*
X149714285Y-113485714D01*
X149600000Y-113542857D01*
X149371428Y-113542857D01*
X149257142Y-113485714D01*
X149142857Y-113371428D01*
X149085714Y-113142857D01*
X149085714Y-112742857D01*
X149142857Y-112514285D01*
X149257142Y-112400000D01*
X149371428Y-112342857D01*
X141914285Y-115824761D02*
X142057142Y-115872380D01*
X142295238Y-115872380D01*
X142390476Y-115824761D01*
X142438095Y-115777142D01*
X142485714Y-115681904D01*
X142485714Y-115586666D01*
X142438095Y-115491428D01*
X142390476Y-115443809D01*
X142295238Y-115396190D01*
X142104761Y-115348571D01*
X142009523Y-115300952D01*
X141961904Y-115253333D01*
X141914285Y-115158095D01*
X141914285Y-115062857D01*
X141961904Y-114967619D01*
X142009523Y-114920000D01*
X142104761Y-114872380D01*
X142342857Y-114872380D01*
X142485714Y-114920000D01*
%TO.C,U2*%
X169442380Y-101466904D02*
X170251904Y-101466904D01*
X170347142Y-101419285D01*
X170394761Y-101371666D01*
X170442380Y-101276428D01*
X170442380Y-101085952D01*
X170394761Y-100990714D01*
X170347142Y-100943095D01*
X170251904Y-100895476D01*
X169442380Y-100895476D01*
X169537619Y-100466904D02*
X169490000Y-100419285D01*
X169442380Y-100324047D01*
X169442380Y-100085952D01*
X169490000Y-99990714D01*
X169537619Y-99943095D01*
X169632857Y-99895476D01*
X169728095Y-99895476D01*
X169870952Y-99943095D01*
X170442380Y-100514523D01*
X170442380Y-99895476D01*
%TO.C,SW1*%
X158566666Y-86604761D02*
X158709523Y-86652380D01*
X158947619Y-86652380D01*
X159042857Y-86604761D01*
X159090476Y-86557142D01*
X159138095Y-86461904D01*
X159138095Y-86366666D01*
X159090476Y-86271428D01*
X159042857Y-86223809D01*
X158947619Y-86176190D01*
X158757142Y-86128571D01*
X158661904Y-86080952D01*
X158614285Y-86033333D01*
X158566666Y-85938095D01*
X158566666Y-85842857D01*
X158614285Y-85747619D01*
X158661904Y-85700000D01*
X158757142Y-85652380D01*
X158995238Y-85652380D01*
X159138095Y-85700000D01*
X159471428Y-85652380D02*
X159709523Y-86652380D01*
X159900000Y-85938095D01*
X160090476Y-86652380D01*
X160328571Y-85652380D01*
X161233333Y-86652380D02*
X160661904Y-86652380D01*
X160947619Y-86652380D02*
X160947619Y-85652380D01*
X160852380Y-85795238D01*
X160757142Y-85890476D01*
X160661904Y-85938095D01*
D11*
%TO.C,J1*%
X133881666Y-85017523D02*
X133881666Y-85924666D01*
X133821190Y-86106095D01*
X133700238Y-86227047D01*
X133518809Y-86287523D01*
X133397857Y-86287523D01*
X135151666Y-86287523D02*
X134425952Y-86287523D01*
X134788809Y-86287523D02*
X134788809Y-85017523D01*
X134667857Y-85198952D01*
X134546904Y-85319904D01*
X134425952Y-85380380D01*
D10*
%TO.C,C2*%
X147533333Y-99057142D02*
X147485714Y-99104761D01*
X147342857Y-99152380D01*
X147247619Y-99152380D01*
X147104761Y-99104761D01*
X147009523Y-99009523D01*
X146961904Y-98914285D01*
X146914285Y-98723809D01*
X146914285Y-98580952D01*
X146961904Y-98390476D01*
X147009523Y-98295238D01*
X147104761Y-98200000D01*
X147247619Y-98152380D01*
X147342857Y-98152380D01*
X147485714Y-98200000D01*
X147533333Y-98247619D01*
X147914285Y-98247619D02*
X147961904Y-98200000D01*
X148057142Y-98152380D01*
X148295238Y-98152380D01*
X148390476Y-98200000D01*
X148438095Y-98247619D01*
X148485714Y-98342857D01*
X148485714Y-98438095D01*
X148438095Y-98580952D01*
X147866666Y-99152380D01*
X148485714Y-99152380D01*
%TO.C,J7*%
X130766666Y-112652380D02*
X130766666Y-113366666D01*
X130719047Y-113509523D01*
X130623809Y-113604761D01*
X130480952Y-113652380D01*
X130385714Y-113652380D01*
X131147619Y-112652380D02*
X131814285Y-112652380D01*
X131385714Y-113652380D01*
%TO.C,X4*%
X176272380Y-90276190D02*
X177272380Y-89609524D01*
X176272380Y-89609524D02*
X177272380Y-90276190D01*
X176605714Y-88800000D02*
X177272380Y-88800000D01*
X176224761Y-89038095D02*
X176939047Y-89276190D01*
X176939047Y-88657143D01*
%TO.C,C3*%
X147583333Y-96257142D02*
X147535714Y-96304761D01*
X147392857Y-96352380D01*
X147297619Y-96352380D01*
X147154761Y-96304761D01*
X147059523Y-96209523D01*
X147011904Y-96114285D01*
X146964285Y-95923809D01*
X146964285Y-95780952D01*
X147011904Y-95590476D01*
X147059523Y-95495238D01*
X147154761Y-95400000D01*
X147297619Y-95352380D01*
X147392857Y-95352380D01*
X147535714Y-95400000D01*
X147583333Y-95447619D01*
X147916666Y-95352380D02*
X148535714Y-95352380D01*
X148202380Y-95733333D01*
X148345238Y-95733333D01*
X148440476Y-95780952D01*
X148488095Y-95828571D01*
X148535714Y-95923809D01*
X148535714Y-96161904D01*
X148488095Y-96257142D01*
X148440476Y-96304761D01*
X148345238Y-96352380D01*
X148059523Y-96352380D01*
X147964285Y-96304761D01*
X147916666Y-96257142D01*
%TO.C,C1*%
X141833333Y-83999642D02*
X141785714Y-84047261D01*
X141642857Y-84094880D01*
X141547619Y-84094880D01*
X141404761Y-84047261D01*
X141309523Y-83952023D01*
X141261904Y-83856785D01*
X141214285Y-83666309D01*
X141214285Y-83523452D01*
X141261904Y-83332976D01*
X141309523Y-83237738D01*
X141404761Y-83142500D01*
X141547619Y-83094880D01*
X141642857Y-83094880D01*
X141785714Y-83142500D01*
X141833333Y-83190119D01*
X142785714Y-84094880D02*
X142214285Y-84094880D01*
X142500000Y-84094880D02*
X142500000Y-83094880D01*
X142404761Y-83237738D01*
X142309523Y-83332976D01*
X142214285Y-83380595D01*
%TO.C,X2*%
X176272380Y-107142856D02*
X177272380Y-106476190D01*
X176272380Y-106476190D02*
X177272380Y-107142856D01*
X176367619Y-106142856D02*
X176320000Y-106095237D01*
X176272380Y-105999999D01*
X176272380Y-105761904D01*
X176320000Y-105666666D01*
X176367619Y-105619047D01*
X176462857Y-105571428D01*
X176558095Y-105571428D01*
X176700952Y-105619047D01*
X177272380Y-106190475D01*
X177272380Y-105571428D01*
%TO.C,R6*%
X166808333Y-98052380D02*
X166475000Y-97576190D01*
X166236904Y-98052380D02*
X166236904Y-97052380D01*
X166617857Y-97052380D01*
X166713095Y-97100000D01*
X166760714Y-97147619D01*
X166808333Y-97242857D01*
X166808333Y-97385714D01*
X166760714Y-97480952D01*
X166713095Y-97528571D01*
X166617857Y-97576190D01*
X166236904Y-97576190D01*
X167665476Y-97052380D02*
X167475000Y-97052380D01*
X167379761Y-97100000D01*
X167332142Y-97147619D01*
X167236904Y-97290476D01*
X167189285Y-97480952D01*
X167189285Y-97861904D01*
X167236904Y-97957142D01*
X167284523Y-98004761D01*
X167379761Y-98052380D01*
X167570238Y-98052380D01*
X167665476Y-98004761D01*
X167713095Y-97957142D01*
X167760714Y-97861904D01*
X167760714Y-97623809D01*
X167713095Y-97528571D01*
X167665476Y-97480952D01*
X167570238Y-97433333D01*
X167379761Y-97433333D01*
X167284523Y-97480952D01*
X167236904Y-97528571D01*
X167189285Y-97623809D01*
D11*
%TO.C,J2*%
X168876666Y-85404523D02*
X168876666Y-86311666D01*
X168816190Y-86493095D01*
X168695238Y-86614047D01*
X168513809Y-86674523D01*
X168392857Y-86674523D01*
X169420952Y-85525476D02*
X169481428Y-85465000D01*
X169602380Y-85404523D01*
X169904761Y-85404523D01*
X170025714Y-85465000D01*
X170086190Y-85525476D01*
X170146666Y-85646428D01*
X170146666Y-85767380D01*
X170086190Y-85948809D01*
X169360476Y-86674523D01*
X170146666Y-86674523D01*
D10*
%TO.C,C4*%
X134833333Y-103857142D02*
X134785714Y-103904761D01*
X134642857Y-103952380D01*
X134547619Y-103952380D01*
X134404761Y-103904761D01*
X134309523Y-103809523D01*
X134261904Y-103714285D01*
X134214285Y-103523809D01*
X134214285Y-103380952D01*
X134261904Y-103190476D01*
X134309523Y-103095238D01*
X134404761Y-103000000D01*
X134547619Y-102952380D01*
X134642857Y-102952380D01*
X134785714Y-103000000D01*
X134833333Y-103047619D01*
X135690476Y-103285714D02*
X135690476Y-103952380D01*
X135452380Y-102904761D02*
X135214285Y-103619047D01*
X135833333Y-103619047D01*
%TO.C,U3*%
X162538095Y-99752380D02*
X162538095Y-100561904D01*
X162585714Y-100657142D01*
X162633333Y-100704761D01*
X162728571Y-100752380D01*
X162919047Y-100752380D01*
X163014285Y-100704761D01*
X163061904Y-100657142D01*
X163109523Y-100561904D01*
X163109523Y-99752380D01*
X163490476Y-99752380D02*
X164109523Y-99752380D01*
X163776190Y-100133333D01*
X163919047Y-100133333D01*
X164014285Y-100180952D01*
X164061904Y-100228571D01*
X164109523Y-100323809D01*
X164109523Y-100561904D01*
X164061904Y-100657142D01*
X164014285Y-100704761D01*
X163919047Y-100752380D01*
X163633333Y-100752380D01*
X163538095Y-100704761D01*
X163490476Y-100657142D01*
%TO.C,U1*%
X164438095Y-84352380D02*
X164438095Y-85161904D01*
X164485714Y-85257142D01*
X164533333Y-85304761D01*
X164628571Y-85352380D01*
X164819047Y-85352380D01*
X164914285Y-85304761D01*
X164961904Y-85257142D01*
X165009523Y-85161904D01*
X165009523Y-84352380D01*
X166009523Y-85352380D02*
X165438095Y-85352380D01*
X165723809Y-85352380D02*
X165723809Y-84352380D01*
X165628571Y-84495238D01*
X165533333Y-84590476D01*
X165438095Y-84638095D01*
%TO.C,R2*%
X149033333Y-105152380D02*
X148700000Y-104676190D01*
X148461904Y-105152380D02*
X148461904Y-104152380D01*
X148842857Y-104152380D01*
X148938095Y-104200000D01*
X148985714Y-104247619D01*
X149033333Y-104342857D01*
X149033333Y-104485714D01*
X148985714Y-104580952D01*
X148938095Y-104628571D01*
X148842857Y-104676190D01*
X148461904Y-104676190D01*
X149414285Y-104247619D02*
X149461904Y-104200000D01*
X149557142Y-104152380D01*
X149795238Y-104152380D01*
X149890476Y-104200000D01*
X149938095Y-104247619D01*
X149985714Y-104342857D01*
X149985714Y-104438095D01*
X149938095Y-104580952D01*
X149366666Y-105152380D01*
X149985714Y-105152380D01*
%TO.C,J4*%
X170516666Y-115302380D02*
X170516666Y-116016666D01*
X170469047Y-116159523D01*
X170373809Y-116254761D01*
X170230952Y-116302380D01*
X170135714Y-116302380D01*
X171421428Y-115635714D02*
X171421428Y-116302380D01*
X171183333Y-115254761D02*
X170945238Y-115969047D01*
X171564285Y-115969047D01*
%TO.C,R1*%
X151333333Y-105164880D02*
X151000000Y-104688690D01*
X150761904Y-105164880D02*
X150761904Y-104164880D01*
X151142857Y-104164880D01*
X151238095Y-104212500D01*
X151285714Y-104260119D01*
X151333333Y-104355357D01*
X151333333Y-104498214D01*
X151285714Y-104593452D01*
X151238095Y-104641071D01*
X151142857Y-104688690D01*
X150761904Y-104688690D01*
X152285714Y-105164880D02*
X151714285Y-105164880D01*
X152000000Y-105164880D02*
X152000000Y-104164880D01*
X151904761Y-104307738D01*
X151809523Y-104402976D01*
X151714285Y-104450595D01*
%TO.C,R5*%
X144233333Y-78139880D02*
X143900000Y-77663690D01*
X143661904Y-78139880D02*
X143661904Y-77139880D01*
X144042857Y-77139880D01*
X144138095Y-77187500D01*
X144185714Y-77235119D01*
X144233333Y-77330357D01*
X144233333Y-77473214D01*
X144185714Y-77568452D01*
X144138095Y-77616071D01*
X144042857Y-77663690D01*
X143661904Y-77663690D01*
X145138095Y-77139880D02*
X144661904Y-77139880D01*
X144614285Y-77616071D01*
X144661904Y-77568452D01*
X144757142Y-77520833D01*
X144995238Y-77520833D01*
X145090476Y-77568452D01*
X145138095Y-77616071D01*
X145185714Y-77711309D01*
X145185714Y-77949404D01*
X145138095Y-78044642D01*
X145090476Y-78092261D01*
X144995238Y-78139880D01*
X144757142Y-78139880D01*
X144661904Y-78092261D01*
X144614285Y-78044642D01*
%TO.C,U4*%
X127372380Y-98861904D02*
X128181904Y-98861904D01*
X128277142Y-98814285D01*
X128324761Y-98766666D01*
X128372380Y-98671428D01*
X128372380Y-98480952D01*
X128324761Y-98385714D01*
X128277142Y-98338095D01*
X128181904Y-98290476D01*
X127372380Y-98290476D01*
X127705714Y-97385714D02*
X128372380Y-97385714D01*
X127324761Y-97623809D02*
X128039047Y-97861904D01*
X128039047Y-97242857D01*
%TO.C,J5*%
X157666666Y-112252380D02*
X157666666Y-112966666D01*
X157619047Y-113109523D01*
X157523809Y-113204761D01*
X157380952Y-113252380D01*
X157285714Y-113252380D01*
X158619047Y-112252380D02*
X158142857Y-112252380D01*
X158095238Y-112728571D01*
X158142857Y-112680952D01*
X158238095Y-112633333D01*
X158476190Y-112633333D01*
X158571428Y-112680952D01*
X158619047Y-112728571D01*
X158666666Y-112823809D01*
X158666666Y-113061904D01*
X158619047Y-113157142D01*
X158571428Y-113204761D01*
X158476190Y-113252380D01*
X158238095Y-113252380D01*
X158142857Y-113204761D01*
X158095238Y-113157142D01*
%TO.C,R3*%
X146833333Y-105139880D02*
X146500000Y-104663690D01*
X146261904Y-105139880D02*
X146261904Y-104139880D01*
X146642857Y-104139880D01*
X146738095Y-104187500D01*
X146785714Y-104235119D01*
X146833333Y-104330357D01*
X146833333Y-104473214D01*
X146785714Y-104568452D01*
X146738095Y-104616071D01*
X146642857Y-104663690D01*
X146261904Y-104663690D01*
X147166666Y-104139880D02*
X147785714Y-104139880D01*
X147452380Y-104520833D01*
X147595238Y-104520833D01*
X147690476Y-104568452D01*
X147738095Y-104616071D01*
X147785714Y-104711309D01*
X147785714Y-104949404D01*
X147738095Y-105044642D01*
X147690476Y-105092261D01*
X147595238Y-105139880D01*
X147309523Y-105139880D01*
X147214285Y-105092261D01*
X147166666Y-105044642D01*
%TO.C,X1*%
X176272380Y-115576190D02*
X177272380Y-114909524D01*
X176272380Y-114909524D02*
X177272380Y-115576190D01*
X177272380Y-114004762D02*
X177272380Y-114576190D01*
X177272380Y-114290476D02*
X176272380Y-114290476D01*
X176415238Y-114385714D01*
X176510476Y-114480952D01*
X176558095Y-114576190D01*
%TO.C,R4*%
X144733333Y-105139880D02*
X144400000Y-104663690D01*
X144161904Y-105139880D02*
X144161904Y-104139880D01*
X144542857Y-104139880D01*
X144638095Y-104187500D01*
X144685714Y-104235119D01*
X144733333Y-104330357D01*
X144733333Y-104473214D01*
X144685714Y-104568452D01*
X144638095Y-104616071D01*
X144542857Y-104663690D01*
X144161904Y-104663690D01*
X145590476Y-104473214D02*
X145590476Y-105139880D01*
X145352380Y-104092261D02*
X145114285Y-104806547D01*
X145733333Y-104806547D01*
%TO.C,D1*%
X126161904Y-75052380D02*
X126161904Y-74052380D01*
X126400000Y-74052380D01*
X126542857Y-74100000D01*
X126638095Y-74195238D01*
X126685714Y-74290476D01*
X126733333Y-74480952D01*
X126733333Y-74623809D01*
X126685714Y-74814285D01*
X126638095Y-74909523D01*
X126542857Y-75004761D01*
X126400000Y-75052380D01*
X126161904Y-75052380D01*
X127685714Y-75052380D02*
X127114285Y-75052380D01*
X127400000Y-75052380D02*
X127400000Y-74052380D01*
X127304761Y-74195238D01*
X127209523Y-74290476D01*
X127114285Y-74338095D01*
%TO.C,J3*%
X153216666Y-112702380D02*
X153216666Y-113416666D01*
X153169047Y-113559523D01*
X153073809Y-113654761D01*
X152930952Y-113702380D01*
X152835714Y-113702380D01*
X153597619Y-112702380D02*
X154216666Y-112702380D01*
X153883333Y-113083333D01*
X154026190Y-113083333D01*
X154121428Y-113130952D01*
X154169047Y-113178571D01*
X154216666Y-113273809D01*
X154216666Y-113511904D01*
X154169047Y-113607142D01*
X154121428Y-113654761D01*
X154026190Y-113702380D01*
X153740476Y-113702380D01*
X153645238Y-113654761D01*
X153597619Y-113607142D01*
%TO.C,X3*%
X176272380Y-98709523D02*
X177272380Y-98042857D01*
X176272380Y-98042857D02*
X177272380Y-98709523D01*
X176272380Y-97757142D02*
X176272380Y-97138095D01*
X176653333Y-97471428D01*
X176653333Y-97328571D01*
X176700952Y-97233333D01*
X176748571Y-97185714D01*
X176843809Y-97138095D01*
X177081904Y-97138095D01*
X177177142Y-97185714D01*
X177224761Y-97233333D01*
X177272380Y-97328571D01*
X177272380Y-97614285D01*
X177224761Y-97709523D01*
X177177142Y-97757142D01*
D12*
%TO.C,U2*%
X172500000Y-111500000D02*
X121700000Y-111500000D01*
X121700000Y-111500000D02*
X121700000Y-88640000D01*
X121700000Y-88640000D02*
X172500000Y-88640000D01*
X172500000Y-88640000D02*
X172500000Y-111500000D01*
%TO.C,SW1*%
X149500000Y-84850000D02*
X155700000Y-84850000D01*
X155700000Y-84850000D02*
X155700000Y-87550000D01*
X155700000Y-87550000D02*
X149500000Y-87550000D01*
X149500000Y-87550000D02*
X149500000Y-84850000D01*
D13*
%TO.C,J1*%
X121000000Y-77755000D02*
X121000000Y-86645000D01*
X133000000Y-77755000D02*
X121000000Y-77755000D01*
X133000000Y-86645000D02*
X133000000Y-77755000D01*
X121000000Y-86645000D02*
X133000000Y-86645000D01*
D12*
%TO.C,C2*%
X150761252Y-98165000D02*
X150238748Y-98165000D01*
X150761252Y-99635000D02*
X150238748Y-99635000D01*
%TO.C,J7*%
X130750000Y-113905000D02*
X141250000Y-113905000D01*
X141250000Y-113905000D02*
X141250000Y-121905000D01*
X141250000Y-121905000D02*
X130750000Y-121905000D01*
X130750000Y-121905000D02*
X130750000Y-113905000D01*
%TO.C,X4*%
X183485000Y-91406667D02*
X183485000Y-87526667D01*
X181515000Y-92576667D02*
X179015000Y-92576667D01*
X181515000Y-86356667D02*
X179015000Y-86356667D01*
X179015000Y-92576667D02*
X179015000Y-91526667D01*
X179015000Y-86356667D02*
X179015000Y-87406667D01*
X179015000Y-91526667D02*
X178025000Y-91526667D01*
%TO.C,C3*%
X150761252Y-95365000D02*
X150238748Y-95365000D01*
X150761252Y-96835000D02*
X150238748Y-96835000D01*
%TO.C,C1*%
X135304437Y-74182500D02*
X136990000Y-74182500D01*
X134240000Y-75246937D02*
X134240000Y-82702500D01*
X135304437Y-74182500D02*
X134240000Y-75246937D01*
X141510000Y-73442500D02*
X140510000Y-73442500D01*
X142760000Y-82702500D02*
X140010000Y-82702500D01*
X141695563Y-74182500D02*
X142760000Y-75246937D01*
X134240000Y-82702500D02*
X136990000Y-82702500D01*
X141010000Y-72942500D02*
X141010000Y-73942500D01*
X142760000Y-75246937D02*
X142760000Y-82702500D01*
X141695563Y-74182500D02*
X140010000Y-74182500D01*
%TO.C,X2*%
X183485000Y-108273333D02*
X183485000Y-104393333D01*
X181515000Y-109443333D02*
X179015000Y-109443333D01*
X181515000Y-103223333D02*
X179015000Y-103223333D01*
X179015000Y-109443333D02*
X179015000Y-108393333D01*
X179015000Y-103223333D02*
X179015000Y-104273333D01*
X179015000Y-108393333D02*
X178025000Y-108393333D01*
%TO.C,R6*%
X163960436Y-96765000D02*
X164414564Y-96765000D01*
X163960436Y-98235000D02*
X164414564Y-98235000D01*
D14*
%TO.C,J2*%
X178954000Y-84800000D02*
X166846000Y-84800000D01*
X166846000Y-84800000D02*
X166846000Y-72800000D01*
X166846000Y-72800000D02*
X178954000Y-72800000D01*
X178954000Y-72800000D02*
X178954000Y-84800000D01*
D12*
%TO.C,C4*%
X132511252Y-102765000D02*
X131988748Y-102765000D01*
X132511252Y-104235000D02*
X131988748Y-104235000D01*
%TO.C,U3*%
X153260000Y-100265000D02*
X153260000Y-98315000D01*
X162130000Y-100265000D02*
X162130000Y-98315000D01*
X153260000Y-100265000D02*
X153260000Y-103715000D01*
X162130000Y-100265000D02*
X162130000Y-102215000D01*
%TO.C,U1*%
X146000000Y-72800000D02*
X166000000Y-72800000D01*
X166000000Y-72800000D02*
X166000000Y-83800000D01*
X166000000Y-83800000D02*
X146000000Y-83800000D01*
X146000000Y-83800000D02*
X146000000Y-72800000D01*
%TO.C,R2*%
X149935000Y-102072936D02*
X149935000Y-102527064D01*
X148465000Y-102072936D02*
X148465000Y-102527064D01*
%TO.C,J4*%
X166830000Y-119105000D02*
X169430000Y-119105000D01*
X168100000Y-116505000D02*
X169430000Y-116505000D01*
X169430000Y-121705000D02*
X159150000Y-121705000D01*
X159150000Y-116505000D02*
X159150000Y-121705000D01*
X166830000Y-116505000D02*
X159150000Y-116505000D01*
X166830000Y-116505000D02*
X166830000Y-119105000D01*
X169430000Y-116505000D02*
X169430000Y-117835000D01*
X169430000Y-119105000D02*
X169430000Y-121705000D01*
%TO.C,R1*%
X152135000Y-102085436D02*
X152135000Y-102539564D01*
X150665000Y-102085436D02*
X150665000Y-102539564D01*
%TO.C,R5*%
X143665000Y-75514564D02*
X143665000Y-75060436D01*
X145135000Y-75514564D02*
X145135000Y-75060436D01*
%TO.C,U4*%
X128765000Y-98100000D02*
X128765000Y-96150000D01*
X137635000Y-98100000D02*
X137635000Y-96150000D01*
X128765000Y-98100000D02*
X128765000Y-101550000D01*
X137635000Y-98100000D02*
X137635000Y-100050000D01*
%TO.C,J5*%
X155070000Y-121695000D02*
X157730000Y-121695000D01*
X155070000Y-116555000D02*
X155070000Y-121695000D01*
X155070000Y-115285000D02*
X155070000Y-113955000D01*
X157730000Y-116555000D02*
X157730000Y-121695000D01*
X155070000Y-113955000D02*
X156400000Y-113955000D01*
X155070000Y-116555000D02*
X157730000Y-116555000D01*
%TO.C,R3*%
X147735000Y-102072936D02*
X147735000Y-102527064D01*
X146265000Y-102072936D02*
X146265000Y-102527064D01*
%TO.C,X1*%
X183485000Y-116706667D02*
X183485000Y-112826667D01*
X181515000Y-117876667D02*
X179015000Y-117876667D01*
X181515000Y-111656667D02*
X179015000Y-111656667D01*
X179015000Y-117876667D02*
X179015000Y-116826667D01*
X179015000Y-111656667D02*
X179015000Y-112706667D01*
X179015000Y-116826667D02*
X178025000Y-116826667D01*
%TO.C,R4*%
X145535000Y-102072936D02*
X145535000Y-102527064D01*
X144065000Y-102072936D02*
X144065000Y-102527064D01*
%TO.C,D1*%
X132502000Y-76924000D02*
X127930000Y-76924000D01*
X127930000Y-76924000D02*
X127930000Y-73876000D01*
X127930000Y-73876000D02*
X132502000Y-73876000D01*
X132502000Y-73876000D02*
X132502000Y-76924000D01*
%TO.C,J3*%
X143300000Y-113910000D02*
X153800000Y-113910000D01*
X153800000Y-113910000D02*
X153800000Y-121910000D01*
X153800000Y-121910000D02*
X143300000Y-121910000D01*
X143300000Y-121910000D02*
X143300000Y-113910000D01*
%TO.C,X3*%
X183485000Y-99840000D02*
X183485000Y-95960000D01*
X181515000Y-101010000D02*
X179015000Y-101010000D01*
X181515000Y-94790000D02*
X179015000Y-94790000D01*
X179015000Y-101010000D02*
X179015000Y-99960000D01*
X179015000Y-94790000D02*
X179015000Y-95840000D01*
X179015000Y-99960000D02*
X178025000Y-99960000D01*
%TO.C,G\u002A\u002A\u002A*%
G36*
X176163529Y-119087044D02*
G01*
X176277994Y-119091972D01*
X176345237Y-119101824D01*
X176358740Y-119114482D01*
X176318515Y-119132057D01*
X176235846Y-119143572D01*
X176165173Y-119146192D01*
X176033659Y-119152761D01*
X175853859Y-119171233D01*
X175639396Y-119199756D01*
X175403894Y-119236481D01*
X175160978Y-119279556D01*
X175105456Y-119290173D01*
X174971232Y-119315901D01*
X174883459Y-119329074D01*
X174826174Y-119328417D01*
X174783419Y-119312651D01*
X174739233Y-119280499D01*
X174712668Y-119258740D01*
X174620405Y-119183306D01*
X174760234Y-119166828D01*
X174965192Y-119145151D01*
X175182945Y-119126433D01*
X175404917Y-119110953D01*
X175622535Y-119098994D01*
X175827225Y-119090835D01*
X176010414Y-119086758D01*
X176163529Y-119087044D01*
G37*
G36*
X171792447Y-121352201D02*
G01*
X171862909Y-121363295D01*
X171979045Y-121375428D01*
X172123168Y-121386940D01*
X172240795Y-121394266D01*
X172396951Y-121403776D01*
X172503619Y-121414330D01*
X172574693Y-121429251D01*
X172624067Y-121451860D01*
X172665632Y-121485478D01*
X172679621Y-121499171D01*
X172729776Y-121562010D01*
X172747002Y-121610599D01*
X172744695Y-121618085D01*
X172702390Y-121636206D01*
X172615036Y-121645402D01*
X172500450Y-121645105D01*
X172376450Y-121634750D01*
X172347379Y-121630722D01*
X172171209Y-121592148D01*
X172003022Y-121534097D01*
X171864444Y-121464848D01*
X171807629Y-121424087D01*
X171697316Y-121329352D01*
X171792447Y-121352201D01*
G37*
G36*
X175423233Y-119447067D02*
G01*
X175560730Y-119452404D01*
X175681621Y-119461349D01*
X175769947Y-119473534D01*
X175808521Y-119487079D01*
X175819023Y-119509359D01*
X175788199Y-119521695D01*
X175706856Y-119526547D01*
X175659526Y-119526942D01*
X175519146Y-119530427D01*
X175359184Y-119539148D01*
X175261253Y-119546967D01*
X175130632Y-119554394D01*
X175054317Y-119546030D01*
X175028178Y-119528777D01*
X175019540Y-119481402D01*
X175026355Y-119469114D01*
X175070691Y-119456359D01*
X175162254Y-119448678D01*
X175285088Y-119445702D01*
X175423233Y-119447067D01*
G37*
G36*
X172730119Y-119706077D02*
G01*
X172916595Y-119490763D01*
X173145813Y-119316639D01*
X173272525Y-119248529D01*
X173527894Y-119159910D01*
X173799812Y-119122431D01*
X174075671Y-119134375D01*
X174342865Y-119194023D01*
X174588788Y-119299657D01*
X174800834Y-119449562D01*
X174810158Y-119458038D01*
X175019832Y-119690438D01*
X175171660Y-119946625D01*
X175264415Y-120222625D01*
X175296871Y-120514464D01*
X175267802Y-120818168D01*
X175252047Y-120890262D01*
X175158848Y-121147122D01*
X175014851Y-121376312D01*
X174828424Y-121572996D01*
X174607936Y-121732337D01*
X174361758Y-121849496D01*
X174098259Y-121919637D01*
X173825807Y-121937923D01*
X173552773Y-121899516D01*
X173520662Y-121890950D01*
X173225424Y-121779540D01*
X172976184Y-121625399D01*
X172774849Y-121431020D01*
X172623328Y-121198897D01*
X172523529Y-120931521D01*
X172477362Y-120631387D01*
X172474220Y-120523931D01*
X172504223Y-120230183D01*
X172507642Y-120219356D01*
X173277944Y-120219356D01*
X173284841Y-120283793D01*
X173296484Y-120300963D01*
X173356746Y-120343031D01*
X173393821Y-120351186D01*
X173459423Y-120328312D01*
X173491158Y-120300963D01*
X173512994Y-120236574D01*
X173484432Y-120178892D01*
X173417303Y-120146861D01*
X173393821Y-120145069D01*
X173318214Y-120166798D01*
X173277944Y-120219356D01*
X172507642Y-120219356D01*
X172591092Y-119955058D01*
X172730119Y-119706077D01*
G37*
G36*
X175877634Y-118675160D02*
G01*
X176199354Y-118695246D01*
X176478638Y-118731218D01*
X176618160Y-118755652D01*
X176732738Y-118777497D01*
X176809029Y-118794096D01*
X176833677Y-118801946D01*
X176811392Y-118806648D01*
X176740418Y-118806924D01*
X176635332Y-118802779D01*
X176618648Y-118801842D01*
X176376491Y-118798711D01*
X176090713Y-118813015D01*
X175778084Y-118842829D01*
X175455376Y-118886227D01*
X175139361Y-118941283D01*
X174852497Y-119004649D01*
X174738544Y-119032387D01*
X174636995Y-119055968D01*
X174593833Y-119065324D01*
X174514235Y-119084041D01*
X174466991Y-119098159D01*
X174405679Y-119096049D01*
X174376842Y-119082924D01*
X174309482Y-119059025D01*
X174243944Y-119051547D01*
X174164888Y-119043397D01*
X174141175Y-119021951D01*
X174166764Y-118989856D01*
X174235616Y-118949762D01*
X174341690Y-118904316D01*
X174478945Y-118856167D01*
X174641341Y-118807963D01*
X174822838Y-118762354D01*
X174979003Y-118729266D01*
X175246295Y-118692142D01*
X175552893Y-118674116D01*
X175877634Y-118675160D01*
G37*
G36*
X175137270Y-121453121D02*
G01*
X175158075Y-121504896D01*
X175193384Y-121550559D01*
X175279779Y-121644312D01*
X175364021Y-121744918D01*
X175454288Y-121863249D01*
X175558760Y-122010174D01*
X175685617Y-122196563D01*
X175734506Y-122269663D01*
X175834250Y-122417382D01*
X175923212Y-122545563D01*
X175994981Y-122645253D01*
X176043145Y-122707493D01*
X176059833Y-122724178D01*
X176087290Y-122760575D01*
X176089201Y-122775789D01*
X176111461Y-122828970D01*
X176136767Y-122856305D01*
X176176630Y-122902080D01*
X176184333Y-122923608D01*
X176154570Y-122933803D01*
X176073057Y-122942178D01*
X175951453Y-122947988D01*
X175801418Y-122950484D01*
X175764170Y-122950512D01*
X175344008Y-122949587D01*
X175201311Y-122754533D01*
X175130561Y-122656296D01*
X175074738Y-122575959D01*
X175044465Y-122528861D01*
X175042759Y-122525557D01*
X175017178Y-122480665D01*
X174969805Y-122404357D01*
X174939701Y-122357497D01*
X174889685Y-122277327D01*
X174858141Y-122220543D01*
X174852497Y-122205589D01*
X174835915Y-122171465D01*
X174796065Y-122108532D01*
X174747788Y-122038676D01*
X174705929Y-121983778D01*
X174691632Y-121968415D01*
X174666051Y-121927929D01*
X174653751Y-121899050D01*
X174657925Y-121854888D01*
X174708598Y-121805243D01*
X174772017Y-121764680D01*
X174876600Y-121689783D01*
X174982759Y-121593130D01*
X175023323Y-121548651D01*
X175084204Y-121482378D01*
X175125588Y-121449448D01*
X175137270Y-121453121D01*
G37*
G36*
X172343843Y-120601334D02*
G01*
X172364751Y-120671814D01*
X172377230Y-120763709D01*
X172378656Y-120801983D01*
X172391537Y-120892614D01*
X172421969Y-120990934D01*
X172422513Y-120992245D01*
X172464074Y-121099236D01*
X172499034Y-121199438D01*
X172532132Y-121302497D01*
X172241566Y-121298086D01*
X172073506Y-121291105D01*
X171893689Y-121276657D01*
X171736569Y-121257623D01*
X171713171Y-121253901D01*
X171520675Y-121218702D01*
X171359061Y-121183219D01*
X171236736Y-121149697D01*
X171162104Y-121120384D01*
X171142385Y-121101338D01*
X171165596Y-121086211D01*
X171187901Y-121091205D01*
X171270067Y-121100820D01*
X171390052Y-121087959D01*
X171533248Y-121057283D01*
X171685048Y-121013450D01*
X171830843Y-120961120D01*
X171956026Y-120904953D01*
X172045987Y-120849606D01*
X172084428Y-120805254D01*
X172120942Y-120766853D01*
X172136726Y-120763330D01*
X172176904Y-120739155D01*
X172228352Y-120679920D01*
X172236392Y-120668290D01*
X172283253Y-120605630D01*
X172316613Y-120574127D01*
X172319898Y-120573250D01*
X172343843Y-120601334D01*
G37*
G36*
X177484457Y-122920721D02*
G01*
X177458758Y-122947976D01*
X177436892Y-122951436D01*
X177394584Y-122944651D01*
X177389326Y-122938973D01*
X177414122Y-122918526D01*
X177436892Y-122908258D01*
X177477724Y-122907599D01*
X177484457Y-122920721D01*
G37*
G36*
X126163529Y-113637044D02*
G01*
X126277994Y-113641972D01*
X126345237Y-113651824D01*
X126358740Y-113664482D01*
X126318515Y-113682057D01*
X126235846Y-113693572D01*
X126165173Y-113696192D01*
X126033659Y-113702761D01*
X125853859Y-113721233D01*
X125639396Y-113749756D01*
X125403894Y-113786481D01*
X125160978Y-113829556D01*
X125105456Y-113840173D01*
X124971232Y-113865901D01*
X124883459Y-113879074D01*
X124826174Y-113878417D01*
X124783419Y-113862651D01*
X124739233Y-113830499D01*
X124712668Y-113808740D01*
X124620405Y-113733306D01*
X124760234Y-113716828D01*
X124965192Y-113695151D01*
X125182945Y-113676433D01*
X125404917Y-113660953D01*
X125622535Y-113648994D01*
X125827225Y-113640835D01*
X126010414Y-113636758D01*
X126163529Y-113637044D01*
G37*
G36*
X121792447Y-115902201D02*
G01*
X121862909Y-115913295D01*
X121979045Y-115925428D01*
X122123168Y-115936940D01*
X122240795Y-115944266D01*
X122396951Y-115953776D01*
X122503619Y-115964330D01*
X122574693Y-115979251D01*
X122624067Y-116001860D01*
X122665632Y-116035478D01*
X122679621Y-116049171D01*
X122729776Y-116112010D01*
X122747002Y-116160599D01*
X122744695Y-116168085D01*
X122702390Y-116186206D01*
X122615036Y-116195402D01*
X122500450Y-116195105D01*
X122376450Y-116184750D01*
X122347379Y-116180722D01*
X122171209Y-116142148D01*
X122003022Y-116084097D01*
X121864444Y-116014848D01*
X121807629Y-115974087D01*
X121697316Y-115879352D01*
X121792447Y-115902201D01*
G37*
G36*
X125423233Y-113997067D02*
G01*
X125560730Y-114002404D01*
X125681621Y-114011349D01*
X125769947Y-114023534D01*
X125808521Y-114037079D01*
X125819023Y-114059359D01*
X125788199Y-114071695D01*
X125706856Y-114076547D01*
X125659526Y-114076942D01*
X125519146Y-114080427D01*
X125359184Y-114089148D01*
X125261253Y-114096967D01*
X125130632Y-114104394D01*
X125054317Y-114096030D01*
X125028178Y-114078777D01*
X125019540Y-114031402D01*
X125026355Y-114019114D01*
X125070691Y-114006359D01*
X125162254Y-113998678D01*
X125285088Y-113995702D01*
X125423233Y-113997067D01*
G37*
G36*
X122730119Y-114256077D02*
G01*
X122916595Y-114040763D01*
X123145813Y-113866639D01*
X123272525Y-113798529D01*
X123527894Y-113709910D01*
X123799812Y-113672431D01*
X124075671Y-113684375D01*
X124342865Y-113744023D01*
X124588788Y-113849657D01*
X124800834Y-113999562D01*
X124810158Y-114008038D01*
X125019832Y-114240438D01*
X125171660Y-114496625D01*
X125264415Y-114772625D01*
X125296871Y-115064464D01*
X125267802Y-115368168D01*
X125252047Y-115440262D01*
X125158848Y-115697122D01*
X125014851Y-115926312D01*
X124828424Y-116122996D01*
X124607936Y-116282337D01*
X124361758Y-116399496D01*
X124098259Y-116469637D01*
X123825807Y-116487923D01*
X123552773Y-116449516D01*
X123520662Y-116440950D01*
X123225424Y-116329540D01*
X122976184Y-116175399D01*
X122774849Y-115981020D01*
X122623328Y-115748897D01*
X122523529Y-115481521D01*
X122477362Y-115181387D01*
X122474220Y-115073931D01*
X122504223Y-114780183D01*
X122507642Y-114769356D01*
X123277944Y-114769356D01*
X123284841Y-114833793D01*
X123296484Y-114850963D01*
X123356746Y-114893031D01*
X123393821Y-114901186D01*
X123459423Y-114878312D01*
X123491158Y-114850963D01*
X123512994Y-114786574D01*
X123484432Y-114728892D01*
X123417303Y-114696861D01*
X123393821Y-114695069D01*
X123318214Y-114716798D01*
X123277944Y-114769356D01*
X122507642Y-114769356D01*
X122591092Y-114505058D01*
X122730119Y-114256077D01*
G37*
G36*
X125877634Y-113225160D02*
G01*
X126199354Y-113245246D01*
X126478638Y-113281218D01*
X126618160Y-113305652D01*
X126732738Y-113327497D01*
X126809029Y-113344096D01*
X126833677Y-113351946D01*
X126811392Y-113356648D01*
X126740418Y-113356924D01*
X126635332Y-113352779D01*
X126618648Y-113351842D01*
X126376491Y-113348711D01*
X126090713Y-113363015D01*
X125778084Y-113392829D01*
X125455376Y-113436227D01*
X125139361Y-113491283D01*
X124852497Y-113554649D01*
X124738544Y-113582387D01*
X124636995Y-113605968D01*
X124593833Y-113615324D01*
X124514235Y-113634041D01*
X124466991Y-113648159D01*
X124405679Y-113646049D01*
X124376842Y-113632924D01*
X124309482Y-113609025D01*
X124243944Y-113601547D01*
X124164888Y-113593397D01*
X124141175Y-113571951D01*
X124166764Y-113539856D01*
X124235616Y-113499762D01*
X124341690Y-113454316D01*
X124478945Y-113406167D01*
X124641341Y-113357963D01*
X124822838Y-113312354D01*
X124979003Y-113279266D01*
X125246295Y-113242142D01*
X125552893Y-113224116D01*
X125877634Y-113225160D01*
G37*
G36*
X125137270Y-116003121D02*
G01*
X125158075Y-116054896D01*
X125193384Y-116100559D01*
X125279779Y-116194312D01*
X125364021Y-116294918D01*
X125454288Y-116413249D01*
X125558760Y-116560174D01*
X125685617Y-116746563D01*
X125734506Y-116819663D01*
X125834250Y-116967382D01*
X125923212Y-117095563D01*
X125994981Y-117195253D01*
X126043145Y-117257493D01*
X126059833Y-117274178D01*
X126087290Y-117310575D01*
X126089201Y-117325789D01*
X126111461Y-117378970D01*
X126136767Y-117406305D01*
X126176630Y-117452080D01*
X126184333Y-117473608D01*
X126154570Y-117483803D01*
X126073057Y-117492178D01*
X125951453Y-117497988D01*
X125801418Y-117500484D01*
X125764170Y-117500512D01*
X125344008Y-117499587D01*
X125201311Y-117304533D01*
X125130561Y-117206296D01*
X125074738Y-117125959D01*
X125044465Y-117078861D01*
X125042759Y-117075557D01*
X125017178Y-117030665D01*
X124969805Y-116954357D01*
X124939701Y-116907497D01*
X124889685Y-116827327D01*
X124858141Y-116770543D01*
X124852497Y-116755589D01*
X124835915Y-116721465D01*
X124796065Y-116658532D01*
X124747788Y-116588676D01*
X124705929Y-116533778D01*
X124691632Y-116518415D01*
X124666051Y-116477929D01*
X124653751Y-116449050D01*
X124657925Y-116404888D01*
X124708598Y-116355243D01*
X124772017Y-116314680D01*
X124876600Y-116239783D01*
X124982759Y-116143130D01*
X125023323Y-116098651D01*
X125084204Y-116032378D01*
X125125588Y-115999448D01*
X125137270Y-116003121D01*
G37*
G36*
X122343843Y-115151334D02*
G01*
X122364751Y-115221814D01*
X122377230Y-115313709D01*
X122378656Y-115351983D01*
X122391537Y-115442614D01*
X122421969Y-115540934D01*
X122422513Y-115542245D01*
X122464074Y-115649236D01*
X122499034Y-115749438D01*
X122532132Y-115852497D01*
X122241566Y-115848086D01*
X122073506Y-115841105D01*
X121893689Y-115826657D01*
X121736569Y-115807623D01*
X121713171Y-115803901D01*
X121520675Y-115768702D01*
X121359061Y-115733219D01*
X121236736Y-115699697D01*
X121162104Y-115670384D01*
X121142385Y-115651338D01*
X121165596Y-115636211D01*
X121187901Y-115641205D01*
X121270067Y-115650820D01*
X121390052Y-115637959D01*
X121533248Y-115607283D01*
X121685048Y-115563450D01*
X121830843Y-115511120D01*
X121956026Y-115454953D01*
X122045987Y-115399606D01*
X122084428Y-115355254D01*
X122120942Y-115316853D01*
X122136726Y-115313330D01*
X122176904Y-115289155D01*
X122228352Y-115229920D01*
X122236392Y-115218290D01*
X122283253Y-115155630D01*
X122316613Y-115124127D01*
X122319898Y-115123250D01*
X122343843Y-115151334D01*
G37*
G36*
X127484457Y-117470721D02*
G01*
X127458758Y-117497976D01*
X127436892Y-117501436D01*
X127394584Y-117494651D01*
X127389326Y-117488973D01*
X127414122Y-117468526D01*
X127436892Y-117458258D01*
X127477724Y-117457599D01*
X127484457Y-117470721D01*
G37*
%TD*%
M02*
