%TF.GenerationSoftware,KiCad,Pcbnew,(6.0.8-1)-1*%
%TF.CreationDate,2023-01-29T13:44:33-06:00*%
%TF.ProjectId,M4_CAN_Feather_Carrier,4d345f43-414e-45f4-9665-61746865725f,rev?*%
%TF.SameCoordinates,Original*%
%TF.FileFunction,Soldermask,Bot*%
%TF.FilePolarity,Negative*%
%FSLAX46Y46*%
G04 Gerber Fmt 4.6, Leading zero omitted, Abs format (unit mm)*
G04 Created by KiCad (PCBNEW (6.0.8-1)-1) date 2023-01-29 13:44:33*
%MOMM*%
%LPD*%
G01*
G04 APERTURE LIST*
%ADD10C,1.700000*%
%ADD11C,1.650000*%
%ADD12C,1.600000*%
%ADD13C,3.800000*%
%ADD14R,1.700000X1.700000*%
%ADD15O,1.700000X1.700000*%
G04 APERTURE END LIST*
D10*
%TO.C,U2*%
X128080000Y-110230000D03*
X130590000Y-110230000D03*
X133130000Y-110230000D03*
X135670000Y-110230000D03*
X138210000Y-110230000D03*
X140750000Y-110230000D03*
X143290000Y-110230000D03*
X145830000Y-110230000D03*
X148370000Y-110230000D03*
X150910000Y-110230000D03*
X153450000Y-110230000D03*
X155990000Y-110230000D03*
X158530000Y-110230000D03*
X161070000Y-110230000D03*
X163610000Y-110230000D03*
X166150000Y-110230000D03*
X166150000Y-89910000D03*
X163610000Y-89910000D03*
X161070000Y-89910000D03*
X158530000Y-89910000D03*
X155990000Y-89910000D03*
X153450000Y-89910000D03*
X150910000Y-89910000D03*
X148370000Y-89910000D03*
X145830000Y-89910000D03*
X143290000Y-89910000D03*
X140750000Y-89910000D03*
X138210000Y-89910000D03*
%TD*%
D11*
%TO.C,J1*%
X130700000Y-81113000D03*
X125700000Y-84613000D03*
%TD*%
D10*
%TO.C,J7*%
X132170000Y-115285000D03*
X132170000Y-117825000D03*
X132170000Y-120365000D03*
X134710000Y-115285000D03*
X134710000Y-117825000D03*
X134710000Y-120365000D03*
X137250000Y-115285000D03*
X137250000Y-117825000D03*
X137250000Y-120365000D03*
X139790000Y-115285000D03*
X139790000Y-117825000D03*
X139790000Y-120365000D03*
%TD*%
D12*
%TO.C,J2*%
X175596000Y-77500000D03*
X172096000Y-82500000D03*
X168596000Y-77500000D03*
%TD*%
D13*
%TO.C,H3*%
X181500000Y-75200000D03*
%TD*%
D10*
%TO.C,U1*%
X147110000Y-74402000D03*
X147110000Y-76942000D03*
X147110000Y-79482000D03*
X147110000Y-82022000D03*
%TD*%
D13*
%TO.C,H1*%
X123500000Y-121200000D03*
%TD*%
D14*
%TO.C,J4*%
X168100000Y-117835000D03*
D15*
X168100000Y-120375000D03*
X165560000Y-117835000D03*
X165560000Y-120375000D03*
X163020000Y-117835000D03*
X163020000Y-120375000D03*
X160480000Y-117835000D03*
X160480000Y-120375000D03*
%TD*%
D13*
%TO.C,H2*%
X181500000Y-121200000D03*
%TD*%
D14*
%TO.C,J5*%
X156400000Y-115285000D03*
D15*
X156400000Y-117825000D03*
X156400000Y-120365000D03*
%TD*%
D10*
%TO.C,J3*%
X144720000Y-115290000D03*
X144720000Y-117830000D03*
X144720000Y-120370000D03*
X147260000Y-115290000D03*
X147260000Y-117830000D03*
X147260000Y-120370000D03*
X149800000Y-115290000D03*
X149800000Y-117830000D03*
X149800000Y-120370000D03*
X152340000Y-115290000D03*
X152340000Y-117830000D03*
X152340000Y-120370000D03*
%TD*%
D13*
%TO.C,H4*%
X123500000Y-75200000D03*
%TD*%
M02*
