M48
; DRILL file {KiCad (6.0.8-1)-1} date Sunday, January 29, 2023 at 01:44:37 PM
; FORMAT={-:-/ absolute / metric / decimal}
; #@! TF.CreationDate,2023-01-29T13:44:37-06:00
; #@! TF.GenerationSoftware,Kicad,Pcbnew,(6.0.8-1)-1
; #@! TF.FileFunction,Plated,1,2,PTH
FMAT,2
METRIC
; #@! TA.AperFunction,Plated,PTH,ViaDrill
T1C0.400
; #@! TA.AperFunction,Plated,PTH,ComponentDrill
T2C1.000
; #@! TA.AperFunction,Plated,PTH,ComponentDrill
T3C1.050
; #@! TA.AperFunction,Plated,PTH,ComponentDrill
T4C1.100
; #@! TA.AperFunction,Plated,PTH,ComponentDrill
T5C2.200
%
G90
G05
T1
X130.0Y-103.9
X133.5Y-97.4
X135.7Y-81.1
X135.75Y-79.8
X143.1Y-104.0
X144.8Y-99.2
X145.9Y-102.3
X146.5Y-97.5
X148.1Y-102.3
X148.3Y-95.6
X148.3Y-98.4
X150.403Y-102.312
X152.7Y-102.9
X153.7Y-106.9
X155.0Y-101.1
X155.1Y-107.8
X156.6Y-101.0
X157.862Y-100.138
X159.325Y-99.6
X162.8Y-102.7
X165.8Y-104.9
X166.3Y-96.4
X166.5Y-105.7
X166.8Y-107.6
X170.1Y-96.3
X171.4Y-96.3
X175.0Y-89.6
X175.0Y-108.6
X175.6Y-86.0
X177.0Y-104.8
X177.0Y-105.8
X177.1Y-96.3
X177.1Y-97.4
X177.8Y-117.4
X177.9Y-109.0
X178.0Y-92.1
X178.0Y-100.5
X182.675Y-89.425
X182.675Y-97.925
X182.675Y-106.225
X182.675Y-114.725
T2
X128.08Y-110.23
X130.59Y-110.23
X132.17Y-115.285
X132.17Y-117.825
X132.17Y-120.365
X133.13Y-110.23
X134.71Y-115.285
X134.71Y-117.825
X134.71Y-120.365
X135.67Y-110.23
X137.25Y-115.285
X137.25Y-117.825
X137.25Y-120.365
X138.21Y-89.91
X138.21Y-110.23
X139.79Y-115.285
X139.79Y-117.825
X139.79Y-120.365
X140.75Y-89.91
X140.75Y-110.23
X143.29Y-89.91
X143.29Y-110.23
X144.72Y-115.29
X144.72Y-117.83
X144.72Y-120.37
X145.83Y-89.91
X145.83Y-110.23
X147.11Y-74.402
X147.11Y-76.942
X147.11Y-79.482
X147.11Y-82.022
X147.26Y-115.29
X147.26Y-117.83
X147.26Y-120.37
X148.37Y-89.91
X148.37Y-110.23
X149.8Y-115.29
X149.8Y-117.83
X149.8Y-120.37
X150.91Y-89.91
X150.91Y-110.23
X152.34Y-115.29
X152.34Y-117.83
X152.34Y-120.37
X153.45Y-89.91
X153.45Y-110.23
X155.99Y-89.91
X155.99Y-110.23
X156.4Y-115.285
X156.4Y-117.825
X156.4Y-120.365
X158.53Y-89.91
X158.53Y-110.23
X160.48Y-117.835
X160.48Y-120.375
X161.07Y-89.91
X161.07Y-110.23
X163.02Y-117.835
X163.02Y-120.375
X163.61Y-89.91
X163.61Y-110.23
X165.56Y-117.835
X165.56Y-120.375
X166.15Y-89.91
X166.15Y-110.23
X168.1Y-117.835
X168.1Y-120.375
T3
X168.596Y-77.5
X172.096Y-82.5
X175.596Y-77.5
T4
X125.7Y-84.613
X130.7Y-81.113
T5
X123.5Y-75.2
X123.5Y-121.2
X181.5Y-75.2
X181.5Y-121.2
T0
M30
